M48
; DRILL file {KiCad 9.0.6} date 2026-06-26T11:48:24+0100
; FORMAT={-:-/ absolute / metric / decimal}
; #@! TF.CreationDate,2026-06-26T11:48:24+01:00
; #@! TF.GenerationSoftware,Kicad,Pcbnew,9.0.6
; #@! TF.FileFunction,Plated,1,2,PTH
FMAT,2
METRIC
; #@! TA.AperFunction,Plated,PTH,ViaDrill
T1C0.300
; #@! TA.AperFunction,Plated,PTH,ComponentDrill
T2C0.800
; #@! TA.AperFunction,Plated,PTH,ComponentDrill
T3C1.000
; #@! TA.AperFunction,Plated,PTH,ComponentDrill
T4C1.020
; #@! TA.AperFunction,Plated,PTH,ComponentDrill
T5C1.100
%
G90
G05
T1
X130.413Y-118.082
X137.657Y-119.598
X138.609Y-119.123
X140.071Y-80.391
X140.707Y-93.199
X141.722Y-114.429
X143.696Y-83.337
X149.448Y-91.98
X150.002Y-118.513
X150.617Y-94.5
X155.469Y-103.152
X155.469Y-116.162
X157.312Y-114.069
X160.208Y-93.788
X163.506Y-98.836
X165.585Y-86.855
T2
X118.389Y-65.79
X118.389Y-70.79
X123.297Y-64.795
X123.297Y-72.415
X125.837Y-64.795
X125.837Y-72.415
X128.377Y-64.795
X128.377Y-72.415
X130.917Y-64.795
X130.917Y-72.415
X133.457Y-64.795
X133.457Y-72.415
X135.997Y-64.795
X135.997Y-72.415
X136.093Y-114.237
X136.093Y-119.237
X136.093Y-126.126
X136.093Y-131.126
X136.144Y-102.349
X136.144Y-107.349
X138.537Y-64.795
X138.537Y-72.415
X140.97Y-112.927
X140.97Y-120.547
X140.97Y-124.816
X140.97Y-132.436
X141.021Y-101.039
X141.021Y-108.659
X141.808Y-78.196
X141.808Y-83.196
X141.884Y-90.362
X141.884Y-95.362
X143.485Y-66.359
X143.485Y-71.359
X143.51Y-112.927
X143.51Y-120.547
X143.51Y-124.816
X143.51Y-132.436
X143.561Y-101.039
X143.561Y-108.659
X145.821Y-77.052
X145.821Y-84.672
X145.974Y-89.081
X145.974Y-96.701
X146.05Y-112.927
X146.05Y-120.547
X146.05Y-124.816
X146.05Y-132.436
X146.101Y-101.039
X146.101Y-108.659
X148.031Y-64.795
X148.031Y-72.415
X148.361Y-77.052
X148.361Y-84.672
X148.514Y-89.081
X148.514Y-96.701
X148.59Y-112.927
X148.59Y-120.547
X148.59Y-124.816
X148.59Y-132.436
X148.641Y-101.039
X148.641Y-108.659
X150.571Y-64.795
X150.571Y-72.415
X150.901Y-77.052
X150.901Y-84.672
X151.054Y-89.081
X151.054Y-96.701
X151.13Y-112.927
X151.13Y-120.547
X151.13Y-124.816
X151.13Y-132.436
X151.181Y-101.039
X151.181Y-108.659
X153.111Y-64.795
X153.111Y-72.415
X153.441Y-77.052
X153.441Y-84.672
X153.594Y-89.081
X153.594Y-96.701
X153.67Y-112.927
X153.67Y-120.547
X153.67Y-124.816
X153.67Y-132.436
X153.721Y-101.039
X153.721Y-108.659
X155.651Y-64.795
X155.651Y-72.415
X155.981Y-77.052
X155.981Y-84.672
X156.134Y-89.081
X156.134Y-96.701
X156.21Y-112.927
X156.21Y-120.547
X156.21Y-124.816
X156.21Y-132.436
X156.261Y-101.039
X156.261Y-108.659
X158.191Y-64.795
X158.191Y-72.415
X158.521Y-77.052
X158.521Y-84.672
X158.674Y-89.081
X158.674Y-96.701
X158.75Y-112.927
X158.75Y-120.547
X158.75Y-124.816
X158.75Y-132.436
X158.801Y-101.039
X158.801Y-108.659
X160.731Y-64.795
X160.731Y-72.415
X161.061Y-77.052
X161.061Y-84.672
X161.214Y-89.081
X161.214Y-96.701
X161.29Y-112.927
X161.29Y-120.547
X161.29Y-124.816
X161.29Y-132.436
X161.341Y-101.039
X161.341Y-108.659
X163.271Y-64.795
X163.271Y-72.415
X163.601Y-77.052
X163.601Y-84.672
X163.754Y-89.081
X163.754Y-96.701
X163.83Y-112.927
X163.83Y-120.547
X163.83Y-124.816
X163.83Y-132.436
X163.881Y-101.039
X163.881Y-108.659
T3
X134.544Y-78.283
X134.544Y-80.823
X134.544Y-87.986
X134.544Y-90.526
X137.084Y-78.283
X137.084Y-80.823
X137.084Y-87.986
X137.084Y-90.526
X168.673Y-68.58
X168.673Y-71.12
X168.673Y-73.66
X168.673Y-76.2
X168.673Y-78.74
X168.673Y-81.28
X168.673Y-83.82
X168.673Y-86.36
X168.673Y-88.9
X168.673Y-91.44
X168.673Y-93.98
X168.673Y-96.52
X168.673Y-99.06
X168.673Y-101.6
X168.673Y-104.14
X168.673Y-106.68
X168.673Y-109.22
X168.673Y-111.76
X168.673Y-114.3
X168.673Y-116.84
X168.673Y-119.38
X168.673Y-121.92
X168.673Y-124.46
X168.673Y-127.0
X168.673Y-129.54
X171.213Y-68.58
X171.213Y-71.12
X171.213Y-73.66
X171.213Y-76.2
X171.213Y-78.74
X171.213Y-81.28
X171.213Y-83.82
X171.213Y-86.36
X171.213Y-88.9
X171.213Y-91.44
X171.213Y-93.98
X171.213Y-96.52
X171.213Y-99.06
X171.213Y-101.6
X171.213Y-104.14
X171.213Y-106.68
X171.213Y-109.22
X171.213Y-111.76
X171.213Y-114.3
X171.213Y-116.84
X171.213Y-119.38
X171.213Y-121.92
X171.213Y-124.46
X171.213Y-127.0
X171.213Y-129.54
T4
X106.934Y-85.982
X106.934Y-88.522
X106.934Y-91.062
X106.934Y-93.602
X106.934Y-96.142
X106.934Y-98.682
X106.934Y-101.222
X106.934Y-103.762
X106.934Y-106.302
X106.934Y-108.842
X106.934Y-111.382
X106.934Y-113.922
X106.934Y-116.462
X106.934Y-119.002
X106.934Y-121.542
X106.934Y-124.082
X106.934Y-126.622
X106.934Y-129.162
X106.934Y-131.702
X106.934Y-134.242
X113.284Y-86.212
X115.824Y-86.212
X118.364Y-86.212
X124.714Y-85.982
X124.714Y-88.522
X124.714Y-91.062
X124.714Y-93.602
X124.714Y-96.142
X124.714Y-98.682
X124.714Y-101.222
X124.714Y-103.762
X124.714Y-106.302
X124.714Y-108.842
X124.714Y-111.382
X124.714Y-113.922
X124.714Y-116.462
X124.714Y-119.002
X124.714Y-121.542
X124.714Y-124.082
X124.714Y-126.622
X124.714Y-129.162
X124.714Y-131.702
X124.714Y-134.242
T5
X97.028Y-121.412
X97.028Y-131.572
X99.621Y-66.396
X99.621Y-70.896
X106.121Y-66.396
X106.121Y-70.896
M30
