G04 #@! TF.GenerationSoftware,KiCad,Pcbnew,9.0.6*
G04 #@! TF.CreationDate,2026-06-26T11:48:22+01:00*
G04 #@! TF.ProjectId,Amstrad-CPC-IO-Logger,416d7374-7261-4642-9d43-50432d494f2d,V2.0*
G04 #@! TF.SameCoordinates,Original*
G04 #@! TF.FileFunction,Copper,L1,Top*
G04 #@! TF.FilePolarity,Positive*
%FSLAX46Y46*%
G04 Gerber Fmt 4.6, Leading zero omitted, Abs format (unit mm)*
G04 Created by KiCad (PCBNEW 9.0.6) date 2026-06-26 11:48:22*
%MOMM*%
%LPD*%
G01*
G04 APERTURE LIST*
G04 Aperture macros list*
%AMRoundRect*
0 Rectangle with rounded corners*
0 $1 Rounding radius*
0 $2 $3 $4 $5 $6 $7 $8 $9 X,Y pos of 4 corners*
0 Add a 4 corners polygon primitive as box body*
4,1,4,$2,$3,$4,$5,$6,$7,$8,$9,$2,$3,0*
0 Add four circle primitives for the rounded corners*
1,1,$1+$1,$2,$3*
1,1,$1+$1,$4,$5*
1,1,$1+$1,$6,$7*
1,1,$1+$1,$8,$9*
0 Add four rect primitives between the rounded corners*
20,1,$1+$1,$2,$3,$4,$5,0*
20,1,$1+$1,$4,$5,$6,$7,0*
20,1,$1+$1,$6,$7,$8,$9,0*
20,1,$1+$1,$8,$9,$2,$3,0*%
G04 Aperture macros list end*
G04 #@! TA.AperFunction,ComponentPad*
%ADD10C,1.600000*%
G04 #@! TD*
G04 #@! TA.AperFunction,ComponentPad*
%ADD11RoundRect,0.250000X0.550000X-0.950000X0.550000X0.950000X-0.550000X0.950000X-0.550000X-0.950000X0*%
G04 #@! TD*
G04 #@! TA.AperFunction,ComponentPad*
%ADD12O,1.600000X2.400000*%
G04 #@! TD*
G04 #@! TA.AperFunction,ComponentPad*
%ADD13RoundRect,0.249999X0.850001X-0.850001X0.850001X0.850001X-0.850001X0.850001X-0.850001X-0.850001X0*%
G04 #@! TD*
G04 #@! TA.AperFunction,ComponentPad*
%ADD14C,2.200000*%
G04 #@! TD*
G04 #@! TA.AperFunction,ComponentPad*
%ADD15RoundRect,0.250000X-0.600000X-0.600000X0.600000X-0.600000X0.600000X0.600000X-0.600000X0.600000X0*%
G04 #@! TD*
G04 #@! TA.AperFunction,ComponentPad*
%ADD16C,1.700000*%
G04 #@! TD*
G04 #@! TA.AperFunction,ComponentPad*
%ADD17R,1.700000X1.700000*%
G04 #@! TD*
G04 #@! TA.AperFunction,ComponentPad*
%ADD18O,1.700000X1.700000*%
G04 #@! TD*
G04 #@! TA.AperFunction,SMDPad,CuDef*
%ADD19R,3.500000X1.700000*%
G04 #@! TD*
G04 #@! TA.AperFunction,SMDPad,CuDef*
%ADD20R,1.700000X3.500000*%
G04 #@! TD*
G04 #@! TA.AperFunction,ComponentPad*
%ADD21C,2.000000*%
G04 #@! TD*
G04 #@! TA.AperFunction,ViaPad*
%ADD22C,0.600000*%
G04 #@! TD*
G04 #@! TA.AperFunction,Conductor*
%ADD23C,0.400000*%
G04 #@! TD*
G04 #@! TA.AperFunction,Conductor*
%ADD24C,0.200000*%
G04 #@! TD*
G04 APERTURE END LIST*
D10*
G04 #@! TO.P,C7,1*
G04 #@! TO.N,/+5V*
X143484600Y-71359400D03*
G04 #@! TO.P,C7,2*
G04 #@! TO.N,/GND*
X143484600Y-66359400D03*
G04 #@! TD*
D11*
G04 #@! TO.P,U5,1*
G04 #@! TO.N,/A14*
X123296600Y-72415400D03*
D12*
G04 #@! TO.P,U5,2*
G04 #@! TO.N,/A15*
X125836600Y-72415400D03*
G04 #@! TO.P,U5,3*
G04 #@! TO.N,Net-(U8-E2)*
X128376600Y-72415400D03*
G04 #@! TO.P,U5,4*
G04 #@! TO.N,/A12*
X130916600Y-72415400D03*
G04 #@! TO.P,U5,5*
G04 #@! TO.N,/A13*
X133456600Y-72415400D03*
G04 #@! TO.P,U5,6*
G04 #@! TO.N,Net-(U8-E1)*
X135996600Y-72415400D03*
G04 #@! TO.P,U5,7,GND*
G04 #@! TO.N,/GND*
X138536600Y-72415400D03*
G04 #@! TO.P,U5,8*
G04 #@! TO.N,unconnected-(U5-Pad8)*
X138536600Y-64795400D03*
G04 #@! TO.P,U5,9*
G04 #@! TO.N,/GND*
X135996600Y-64795400D03*
G04 #@! TO.P,U5,10*
X133456600Y-64795400D03*
G04 #@! TO.P,U5,11*
G04 #@! TO.N,unconnected-(U5-Pad11)*
X130916600Y-64795400D03*
G04 #@! TO.P,U5,12*
G04 #@! TO.N,/GND*
X128376600Y-64795400D03*
G04 #@! TO.P,U5,13*
X125836600Y-64795400D03*
G04 #@! TO.P,U5,14,VCC*
G04 #@! TO.N,/+5V*
X123296600Y-64795400D03*
G04 #@! TD*
D13*
G04 #@! TO.P,D1,1,K*
G04 #@! TO.N,Net-(D1-K)*
X97028000Y-131572000D03*
D14*
G04 #@! TO.P,D1,2,A*
G04 #@! TO.N,/+5V*
X97028000Y-121412000D03*
G04 #@! TD*
D10*
G04 #@! TO.P,C4,1*
G04 #@! TO.N,/+5V*
X141884400Y-95362400D03*
G04 #@! TO.P,C4,2*
G04 #@! TO.N,/GND*
X141884400Y-90362400D03*
G04 #@! TD*
G04 #@! TO.P,C3,1*
G04 #@! TO.N,/3V3*
X136093200Y-131125600D03*
G04 #@! TO.P,C3,2*
G04 #@! TO.N,/GND*
X136093200Y-126125600D03*
G04 #@! TD*
G04 #@! TO.P,C1,1*
G04 #@! TO.N,/3V3*
X136144000Y-107349000D03*
G04 #@! TO.P,C1,2*
G04 #@! TO.N,/GND*
X136144000Y-102349000D03*
G04 #@! TD*
D15*
G04 #@! TO.P,J1,1,Pin_1*
G04 #@! TO.N,unconnected-(J1-Pin_1-Pad1)*
X168673500Y-68580000D03*
D16*
G04 #@! TO.P,J1,2,Pin_2*
G04 #@! TO.N,/GND*
X171213500Y-68580000D03*
G04 #@! TO.P,J1,3,Pin_3*
G04 #@! TO.N,unconnected-(J1-Pin_3-Pad3)*
X168673500Y-71120000D03*
G04 #@! TO.P,J1,4,Pin_4*
G04 #@! TO.N,unconnected-(J1-Pin_4-Pad4)*
X171213500Y-71120000D03*
G04 #@! TO.P,J1,5,Pin_5*
G04 #@! TO.N,unconnected-(J1-Pin_5-Pad5)*
X168673500Y-73660000D03*
G04 #@! TO.P,J1,6,Pin_6*
G04 #@! TO.N,unconnected-(J1-Pin_6-Pad6)*
X171213500Y-73660000D03*
G04 #@! TO.P,J1,7,Pin_7*
G04 #@! TO.N,unconnected-(J1-Pin_7-Pad7)*
X168673500Y-76200000D03*
G04 #@! TO.P,J1,8,Pin_8*
G04 #@! TO.N,unconnected-(J1-Pin_8-Pad8)*
X171213500Y-76200000D03*
G04 #@! TO.P,J1,9,Pin_9*
G04 #@! TO.N,unconnected-(J1-Pin_9-Pad9)*
X168673500Y-78740000D03*
G04 #@! TO.P,J1,10,Pin_10*
G04 #@! TO.N,unconnected-(J1-Pin_10-Pad10)*
X171213500Y-78740000D03*
G04 #@! TO.P,J1,11,Pin_11*
G04 #@! TO.N,unconnected-(J1-Pin_11-Pad11)*
X168673500Y-81280000D03*
G04 #@! TO.P,J1,12,Pin_12*
G04 #@! TO.N,unconnected-(J1-Pin_12-Pad12)*
X171213500Y-81280000D03*
G04 #@! TO.P,J1,13,Pin_13*
G04 #@! TO.N,unconnected-(J1-Pin_13-Pad13)*
X168673500Y-83820000D03*
G04 #@! TO.P,J1,14,Pin_14*
G04 #@! TO.N,unconnected-(J1-Pin_14-Pad14)*
X171213500Y-83820000D03*
G04 #@! TO.P,J1,15,Pin_15*
G04 #@! TO.N,unconnected-(J1-Pin_15-Pad15)*
X168673500Y-86360000D03*
G04 #@! TO.P,J1,16,Pin_16*
G04 #@! TO.N,unconnected-(J1-Pin_16-Pad16)*
X171213500Y-86360000D03*
G04 #@! TO.P,J1,17,Pin_17*
G04 #@! TO.N,unconnected-(J1-Pin_17-Pad17)*
X168673500Y-88900000D03*
G04 #@! TO.P,J1,18,Pin_18*
G04 #@! TO.N,/~{WR}*
X171213500Y-88900000D03*
G04 #@! TO.P,J1,19,Pin_19*
G04 #@! TO.N,/~{RD}*
X168673500Y-91440000D03*
G04 #@! TO.P,J1,20,Pin_20*
G04 #@! TO.N,/~{IORQ}*
X171213500Y-91440000D03*
G04 #@! TO.P,J1,21,Pin_21*
G04 #@! TO.N,unconnected-(J1-Pin_21-Pad21)*
X168673500Y-93980000D03*
G04 #@! TO.P,J1,22,Pin_22*
G04 #@! TO.N,unconnected-(J1-Pin_22-Pad22)*
X171213500Y-93980000D03*
G04 #@! TO.P,J1,23,Pin_23*
G04 #@! TO.N,unconnected-(J1-Pin_23-Pad23)*
X168673500Y-96520000D03*
G04 #@! TO.P,J1,24,Pin_24*
G04 #@! TO.N,/+5V*
X171213500Y-96520000D03*
G04 #@! TO.P,J1,25,Pin_25*
G04 #@! TO.N,/D0*
X168673500Y-99060000D03*
G04 #@! TO.P,J1,26,Pin_26*
G04 #@! TO.N,/D1*
X171213500Y-99060000D03*
G04 #@! TO.P,J1,27,Pin_27*
G04 #@! TO.N,/D2*
X168673500Y-101600000D03*
G04 #@! TO.P,J1,28,Pin_28*
G04 #@! TO.N,/D3*
X171213500Y-101600000D03*
G04 #@! TO.P,J1,29,Pin_29*
G04 #@! TO.N,/D4*
X168673500Y-104140000D03*
G04 #@! TO.P,J1,30,Pin_30*
G04 #@! TO.N,/D5*
X171213500Y-104140000D03*
G04 #@! TO.P,J1,31,Pin_31*
G04 #@! TO.N,/D6*
X168673500Y-106680000D03*
G04 #@! TO.P,J1,32,Pin_32*
G04 #@! TO.N,/D7*
X171213500Y-106680000D03*
G04 #@! TO.P,J1,33,Pin_33*
G04 #@! TO.N,/A0*
X168673500Y-109220000D03*
G04 #@! TO.P,J1,34,Pin_34*
G04 #@! TO.N,/A1*
X171213500Y-109220000D03*
G04 #@! TO.P,J1,35,Pin_35*
G04 #@! TO.N,/A2*
X168673500Y-111760000D03*
G04 #@! TO.P,J1,36,Pin_36*
G04 #@! TO.N,/A3*
X171213500Y-111760000D03*
G04 #@! TO.P,J1,37,Pin_37*
G04 #@! TO.N,/A4*
X168673500Y-114300000D03*
G04 #@! TO.P,J1,38,Pin_38*
G04 #@! TO.N,/A5*
X171213500Y-114300000D03*
G04 #@! TO.P,J1,39,Pin_39*
G04 #@! TO.N,/A6*
X168673500Y-116840000D03*
G04 #@! TO.P,J1,40,Pin_40*
G04 #@! TO.N,/A7*
X171213500Y-116840000D03*
G04 #@! TO.P,J1,41,Pin_41*
G04 #@! TO.N,/A8*
X168673500Y-119380000D03*
G04 #@! TO.P,J1,42,Pin_42*
G04 #@! TO.N,/A9*
X171213500Y-119380000D03*
G04 #@! TO.P,J1,43,Pin_43*
G04 #@! TO.N,/A10*
X168673500Y-121920000D03*
G04 #@! TO.P,J1,44,Pin_44*
G04 #@! TO.N,/A11*
X171213500Y-121920000D03*
G04 #@! TO.P,J1,45,Pin_45*
G04 #@! TO.N,/A12*
X168673500Y-124460000D03*
G04 #@! TO.P,J1,46,Pin_46*
G04 #@! TO.N,/A13*
X171213500Y-124460000D03*
G04 #@! TO.P,J1,47,Pin_47*
G04 #@! TO.N,/A14*
X168673500Y-127000000D03*
G04 #@! TO.P,J1,48,Pin_48*
G04 #@! TO.N,/A15*
X171213500Y-127000000D03*
G04 #@! TO.P,J1,49,Pin_49*
G04 #@! TO.N,/GND*
X168673500Y-129540000D03*
G04 #@! TO.P,J1,50,Pin_50*
G04 #@! TO.N,unconnected-(J1-Pin_50-Pad50)*
X171213500Y-129540000D03*
G04 #@! TD*
D11*
G04 #@! TO.P,U4,1,A->B*
G04 #@! TO.N,/DATA_AB*
X141020800Y-108659000D03*
D12*
G04 #@! TO.P,U4,2,A0*
G04 #@! TO.N,/D0*
X143560800Y-108659000D03*
G04 #@! TO.P,U4,3,A1*
G04 #@! TO.N,/D1*
X146100800Y-108659000D03*
G04 #@! TO.P,U4,4,A2*
G04 #@! TO.N,/D2*
X148640800Y-108659000D03*
G04 #@! TO.P,U4,5,A3*
G04 #@! TO.N,/D3*
X151180800Y-108659000D03*
G04 #@! TO.P,U4,6,A4*
G04 #@! TO.N,/D4*
X153720800Y-108659000D03*
G04 #@! TO.P,U4,7,A5*
G04 #@! TO.N,/D5*
X156260800Y-108659000D03*
G04 #@! TO.P,U4,8,A6*
G04 #@! TO.N,/D6*
X158800800Y-108659000D03*
G04 #@! TO.P,U4,9,A7*
G04 #@! TO.N,/D7*
X161340800Y-108659000D03*
G04 #@! TO.P,U4,10,GND*
G04 #@! TO.N,/GND*
X163880800Y-108659000D03*
G04 #@! TO.P,U4,11,B7*
G04 #@! TO.N,/P_D7*
X163880800Y-101039000D03*
G04 #@! TO.P,U4,12,B6*
G04 #@! TO.N,/P_D6*
X161340800Y-101039000D03*
G04 #@! TO.P,U4,13,B5*
G04 #@! TO.N,/P_D5*
X158800800Y-101039000D03*
G04 #@! TO.P,U4,14,B4*
G04 #@! TO.N,/P_D4*
X156260800Y-101039000D03*
G04 #@! TO.P,U4,15,B3*
G04 #@! TO.N,/P_D3*
X153720800Y-101039000D03*
G04 #@! TO.P,U4,16,B2*
G04 #@! TO.N,/P_D2*
X151180800Y-101039000D03*
G04 #@! TO.P,U4,17,B1*
G04 #@! TO.N,/P_D1*
X148640800Y-101039000D03*
G04 #@! TO.P,U4,18,B0*
G04 #@! TO.N,/P_D0*
X146100800Y-101039000D03*
G04 #@! TO.P,U4,19,CE*
G04 #@! TO.N,/~{DATA_CE}*
X143560800Y-101039000D03*
G04 #@! TO.P,U4,20,VCC*
G04 #@! TO.N,/3V3*
X141020800Y-101039000D03*
G04 #@! TD*
D10*
G04 #@! TO.P,C6,1*
G04 #@! TO.N,/+5V*
X141808200Y-83195800D03*
G04 #@! TO.P,C6,2*
G04 #@! TO.N,/GND*
X141808200Y-78195800D03*
G04 #@! TD*
D17*
G04 #@! TO.P,J3,1,Pin_1*
G04 #@! TO.N,/F8*
X134543800Y-87985600D03*
D16*
G04 #@! TO.P,J3,2,Pin_2*
G04 #@! TO.N,/~{CSHB}*
X137083800Y-87985600D03*
G04 #@! TO.P,J3,3,Pin_3*
G04 #@! TO.N,/F9*
X134543800Y-90525600D03*
G04 #@! TO.P,J3,4,Pin_4*
G04 #@! TO.N,/~{CSHB}*
X137083800Y-90525600D03*
G04 #@! TD*
D11*
G04 #@! TO.P,U3,1,A->B*
G04 #@! TO.N,/3V3*
X140970000Y-132435600D03*
D12*
G04 #@! TO.P,U3,2,A0*
G04 #@! TO.N,/A8*
X143510000Y-132435600D03*
G04 #@! TO.P,U3,3,A1*
G04 #@! TO.N,/A9*
X146050000Y-132435600D03*
G04 #@! TO.P,U3,4,A2*
G04 #@! TO.N,/A10*
X148590000Y-132435600D03*
G04 #@! TO.P,U3,5,A3*
G04 #@! TO.N,/A11*
X151130000Y-132435600D03*
G04 #@! TO.P,U3,6,A4*
G04 #@! TO.N,/A12*
X153670000Y-132435600D03*
G04 #@! TO.P,U3,7,A5*
G04 #@! TO.N,/A13*
X156210000Y-132435600D03*
G04 #@! TO.P,U3,8,A6*
G04 #@! TO.N,/A14*
X158750000Y-132435600D03*
G04 #@! TO.P,U3,9,A7*
G04 #@! TO.N,/A15*
X161290000Y-132435600D03*
G04 #@! TO.P,U3,10,GND*
G04 #@! TO.N,/GND*
X163830000Y-132435600D03*
G04 #@! TO.P,U3,11,B7*
G04 #@! TO.N,/P_A15*
X163830000Y-124815600D03*
G04 #@! TO.P,U3,12,B6*
G04 #@! TO.N,/P_A14*
X161290000Y-124815600D03*
G04 #@! TO.P,U3,13,B5*
G04 #@! TO.N,/P_A13*
X158750000Y-124815600D03*
G04 #@! TO.P,U3,14,B4*
G04 #@! TO.N,/P_A12*
X156210000Y-124815600D03*
G04 #@! TO.P,U3,15,B3*
G04 #@! TO.N,/P_A11*
X153670000Y-124815600D03*
G04 #@! TO.P,U3,16,B2*
G04 #@! TO.N,/P_A10*
X151130000Y-124815600D03*
G04 #@! TO.P,U3,17,B1*
G04 #@! TO.N,/P_A9*
X148590000Y-124815600D03*
G04 #@! TO.P,U3,18,B0*
G04 #@! TO.N,/P_A8*
X146050000Y-124815600D03*
G04 #@! TO.P,U3,19,CE*
G04 #@! TO.N,/~{ADHB_CE}*
X143510000Y-124815600D03*
G04 #@! TO.P,U3,20,VCC*
G04 #@! TO.N,/3V3*
X140970000Y-124815600D03*
G04 #@! TD*
D10*
G04 #@! TO.P,C5,1*
G04 #@! TO.N,/+5V*
X118389400Y-70789800D03*
G04 #@! TO.P,C5,2*
G04 #@! TO.N,/GND*
X118389400Y-65789800D03*
G04 #@! TD*
D11*
G04 #@! TO.P,U6,1,A0*
G04 #@! TO.N,/A4*
X145821400Y-84672300D03*
D12*
G04 #@! TO.P,U6,2,A1*
G04 #@! TO.N,/A5*
X148361400Y-84672300D03*
G04 #@! TO.P,U6,3,A2*
G04 #@! TO.N,/A6*
X150901400Y-84672300D03*
G04 #@! TO.P,U6,4,E1*
G04 #@! TO.N,/A2*
X153441400Y-84672300D03*
G04 #@! TO.P,U6,5,E2*
G04 #@! TO.N,/A3*
X155981400Y-84672300D03*
G04 #@! TO.P,U6,6,E3*
G04 #@! TO.N,/A7*
X158521400Y-84672300D03*
G04 #@! TO.P,U6,7,O7*
G04 #@! TO.N,/F0*
X161061400Y-84672300D03*
G04 #@! TO.P,U6,8,GND*
G04 #@! TO.N,/GND*
X163601400Y-84672300D03*
G04 #@! TO.P,U6,9,O6*
G04 #@! TO.N,/E0*
X163601400Y-77052300D03*
G04 #@! TO.P,U6,10,O5*
G04 #@! TO.N,unconnected-(U6-O5-Pad10)*
X161061400Y-77052300D03*
G04 #@! TO.P,U6,11,O4*
G04 #@! TO.N,unconnected-(U6-O4-Pad11)*
X158521400Y-77052300D03*
G04 #@! TO.P,U6,12,O3*
G04 #@! TO.N,unconnected-(U6-O3-Pad12)*
X155981400Y-77052300D03*
G04 #@! TO.P,U6,13,O2*
G04 #@! TO.N,unconnected-(U6-O2-Pad13)*
X153441400Y-77052300D03*
G04 #@! TO.P,U6,14,O1*
G04 #@! TO.N,unconnected-(U6-O1-Pad14)*
X150901400Y-77052300D03*
G04 #@! TO.P,U6,15,O0*
G04 #@! TO.N,unconnected-(U6-O0-Pad15)*
X148361400Y-77052300D03*
G04 #@! TO.P,U6,16,VCC*
G04 #@! TO.N,/+5V*
X145821400Y-77052300D03*
G04 #@! TD*
D11*
G04 #@! TO.P,U7,1*
G04 #@! TO.N,/~{CSLB}*
X148031200Y-72415400D03*
D12*
G04 #@! TO.P,U7,2*
G04 #@! TO.N,/~{CSHB}*
X150571200Y-72415400D03*
G04 #@! TO.P,U7,3*
G04 #@! TO.N,/~{DBGC}*
X153111200Y-72415400D03*
G04 #@! TO.P,U7,4*
X155651200Y-72415400D03*
G04 #@! TO.P,U7,5*
G04 #@! TO.N,/~{IORD}*
X158191200Y-72415400D03*
G04 #@! TO.P,U7,6*
G04 #@! TO.N,/~{CSRD}*
X160731200Y-72415400D03*
G04 #@! TO.P,U7,7,GND*
G04 #@! TO.N,/GND*
X163271200Y-72415400D03*
G04 #@! TO.P,U7,8*
G04 #@! TO.N,/~{IORD}*
X163271200Y-64795400D03*
G04 #@! TO.P,U7,9*
G04 #@! TO.N,/~{RD}*
X160731200Y-64795400D03*
G04 #@! TO.P,U7,10*
G04 #@! TO.N,/~{IORQ}*
X158191200Y-64795400D03*
G04 #@! TO.P,U7,11*
G04 #@! TO.N,/~{IOWR}*
X155651200Y-64795400D03*
G04 #@! TO.P,U7,12*
G04 #@! TO.N,/~{IORQ}*
X153111200Y-64795400D03*
G04 #@! TO.P,U7,13*
G04 #@! TO.N,/~{WR}*
X150571200Y-64795400D03*
G04 #@! TO.P,U7,14,VCC*
G04 #@! TO.N,/+5V*
X148031200Y-64795400D03*
G04 #@! TD*
D17*
G04 #@! TO.P,J2,1,Pin_1*
G04 #@! TO.N,/E0*
X134543800Y-78282800D03*
D16*
G04 #@! TO.P,J2,2,Pin_2*
G04 #@! TO.N,/~{CSLB}*
X137083800Y-78282800D03*
G04 #@! TO.P,J2,3,Pin_3*
G04 #@! TO.N,/F0*
X134543800Y-80822800D03*
G04 #@! TO.P,J2,4,Pin_4*
G04 #@! TO.N,/~{CSLB}*
X137083800Y-80822800D03*
G04 #@! TD*
D10*
G04 #@! TO.P,C2,1*
G04 #@! TO.N,/3V3*
X136093200Y-119237300D03*
G04 #@! TO.P,C2,2*
G04 #@! TO.N,/GND*
X136093200Y-114237300D03*
G04 #@! TD*
D18*
G04 #@! TO.P,U1,1,GPIO0*
G04 #@! TO.N,/P_A0*
X124714000Y-134242000D03*
D19*
X125614000Y-134242000D03*
D18*
G04 #@! TO.P,U1,2,GPIO1*
G04 #@! TO.N,/P_A1*
X124714000Y-131702000D03*
D19*
X125614000Y-131702000D03*
D17*
G04 #@! TO.P,U1,3,GND*
G04 #@! TO.N,/GND*
X124714000Y-129162000D03*
D19*
X125614000Y-129162000D03*
D18*
G04 #@! TO.P,U1,4,GPIO2*
G04 #@! TO.N,/P_A8*
X124714000Y-126622000D03*
D19*
X125614000Y-126622000D03*
D18*
G04 #@! TO.P,U1,5,GPIO3*
G04 #@! TO.N,/P_A9*
X124714000Y-124082000D03*
D19*
X125614000Y-124082000D03*
D18*
G04 #@! TO.P,U1,6,GPIO4*
G04 #@! TO.N,/P_A10*
X124714000Y-121542000D03*
D19*
X125614000Y-121542000D03*
D18*
G04 #@! TO.P,U1,7,GPIO5*
G04 #@! TO.N,/P_A11*
X124714000Y-119002000D03*
D19*
X125614000Y-119002000D03*
D17*
G04 #@! TO.P,U1,8,GND*
G04 #@! TO.N,/GND*
X124714000Y-116462000D03*
D19*
X125614000Y-116462000D03*
D18*
G04 #@! TO.P,U1,9,GPIO6*
G04 #@! TO.N,/P_A12*
X124714000Y-113922000D03*
D19*
X125614000Y-113922000D03*
D18*
G04 #@! TO.P,U1,10,GPIO7*
G04 #@! TO.N,/P_A13*
X124714000Y-111382000D03*
D19*
X125614000Y-111382000D03*
D18*
G04 #@! TO.P,U1,11,GPIO8*
G04 #@! TO.N,/P_A14*
X124714000Y-108842000D03*
D19*
X125614000Y-108842000D03*
D18*
G04 #@! TO.P,U1,12,GPIO9*
G04 #@! TO.N,/P_A15*
X124714000Y-106302000D03*
D19*
X125614000Y-106302000D03*
D17*
G04 #@! TO.P,U1,13,GND*
G04 #@! TO.N,/GND*
X124714000Y-103762000D03*
D19*
X125614000Y-103762000D03*
D18*
G04 #@! TO.P,U1,14,GPIO10*
G04 #@! TO.N,/P_D0*
X124714000Y-101222000D03*
D19*
X125614000Y-101222000D03*
D18*
G04 #@! TO.P,U1,15,GPIO11*
G04 #@! TO.N,/P_D1*
X124714000Y-98682000D03*
D19*
X125614000Y-98682000D03*
D18*
G04 #@! TO.P,U1,16,GPIO12*
G04 #@! TO.N,/P_D2*
X124714000Y-96142000D03*
D19*
X125614000Y-96142000D03*
D18*
G04 #@! TO.P,U1,17,GPIO13*
G04 #@! TO.N,/P_D3*
X124714000Y-93602000D03*
D19*
X125614000Y-93602000D03*
D17*
G04 #@! TO.P,U1,18,GND*
G04 #@! TO.N,/GND*
X124714000Y-91062000D03*
D19*
X125614000Y-91062000D03*
D18*
G04 #@! TO.P,U1,19,GPIO14*
G04 #@! TO.N,/P_D4*
X124714000Y-88522000D03*
D19*
X125614000Y-88522000D03*
D18*
G04 #@! TO.P,U1,20,GPIO15*
G04 #@! TO.N,/P_D5*
X124714000Y-85982000D03*
D19*
X125614000Y-85982000D03*
D18*
G04 #@! TO.P,U1,21,GPIO16*
G04 #@! TO.N,/P_D6*
X106934000Y-85982000D03*
D19*
X106034000Y-85982000D03*
D18*
G04 #@! TO.P,U1,22,GPIO17*
G04 #@! TO.N,/P_D7*
X106934000Y-88522000D03*
D19*
X106034000Y-88522000D03*
D17*
G04 #@! TO.P,U1,23,GND*
G04 #@! TO.N,/GND*
X106934000Y-91062000D03*
D19*
X106034000Y-91062000D03*
D18*
G04 #@! TO.P,U1,24,GPIO18*
G04 #@! TO.N,/~{P_DBGC}*
X106934000Y-93602000D03*
D19*
X106034000Y-93602000D03*
D18*
G04 #@! TO.P,U1,25,GPIO19*
G04 #@! TO.N,/~{CTRL_CE}*
X106934000Y-96142000D03*
D19*
X106034000Y-96142000D03*
D18*
G04 #@! TO.P,U1,26,GPIO20*
G04 #@! TO.N,/~{ADHB_CE}*
X106934000Y-98682000D03*
D19*
X106034000Y-98682000D03*
D18*
G04 #@! TO.P,U1,27,GPIO21*
G04 #@! TO.N,/~{DATA_CE}*
X106934000Y-101222000D03*
D19*
X106034000Y-101222000D03*
D17*
G04 #@! TO.P,U1,28,GND*
G04 #@! TO.N,/GND*
X106934000Y-103762000D03*
D19*
X106034000Y-103762000D03*
D18*
G04 #@! TO.P,U1,29,GPIO22*
G04 #@! TO.N,/DATA_AB*
X106934000Y-106302000D03*
D19*
X106034000Y-106302000D03*
D18*
G04 #@! TO.P,U1,30,RUN*
G04 #@! TO.N,Net-(U1-RUN)*
X106934000Y-108842000D03*
D19*
X106034000Y-108842000D03*
D18*
G04 #@! TO.P,U1,31,GPIO26_ADC0*
G04 #@! TO.N,/~{P_CSRD}*
X106934000Y-111382000D03*
D19*
X106034000Y-111382000D03*
D18*
G04 #@! TO.P,U1,32,GPIO27_ADC1*
G04 #@! TO.N,/~{P_IOWR}*
X106934000Y-113922000D03*
D19*
X106034000Y-113922000D03*
D17*
G04 #@! TO.P,U1,33,AGND*
G04 #@! TO.N,/GND*
X106934000Y-116462000D03*
D19*
X106034000Y-116462000D03*
D18*
G04 #@! TO.P,U1,34,GPIO28_ADC2*
G04 #@! TO.N,unconnected-(U1-GPIO28_ADC2-Pad34)_1*
X106934000Y-119002000D03*
D19*
G04 #@! TO.N,unconnected-(U1-GPIO28_ADC2-Pad34)*
X106034000Y-119002000D03*
D18*
G04 #@! TO.P,U1,35,ADC_VREF*
G04 #@! TO.N,unconnected-(U1-ADC_VREF-Pad35)_1*
X106934000Y-121542000D03*
D19*
G04 #@! TO.N,unconnected-(U1-ADC_VREF-Pad35)*
X106034000Y-121542000D03*
D18*
G04 #@! TO.P,U1,36,3V3*
G04 #@! TO.N,/3V3*
X106934000Y-124082000D03*
D19*
X106034000Y-124082000D03*
D18*
G04 #@! TO.P,U1,37,3V3_EN*
G04 #@! TO.N,unconnected-(U1-3V3_EN-Pad37)*
X106934000Y-126622000D03*
D19*
G04 #@! TO.N,unconnected-(U1-3V3_EN-Pad37)_1*
X106034000Y-126622000D03*
D17*
G04 #@! TO.P,U1,38,GND*
G04 #@! TO.N,/GND*
X106934000Y-129162000D03*
D19*
X106034000Y-129162000D03*
D18*
G04 #@! TO.P,U1,39,VSYS*
G04 #@! TO.N,Net-(D1-K)*
X106934000Y-131702000D03*
D19*
X106034000Y-131702000D03*
D18*
G04 #@! TO.P,U1,40,VBUS*
G04 #@! TO.N,unconnected-(U1-VBUS-Pad40)*
X106934000Y-134242000D03*
D19*
G04 #@! TO.N,unconnected-(U1-VBUS-Pad40)_1*
X106034000Y-134242000D03*
D18*
G04 #@! TO.P,U1,41,SWCLK*
G04 #@! TO.N,unconnected-(U1-SWCLK-Pad41)*
X118364000Y-86212000D03*
D20*
G04 #@! TO.N,unconnected-(U1-SWCLK-Pad41)_1*
X118364000Y-85312000D03*
D17*
G04 #@! TO.P,U1,42,GND*
G04 #@! TO.N,unconnected-(U1-GND-Pad42)_1*
X115824000Y-86212000D03*
D20*
G04 #@! TO.N,unconnected-(U1-GND-Pad42)*
X115824000Y-85312000D03*
D18*
G04 #@! TO.P,U1,43,SWDIO*
G04 #@! TO.N,unconnected-(U1-SWDIO-Pad43)_1*
X113284000Y-86212000D03*
D20*
G04 #@! TO.N,unconnected-(U1-SWDIO-Pad43)*
X113284000Y-85312000D03*
G04 #@! TD*
D11*
G04 #@! TO.P,U2,1,A->B*
G04 #@! TO.N,/3V3*
X140970000Y-120547300D03*
D12*
G04 #@! TO.P,U2,2,A0*
G04 #@! TO.N,/~{CSRD}*
X143510000Y-120547300D03*
G04 #@! TO.P,U2,3,A1*
G04 #@! TO.N,/A0*
X146050000Y-120547300D03*
G04 #@! TO.P,U2,4,A2*
G04 #@! TO.N,/A1*
X148590000Y-120547300D03*
G04 #@! TO.P,U2,5,A3*
G04 #@! TO.N,/~{IOWR}*
X151130000Y-120547300D03*
G04 #@! TO.P,U2,6,A4*
G04 #@! TO.N,/~{DBGC}*
X153670000Y-120547300D03*
G04 #@! TO.P,U2,7,A5*
G04 #@! TO.N,unconnected-(U2-A5-Pad7)*
X156210000Y-120547300D03*
G04 #@! TO.P,U2,8,A6*
G04 #@! TO.N,unconnected-(U2-A6-Pad8)*
X158750000Y-120547300D03*
G04 #@! TO.P,U2,9,A7*
G04 #@! TO.N,unconnected-(U2-A7-Pad9)*
X161290000Y-120547300D03*
G04 #@! TO.P,U2,10,GND*
G04 #@! TO.N,/GND*
X163830000Y-120547300D03*
G04 #@! TO.P,U2,11,B7*
G04 #@! TO.N,unconnected-(U2-B7-Pad11)*
X163830000Y-112927300D03*
G04 #@! TO.P,U2,12,B6*
G04 #@! TO.N,unconnected-(U2-B6-Pad12)*
X161290000Y-112927300D03*
G04 #@! TO.P,U2,13,B5*
G04 #@! TO.N,unconnected-(U2-B5-Pad13)*
X158750000Y-112927300D03*
G04 #@! TO.P,U2,14,B4*
G04 #@! TO.N,/~{P_DBGC}*
X156210000Y-112927300D03*
G04 #@! TO.P,U2,15,B3*
G04 #@! TO.N,/~{P_IOWR}*
X153670000Y-112927300D03*
G04 #@! TO.P,U2,16,B2*
G04 #@! TO.N,/P_A1*
X151130000Y-112927300D03*
G04 #@! TO.P,U2,17,B1*
G04 #@! TO.N,/P_A0*
X148590000Y-112927300D03*
G04 #@! TO.P,U2,18,B0*
G04 #@! TO.N,/~{P_CSRD}*
X146050000Y-112927300D03*
G04 #@! TO.P,U2,19,CE*
G04 #@! TO.N,/~{CTRL_CE}*
X143510000Y-112927300D03*
G04 #@! TO.P,U2,20,VCC*
G04 #@! TO.N,/3V3*
X140970000Y-112927300D03*
G04 #@! TD*
D11*
G04 #@! TO.P,U8,1,A0*
G04 #@! TO.N,/A8*
X145973800Y-96700600D03*
D12*
G04 #@! TO.P,U8,2,A1*
G04 #@! TO.N,/A9*
X148513800Y-96700600D03*
G04 #@! TO.P,U8,3,A2*
G04 #@! TO.N,/A10*
X151053800Y-96700600D03*
G04 #@! TO.P,U8,4,E1*
G04 #@! TO.N,Net-(U8-E1)*
X153593800Y-96700600D03*
G04 #@! TO.P,U8,5,E2*
G04 #@! TO.N,Net-(U8-E2)*
X156133800Y-96700600D03*
G04 #@! TO.P,U8,6,E3*
G04 #@! TO.N,/A11*
X158673800Y-96700600D03*
G04 #@! TO.P,U8,7,O7*
G04 #@! TO.N,unconnected-(U8-O7-Pad7)*
X161213800Y-96700600D03*
G04 #@! TO.P,U8,8,GND*
G04 #@! TO.N,/GND*
X163753800Y-96700600D03*
G04 #@! TO.P,U8,9,O6*
G04 #@! TO.N,unconnected-(U8-O6-Pad9)*
X163753800Y-89080600D03*
G04 #@! TO.P,U8,10,O5*
G04 #@! TO.N,unconnected-(U8-O5-Pad10)*
X161213800Y-89080600D03*
G04 #@! TO.P,U8,11,O4*
G04 #@! TO.N,unconnected-(U8-O4-Pad11)*
X158673800Y-89080600D03*
G04 #@! TO.P,U8,12,O3*
G04 #@! TO.N,unconnected-(U8-O3-Pad12)*
X156133800Y-89080600D03*
G04 #@! TO.P,U8,13,O2*
G04 #@! TO.N,unconnected-(U8-O2-Pad13)*
X153593800Y-89080600D03*
G04 #@! TO.P,U8,14,O1*
G04 #@! TO.N,/F9*
X151053800Y-89080600D03*
G04 #@! TO.P,U8,15,O0*
G04 #@! TO.N,/F8*
X148513800Y-89080600D03*
G04 #@! TO.P,U8,16,VCC*
G04 #@! TO.N,/+5V*
X145973800Y-89080600D03*
G04 #@! TD*
D21*
G04 #@! TO.P,SW1,1,1*
G04 #@! TO.N,Net-(U1-RUN)*
X106121200Y-70895600D03*
X99621200Y-70895600D03*
G04 #@! TO.P,SW1,2,2*
G04 #@! TO.N,/GND*
X106121200Y-66395600D03*
X99621200Y-66395600D03*
G04 #@! TD*
D22*
G04 #@! TO.N,/A12*
X140071100Y-80391200D03*
G04 #@! TO.N,/A4*
X149447800Y-91980000D03*
G04 #@! TO.N,/A3*
X160208000Y-93788000D03*
X163506000Y-98836000D03*
G04 #@! TO.N,/A15*
X165585500Y-86855500D03*
G04 #@! TO.N,/A9*
X150002000Y-118513400D03*
G04 #@! TO.N,/P_A14*
X157311700Y-114068700D03*
G04 #@! TO.N,/P_A12*
X130412600Y-118082400D03*
G04 #@! TO.N,/P_A15*
X155469400Y-103152000D03*
G04 #@! TO.N,/P_A1*
X137657300Y-119598300D03*
G04 #@! TO.N,/~{CSHB}*
X143696000Y-83337200D03*
G04 #@! TO.N,/P_A0*
X138609400Y-119123100D03*
G04 #@! TO.N,/~{P_DBGC}*
X141722500Y-114429000D03*
G04 #@! TO.N,/~{CSRD}*
X155469400Y-116161600D03*
G04 #@! TO.N,Net-(U8-E1)*
X150617200Y-94499600D03*
G04 #@! TO.N,Net-(U8-E2)*
X140706800Y-93198600D03*
G04 #@! TD*
D23*
G04 #@! TO.N,/3V3*
X117365900Y-124082000D02*
X123697600Y-130413700D01*
X140970000Y-112927300D02*
X140970000Y-114529000D01*
X123697600Y-130413700D02*
X135381300Y-130413700D01*
X140970000Y-120547300D02*
X137403200Y-120547300D01*
X140970000Y-114529000D02*
X140801500Y-114529000D01*
X140801500Y-114529000D02*
X136093200Y-119237300D01*
X137403200Y-120547300D02*
X136093200Y-119237300D01*
X106934000Y-124082000D02*
X117365900Y-124082000D01*
X135381300Y-130413700D02*
X136093200Y-131125600D01*
D24*
G04 #@! TO.N,/D4*
X159157200Y-105092300D02*
X167719100Y-105092300D01*
X153720800Y-107157300D02*
X155054000Y-105824100D01*
X167719100Y-105092300D02*
X168671400Y-104140000D01*
X158425400Y-105824100D02*
X159157200Y-105092300D01*
X168671400Y-104140000D02*
X168673500Y-104140000D01*
X155054000Y-105824100D02*
X158425400Y-105824100D01*
X153720800Y-108659000D02*
X153720800Y-107157300D01*
G04 #@! TO.N,/A14*
X174439600Y-69550600D02*
X167763000Y-62874000D01*
X167801600Y-127869800D02*
X168671400Y-127000000D01*
X151992300Y-65349300D02*
X151005300Y-66336300D01*
X165052500Y-127869800D02*
X167801600Y-127869800D01*
X169311500Y-127000000D02*
X170581500Y-125730000D01*
X140543800Y-72464500D02*
X138974100Y-70894800D01*
X158750000Y-130933900D02*
X161358100Y-128325800D01*
X161358100Y-128325800D02*
X164596500Y-128325800D01*
X168673500Y-127000000D02*
X169311500Y-127000000D01*
X171599600Y-125730000D02*
X174439600Y-122890000D01*
X168671400Y-127000000D02*
X168673500Y-127000000D01*
X158750000Y-132435600D02*
X158750000Y-130933900D01*
X170581500Y-125730000D02*
X171599600Y-125730000D01*
X153064100Y-62874000D02*
X151992300Y-63945800D01*
X167763000Y-62874000D02*
X153064100Y-62874000D01*
X151005300Y-66336300D02*
X150065800Y-66336300D01*
X150065800Y-66336300D02*
X143937600Y-72464500D01*
X164596500Y-128325800D02*
X165052500Y-127869800D01*
X151992300Y-63945800D02*
X151992300Y-65349300D01*
X124817200Y-70894800D02*
X123296600Y-72415400D01*
X138974100Y-70894800D02*
X124817200Y-70894800D01*
X143937600Y-72464500D02*
X140543800Y-72464500D01*
X174439600Y-122890000D02*
X174439600Y-69550600D01*
D23*
G04 #@! TO.N,/GND*
X103849400Y-92526200D02*
X103849400Y-102222800D01*
X128376600Y-63344500D02*
X128527400Y-63193700D01*
X163830000Y-134037300D02*
X142951800Y-134037300D01*
X169942900Y-69850600D02*
X171213500Y-68580000D01*
X128376600Y-63344500D02*
X128376600Y-63193700D01*
X163830000Y-132435600D02*
X163830000Y-134037300D01*
X117783600Y-66395600D02*
X118389400Y-65789800D01*
X135996600Y-64795400D02*
X135996600Y-63193700D01*
X166269600Y-69850600D02*
X169942900Y-69850600D01*
X99621200Y-66395600D02*
X106121200Y-66395600D01*
X142307700Y-131286600D02*
X137146700Y-126125600D01*
X105313600Y-91062000D02*
X103849400Y-92526200D01*
X105388600Y-103762000D02*
X106934000Y-103762000D01*
X133456600Y-64795400D02*
X133456600Y-63193700D01*
X141808200Y-78195800D02*
X145435200Y-74568800D01*
X136093200Y-114237300D02*
X133868500Y-116462000D01*
X142307700Y-133393200D02*
X142307700Y-131286600D01*
X135996600Y-63193700D02*
X133456600Y-63193700D01*
X106934000Y-91062000D02*
X105313600Y-91062000D01*
X106121200Y-66395600D02*
X117783600Y-66395600D01*
X128376600Y-64795400D02*
X128376600Y-63344500D01*
X125836600Y-64795400D02*
X125836600Y-63193700D01*
X161551400Y-74568800D02*
X163271200Y-72849000D01*
X145435200Y-74568800D02*
X161551400Y-74568800D01*
X133868500Y-116462000D02*
X124714000Y-116462000D01*
X133056800Y-129162000D02*
X136093200Y-126125600D01*
X128527400Y-63193700D02*
X133456600Y-63193700D01*
X163271200Y-72849000D02*
X166269600Y-69850600D01*
X103849400Y-102222800D02*
X105388600Y-103762000D01*
X124714000Y-129162000D02*
X133056800Y-129162000D01*
X142951800Y-134037300D02*
X142307700Y-133393200D01*
X137146700Y-126125600D02*
X136093200Y-126125600D01*
X163271200Y-72415400D02*
X163271200Y-72849000D01*
X125836600Y-63193700D02*
X128376600Y-63193700D01*
D24*
G04 #@! TO.N,/A1*
X148590000Y-119045600D02*
X149985200Y-117650400D01*
X149985200Y-117650400D02*
X161065000Y-117650400D01*
X169961500Y-110472000D02*
X171213500Y-109220000D01*
X148590000Y-120547300D02*
X148590000Y-119045600D01*
X168243400Y-110472000D02*
X169961500Y-110472000D01*
X161065000Y-117650400D02*
X168243400Y-110472000D01*
G04 #@! TO.N,/D5*
X157762500Y-107157300D02*
X159390000Y-105529800D01*
X156260800Y-108659000D02*
X156260800Y-107157300D01*
X167849600Y-105529800D02*
X167969400Y-105410000D01*
X167969400Y-105410000D02*
X169943500Y-105410000D01*
X156260800Y-107157300D02*
X157762500Y-107157300D01*
X159390000Y-105529800D02*
X167849600Y-105529800D01*
X169943500Y-105410000D02*
X171213500Y-104140000D01*
G04 #@! TO.N,/A13*
X143427700Y-73915600D02*
X150565800Y-66777500D01*
X167937300Y-63616300D02*
X173995300Y-69674300D01*
X166644400Y-125712000D02*
X169961500Y-125712000D01*
X159461200Y-65564900D02*
X159461200Y-64070900D01*
X157833300Y-130933900D02*
X160843100Y-127924100D01*
X133456600Y-73917100D02*
X138993000Y-73917100D01*
X156210000Y-130933900D02*
X157833300Y-130933900D01*
X164406900Y-127924100D02*
X164808600Y-127522400D01*
X164808600Y-127522400D02*
X164831900Y-127522400D01*
X169961500Y-125712000D02*
X171213500Y-124460000D01*
X160242100Y-63290000D02*
X167092500Y-63290000D01*
X159461200Y-64070900D02*
X160242100Y-63290000D01*
X173995300Y-69674300D02*
X173995300Y-121678200D01*
X165254400Y-127102000D02*
X166644400Y-125712000D01*
X158248600Y-66777500D02*
X159461200Y-65564900D01*
X150565800Y-66777500D02*
X158248600Y-66777500D01*
X156210000Y-132435600D02*
X156210000Y-130933900D01*
X167092500Y-63290000D02*
X167418800Y-63616300D01*
X133456600Y-72415400D02*
X133456600Y-73917100D01*
X138993000Y-73917100D02*
X138994500Y-73915600D01*
X138994500Y-73915600D02*
X143427700Y-73915600D01*
X173995300Y-121678200D02*
X171213500Y-124460000D01*
X167418800Y-63616300D02*
X167937300Y-63616300D01*
X164831900Y-127522400D02*
X165252300Y-127102000D01*
X160843100Y-127924100D02*
X164406900Y-127924100D01*
X165252300Y-127102000D02*
X165254400Y-127102000D01*
G04 #@! TO.N,/A12*
X166369900Y-85462600D02*
X161298500Y-80391200D01*
X160048800Y-128009500D02*
X160535900Y-127522400D01*
X156594400Y-128009500D02*
X160048800Y-128009500D01*
X171590000Y-87630000D02*
X168300400Y-87630000D01*
X164642300Y-127120700D02*
X164665600Y-127120700D01*
X166369900Y-85699500D02*
X166369900Y-85462600D01*
X170589900Y-123190000D02*
X171575100Y-123190000D01*
X171575100Y-123190000D02*
X173584600Y-121180500D01*
X167326300Y-124460000D02*
X168673500Y-124460000D01*
X173584600Y-89624600D02*
X171590000Y-87630000D01*
X164240600Y-127522400D02*
X164642300Y-127120700D01*
X164665600Y-127120700D02*
X167326300Y-124460000D01*
X173584600Y-121180500D02*
X173584600Y-89624600D01*
X153670000Y-132435600D02*
X153670000Y-130933900D01*
X169319900Y-124460000D02*
X170589900Y-123190000D01*
X168673500Y-124460000D02*
X169319900Y-124460000D01*
X153670000Y-130933900D02*
X156594400Y-128009500D01*
X168300400Y-87630000D02*
X166369900Y-85699500D01*
X160535900Y-127522400D02*
X164240600Y-127522400D01*
X161298500Y-80391200D02*
X140071100Y-80391200D01*
G04 #@! TO.N,/D1*
X167297800Y-100330000D02*
X169943500Y-100330000D01*
X148780400Y-104477700D02*
X157785000Y-104477700D01*
X157785000Y-104477700D02*
X158375500Y-103887200D01*
X158375500Y-103887200D02*
X163740600Y-103887200D01*
X163740600Y-103887200D02*
X167297800Y-100330000D01*
X169943500Y-100330000D02*
X171213500Y-99060000D01*
X146100800Y-107157300D02*
X148780400Y-104477700D01*
X146100800Y-108659000D02*
X146100800Y-107157300D01*
G04 #@! TO.N,/A4*
X170687300Y-110608300D02*
X171456700Y-110608300D01*
X149609700Y-92141900D02*
X149447800Y-91980000D01*
X168673500Y-114300000D02*
X169943500Y-113030000D01*
X172366700Y-98521100D02*
X171635600Y-97790000D01*
X161215500Y-92141900D02*
X149609700Y-92141900D01*
X166863600Y-97790000D02*
X161215500Y-92141900D01*
X171456700Y-110608300D02*
X172366700Y-109698300D01*
X169943500Y-113030000D02*
X169943500Y-111352100D01*
X169943500Y-111352100D02*
X170687300Y-110608300D01*
X171635600Y-97790000D02*
X166863600Y-97790000D01*
X172366700Y-109698300D02*
X172366700Y-98521100D01*
G04 #@! TO.N,/A3*
X162441000Y-97771000D02*
X163506000Y-98836000D01*
X160311600Y-93788000D02*
X162441000Y-95917400D01*
X162441000Y-95917400D02*
X162441000Y-97771000D01*
X160208000Y-93788000D02*
X160311600Y-93788000D01*
G04 #@! TO.N,/~{IORQ}*
X156689500Y-66297100D02*
X153111200Y-66297100D01*
X158191200Y-64795400D02*
X156689500Y-66297100D01*
X153111200Y-64795400D02*
X153111200Y-66297100D01*
G04 #@! TO.N,/D6*
X158800800Y-108659000D02*
X158800800Y-107157300D01*
X158800800Y-107157300D02*
X159278100Y-106680000D01*
X159278100Y-106680000D02*
X168673500Y-106680000D01*
G04 #@! TO.N,/A0*
X162560000Y-113660400D02*
X159444100Y-116776300D01*
X146050000Y-120547300D02*
X146050000Y-119045600D01*
X162560000Y-112201600D02*
X162560000Y-113660400D01*
X165541600Y-109220000D02*
X162560000Y-112201600D01*
X159444100Y-116776300D02*
X148319300Y-116776300D01*
X168673500Y-109220000D02*
X165541600Y-109220000D01*
X148319300Y-116776300D02*
X146050000Y-119045600D01*
G04 #@! TO.N,/A15*
X165305500Y-130933900D02*
X167969400Y-128270000D01*
X159933000Y-84100700D02*
X158473800Y-82641500D01*
X161290000Y-130933900D02*
X165305500Y-130933900D01*
X165585500Y-86855500D02*
X161284100Y-86855500D01*
X134370500Y-82451000D02*
X125836600Y-73917100D01*
X158089600Y-82641500D02*
X157515400Y-82067300D01*
X169943500Y-128270000D02*
X171213500Y-127000000D01*
X139818300Y-82451000D02*
X134370500Y-82451000D01*
X167969400Y-128270000D02*
X169943500Y-128270000D01*
X161290000Y-132435600D02*
X161290000Y-130933900D01*
X159933000Y-85504400D02*
X159933000Y-84100700D01*
X161284100Y-86855500D02*
X159933000Y-85504400D01*
X125836600Y-72415400D02*
X125836600Y-73917100D01*
X157515400Y-82067300D02*
X140202000Y-82067300D01*
X140202000Y-82067300D02*
X139818300Y-82451000D01*
X158473800Y-82641500D02*
X158089600Y-82641500D01*
G04 #@! TO.N,/A9*
X169961400Y-117560000D02*
X171213500Y-118812100D01*
X169202400Y-115680500D02*
X169961400Y-116439500D01*
X169961400Y-116439500D02*
X169961400Y-117560000D01*
X160904200Y-118513400D02*
X163737100Y-115680500D01*
X163737100Y-115680500D02*
X169202400Y-115680500D01*
X171213500Y-118812100D02*
X171213500Y-119380000D01*
X150002000Y-118513400D02*
X160904200Y-118513400D01*
G04 #@! TO.N,/D3*
X164663700Y-104690600D02*
X166484300Y-102870000D01*
X158259100Y-105422400D02*
X158990900Y-104690600D01*
X166484300Y-102870000D02*
X169943500Y-102870000D01*
X169943500Y-102870000D02*
X171213500Y-101600000D01*
X151180800Y-108659000D02*
X151180800Y-107157300D01*
X152915700Y-105422400D02*
X158259100Y-105422400D01*
X158990900Y-104690600D02*
X164663700Y-104690600D01*
X151180800Y-107157300D02*
X152915700Y-105422400D01*
G04 #@! TO.N,/A8*
X165709200Y-122344300D02*
X159258200Y-122344300D01*
X168673500Y-119380000D02*
X165709200Y-122344300D01*
X159258200Y-122344300D02*
X157311700Y-124290800D01*
X148038300Y-126405600D02*
X143510000Y-130933900D01*
X143510000Y-132435600D02*
X143510000Y-130933900D01*
X156578200Y-126405600D02*
X148038300Y-126405600D01*
X157311700Y-124290800D02*
X157311700Y-125672100D01*
X157311700Y-125672100D02*
X156578200Y-126405600D01*
D23*
G04 #@! TO.N,/+5V*
X162617800Y-91580600D02*
X150565900Y-91580600D01*
X123296600Y-64795400D02*
X123296600Y-66397100D01*
X143380700Y-71047600D02*
X138730200Y-66397100D01*
X145973800Y-89080600D02*
X145973800Y-90682300D01*
X118389400Y-70789800D02*
X118903900Y-70789800D01*
X97028000Y-121412000D02*
X97028000Y-91814000D01*
X171213500Y-96520000D02*
X169943500Y-95250000D01*
X150240500Y-91255200D02*
X146546700Y-91255200D01*
X143484600Y-71359400D02*
X143380700Y-71255500D01*
X150565900Y-91580600D02*
X150240500Y-91255200D01*
X118903900Y-70789800D02*
X123296600Y-66397100D01*
X146546700Y-91255200D02*
X145973800Y-90682300D01*
X143380700Y-71255500D02*
X143380700Y-71047600D01*
X148031200Y-64795400D02*
X148031200Y-66397100D01*
X118052200Y-70789800D02*
X118389400Y-70789800D01*
X169943500Y-95250000D02*
X166287200Y-95250000D01*
X166287200Y-95250000D02*
X162617800Y-91580600D01*
X97028000Y-91814000D02*
X118052200Y-70789800D01*
X143380700Y-71047600D02*
X148031200Y-66397100D01*
X138730200Y-66397100D02*
X123296600Y-66397100D01*
D24*
G04 #@! TO.N,/D0*
X147470400Y-103815600D02*
X144128700Y-107157300D01*
X143560800Y-108659000D02*
X143560800Y-107157300D01*
X157924000Y-103485500D02*
X157593900Y-103815600D01*
X167973200Y-99060000D02*
X163547700Y-103485500D01*
X157593900Y-103815600D02*
X147470400Y-103815600D01*
X168673500Y-99060000D02*
X167973200Y-99060000D01*
X163547700Y-103485500D02*
X157924000Y-103485500D01*
X144128700Y-107157300D02*
X143560800Y-107157300D01*
G04 #@! TO.N,/A10*
X159757500Y-127164800D02*
X160603500Y-126318800D01*
X152359100Y-127164800D02*
X159757500Y-127164800D01*
X168673500Y-121953400D02*
X168673500Y-121920000D01*
X148590000Y-132435600D02*
X148590000Y-130933900D01*
X164308100Y-126318800D02*
X168673500Y-121953400D01*
X148590000Y-130933900D02*
X152359100Y-127164800D01*
X160603500Y-126318800D02*
X164308100Y-126318800D01*
G04 #@! TO.N,/A11*
X160369600Y-127120700D02*
X164074300Y-127120700D01*
X154456100Y-127607800D02*
X159882500Y-127607800D01*
X168003500Y-123191500D02*
X169942000Y-123191500D01*
X159882500Y-127607800D02*
X160369600Y-127120700D01*
X151130000Y-130933900D02*
X154456100Y-127607800D01*
X164074300Y-127120700D02*
X168003500Y-123191500D01*
X169942000Y-123191500D02*
X171213500Y-121920000D01*
X151130000Y-132435600D02*
X151130000Y-130933900D01*
G04 #@! TO.N,/A5*
X152325300Y-88390900D02*
X152325300Y-89779600D01*
X171635600Y-92710000D02*
X172769900Y-93844300D01*
X164756800Y-92710000D02*
X171635600Y-92710000D01*
X148361400Y-86174000D02*
X150108400Y-86174000D01*
X148361400Y-84672300D02*
X148361400Y-86174000D01*
X163032600Y-90985800D02*
X164756800Y-92710000D01*
X153531500Y-90985800D02*
X163032600Y-90985800D01*
X152325300Y-89779600D02*
X153531500Y-90985800D01*
X150108400Y-86174000D02*
X152325300Y-88390900D01*
X172769900Y-112743600D02*
X171213500Y-114300000D01*
X172769900Y-93844300D02*
X172769900Y-112743600D01*
G04 #@! TO.N,/D7*
X166514400Y-107846200D02*
X170047300Y-107846200D01*
X161340800Y-108659000D02*
X161340800Y-107157300D01*
X170047300Y-107846200D02*
X171213500Y-106680000D01*
X165825500Y-107157300D02*
X166514400Y-107846200D01*
X161340800Y-107157300D02*
X165825500Y-107157300D01*
G04 #@! TO.N,/A6*
X171575600Y-90170000D02*
X173177300Y-91771700D01*
X152183100Y-87455700D02*
X164095800Y-87455700D01*
X171722100Y-120538600D02*
X170716700Y-120538600D01*
X164095800Y-87455700D02*
X166810100Y-90170000D01*
X173177300Y-91771700D02*
X173177300Y-119083400D01*
X173177300Y-119083400D02*
X171722100Y-120538600D01*
X169943500Y-118612100D02*
X168673500Y-117342100D01*
X150901400Y-84672300D02*
X150901400Y-86174000D01*
X166810100Y-90170000D02*
X171575600Y-90170000D01*
X170716700Y-120538600D02*
X169943500Y-119765400D01*
X168673500Y-117342100D02*
X168673500Y-116840000D01*
X150901400Y-86174000D02*
X152183100Y-87455700D01*
X169943500Y-119765400D02*
X169943500Y-118612100D01*
G04 #@! TO.N,/D2*
X148640800Y-108659000D02*
X148640800Y-107157300D01*
X158824500Y-104288900D02*
X164403200Y-104288900D01*
X167092100Y-101600000D02*
X168673500Y-101600000D01*
X148640800Y-107157300D02*
X150777400Y-105020700D01*
X150777400Y-105020700D02*
X158092700Y-105020700D01*
X158092700Y-105020700D02*
X158824500Y-104288900D01*
X164403200Y-104288900D02*
X167092100Y-101600000D01*
D23*
G04 #@! TO.N,Net-(D1-K)*
X97158000Y-131702000D02*
X97028000Y-131572000D01*
X106934000Y-131702000D02*
X97158000Y-131702000D01*
D24*
G04 #@! TO.N,/P_A9*
X126633800Y-123313900D02*
X148590000Y-123313900D01*
X125865700Y-124082000D02*
X126633800Y-123313900D01*
X148590000Y-124815600D02*
X148590000Y-123313900D01*
X124714000Y-124082000D02*
X125865700Y-124082000D01*
G04 #@! TO.N,/P_A10*
X151130000Y-124815600D02*
X151130000Y-123313900D01*
X127235800Y-122912100D02*
X150728200Y-122912100D01*
X125865700Y-121542000D02*
X127235800Y-122912100D01*
X124714000Y-121542000D02*
X125865700Y-121542000D01*
X150728200Y-122912100D02*
X151130000Y-123313900D01*
G04 #@! TO.N,/P_A14*
X127757400Y-110253300D02*
X155559700Y-110253300D01*
X124714000Y-108842000D02*
X126346100Y-108842000D01*
X126346100Y-108842000D02*
X127757400Y-110253300D01*
X157311700Y-112005300D02*
X157311700Y-114068700D01*
X155559700Y-110253300D02*
X157311700Y-112005300D01*
G04 #@! TO.N,/P_D7*
X163880800Y-101039000D02*
X163880800Y-102540700D01*
X163479100Y-102942400D02*
X157924100Y-102942400D01*
X157532000Y-102550300D02*
X150728500Y-102550300D01*
X149910800Y-101732600D02*
X149910800Y-100192600D01*
X163880800Y-102540700D02*
X163479100Y-102942400D01*
X150728500Y-102550300D02*
X149910800Y-101732600D01*
X157924100Y-102942400D02*
X157532000Y-102550300D01*
X141012900Y-98251400D02*
X140055200Y-97293700D01*
X116857400Y-97293700D02*
X108085700Y-88522000D01*
X147969600Y-98251400D02*
X141012900Y-98251400D01*
X149910800Y-100192600D02*
X147969600Y-98251400D01*
X140055200Y-97293700D02*
X116857400Y-97293700D01*
X106934000Y-88522000D02*
X108085700Y-88522000D01*
G04 #@! TO.N,/P_D4*
X152670000Y-93811800D02*
X154863800Y-96005600D01*
X154863800Y-98140300D02*
X156260800Y-99537300D01*
X124714000Y-88522000D02*
X127348500Y-88522000D01*
X154863800Y-96005600D02*
X154863800Y-98140300D01*
X156260800Y-101039000D02*
X156260800Y-99537300D01*
X132638300Y-93811800D02*
X152670000Y-93811800D01*
X127348500Y-88522000D02*
X132638300Y-93811800D01*
G04 #@! TO.N,/P_D1*
X124714000Y-98682000D02*
X125865700Y-98682000D01*
X148640800Y-101039000D02*
X148640800Y-99537300D01*
X147785500Y-98682000D02*
X148640800Y-99537300D01*
X125865700Y-98682000D02*
X147785500Y-98682000D01*
G04 #@! TO.N,/P_D3*
X124714000Y-93602000D02*
X125865700Y-93602000D01*
X152323800Y-95948000D02*
X152323800Y-98140300D01*
X150406100Y-95148300D02*
X151524100Y-95148300D01*
X151524100Y-95148300D02*
X152323800Y-95948000D01*
X152323800Y-98140300D02*
X153720800Y-99537300D01*
X153720800Y-101039000D02*
X153720800Y-99537300D01*
X149513800Y-94256000D02*
X150406100Y-95148300D01*
X125865700Y-93602000D02*
X126519700Y-94256000D01*
X126519700Y-94256000D02*
X149513800Y-94256000D01*
G04 #@! TO.N,/P_D5*
X148337800Y-92091800D02*
X148849300Y-92603300D01*
X124714000Y-85982000D02*
X128298700Y-85982000D01*
X159775500Y-95844200D02*
X159775500Y-97557000D01*
X128298700Y-85982000D02*
X134408500Y-92091800D01*
X134408500Y-92091800D02*
X148337800Y-92091800D01*
X158800900Y-98531600D02*
X158800800Y-98531600D01*
X158800800Y-98531600D02*
X158800800Y-99537300D01*
X158800800Y-101039000D02*
X158800800Y-99537300D01*
X156534600Y-92603300D02*
X159775500Y-95844200D01*
X159775500Y-97557000D02*
X158800900Y-98531600D01*
X148849300Y-92603300D02*
X156534600Y-92603300D01*
G04 #@! TO.N,/P_D6*
X109467400Y-87363700D02*
X108085700Y-85982000D01*
X158344400Y-102540700D02*
X157389300Y-101585600D01*
X133803600Y-92533500D02*
X128633800Y-87363700D01*
X154455300Y-93005200D02*
X143086200Y-93005200D01*
X106934000Y-85982000D02*
X108085700Y-85982000D01*
X128633800Y-87363700D02*
X109467400Y-87363700D01*
X143086200Y-93005200D02*
X142614500Y-92533500D01*
X142614500Y-92533500D02*
X133803600Y-92533500D01*
X157389300Y-101585600D02*
X157389300Y-95939200D01*
X161340800Y-102540700D02*
X158344400Y-102540700D01*
X157389300Y-95939200D02*
X154455300Y-93005200D01*
X161340800Y-101039000D02*
X161340800Y-102540700D01*
G04 #@! TO.N,/P_A11*
X152850400Y-122494300D02*
X153670000Y-123313900D01*
X135038500Y-122494300D02*
X152850400Y-122494300D01*
X131546200Y-119002000D02*
X135038500Y-122494300D01*
X124714000Y-119002000D02*
X131546200Y-119002000D01*
X153670000Y-124815600D02*
X153670000Y-123313900D01*
G04 #@! TO.N,/P_A8*
X140178200Y-126317300D02*
X146050000Y-126317300D01*
X124714000Y-126622000D02*
X133796800Y-126622000D01*
X146050000Y-124815600D02*
X146050000Y-126317300D01*
X135414300Y-125004500D02*
X138865400Y-125004500D01*
X133796800Y-126622000D02*
X135414300Y-125004500D01*
X138865400Y-125004500D02*
X140178200Y-126317300D01*
G04 #@! TO.N,/P_D2*
X125865700Y-96142000D02*
X126211900Y-96488200D01*
X149783800Y-98140300D02*
X151180800Y-99537300D01*
X142742700Y-96488200D02*
X144058200Y-95172700D01*
X144058200Y-95172700D02*
X148983000Y-95172700D01*
X149783800Y-95973500D02*
X149783800Y-98140300D01*
X126211900Y-96488200D02*
X142742700Y-96488200D01*
X124714000Y-96142000D02*
X125865700Y-96142000D01*
X148983000Y-95172700D02*
X149783800Y-95973500D01*
X151180800Y-101039000D02*
X151180800Y-99537300D01*
G04 #@! TO.N,/P_A12*
X154971200Y-122075100D02*
X137141700Y-122075100D01*
X133149000Y-118082400D02*
X130412600Y-118082400D01*
X156210000Y-124815600D02*
X156210000Y-123313900D01*
X137141700Y-122075100D02*
X133149000Y-118082400D01*
X156210000Y-123313900D02*
X154971200Y-122075100D01*
G04 #@! TO.N,/P_D0*
X139072000Y-99537300D02*
X146100800Y-99537300D01*
X125865700Y-101222000D02*
X137387300Y-101222000D01*
X137387300Y-101222000D02*
X139072000Y-99537300D01*
X146100800Y-101039000D02*
X146100800Y-99537300D01*
X124714000Y-101222000D02*
X125865700Y-101222000D01*
G04 #@! TO.N,/P_A15*
X144540300Y-106107000D02*
X147495300Y-103152000D01*
X124714000Y-106302000D02*
X125865700Y-106302000D01*
X126060700Y-106107000D02*
X144540300Y-106107000D01*
X125865700Y-106302000D02*
X126060700Y-106107000D01*
X147495300Y-103152000D02*
X155469400Y-103152000D01*
G04 #@! TO.N,/P_A1*
X151130000Y-112927300D02*
X151130000Y-114429000D01*
X143724200Y-115441300D02*
X150117700Y-115441300D01*
X137783800Y-119724800D02*
X139440700Y-119724800D01*
X150117700Y-115441300D02*
X151130000Y-114429000D01*
X139440700Y-119724800D02*
X143724200Y-115441300D01*
X137657300Y-119598300D02*
X137783800Y-119724800D01*
G04 #@! TO.N,/~{CSLB}*
X148031200Y-72415400D02*
X146032800Y-72415400D01*
X141049300Y-74317300D02*
X137083800Y-78282800D01*
X144130900Y-74317300D02*
X141049300Y-74317300D01*
X146032800Y-72415400D02*
X144130900Y-74317300D01*
G04 #@! TO.N,/F0*
X135732100Y-82011100D02*
X134543800Y-80822800D01*
X161061400Y-84661100D02*
X158065900Y-81665600D01*
X138807400Y-82011100D02*
X135732100Y-82011100D01*
X158065900Y-81665600D02*
X139152900Y-81665600D01*
X139152900Y-81665600D02*
X138807400Y-82011100D01*
X161061400Y-84672300D02*
X161061400Y-84661100D01*
G04 #@! TO.N,/E0*
X134543800Y-78282800D02*
X135695500Y-78282800D01*
X135695500Y-78570800D02*
X135695500Y-78282800D01*
X163601400Y-77052300D02*
X163601400Y-78554000D01*
X163601400Y-78554000D02*
X162720900Y-79434500D01*
X162720900Y-79434500D02*
X136559200Y-79434500D01*
X136559200Y-79434500D02*
X135695500Y-78570800D01*
G04 #@! TO.N,/~{CSHB}*
X139047600Y-87985600D02*
X137083800Y-87985600D01*
X143696000Y-83337200D02*
X139047600Y-87985600D01*
G04 #@! TO.N,/F9*
X143780500Y-90047700D02*
X142145200Y-91683000D01*
X135701200Y-91683000D02*
X134543800Y-90525600D01*
X143780500Y-89302900D02*
X143780500Y-90047700D01*
X142145200Y-91683000D02*
X135701200Y-91683000D01*
X147243800Y-88387600D02*
X146432800Y-87576600D01*
X151053800Y-89080600D02*
X151053800Y-90582300D01*
X151053800Y-90582300D02*
X148057400Y-90582300D01*
X145506800Y-87576600D02*
X143780500Y-89302900D01*
X147243800Y-89768700D02*
X147243800Y-88387600D01*
X148057400Y-90582300D02*
X147243800Y-89768700D01*
X146432800Y-87576600D02*
X145506800Y-87576600D01*
G04 #@! TO.N,/F8*
X134543800Y-87985600D02*
X135695500Y-87985600D01*
X135695500Y-88273600D02*
X135695500Y-87985600D01*
X148513800Y-87578900D02*
X148106100Y-87171200D01*
X143308400Y-89137300D02*
X136559200Y-89137300D01*
X148513800Y-89080600D02*
X148513800Y-87578900D01*
X136559200Y-89137300D02*
X135695500Y-88273600D01*
X145274500Y-87171200D02*
X143308400Y-89137300D01*
X148106100Y-87171200D02*
X145274500Y-87171200D01*
G04 #@! TO.N,/P_A0*
X148590000Y-114429000D02*
X148032000Y-114987000D01*
X142745500Y-114987000D02*
X138609400Y-119123100D01*
X148032000Y-114987000D02*
X142745500Y-114987000D01*
X148590000Y-112927300D02*
X148590000Y-114429000D01*
G04 #@! TO.N,/~{P_DBGC}*
X151627000Y-111425600D02*
X148114300Y-111425600D01*
X147320000Y-112219900D02*
X147320000Y-113657500D01*
X152508800Y-113791800D02*
X152508800Y-112307400D01*
X148114300Y-111425600D02*
X147320000Y-112219900D01*
X146548500Y-114429000D02*
X141722500Y-114429000D01*
X156210000Y-114429000D02*
X153146000Y-114429000D01*
X156210000Y-112927300D02*
X156210000Y-114429000D01*
X153146000Y-114429000D02*
X152508800Y-113791800D01*
X147320000Y-113657500D02*
X146548500Y-114429000D01*
X152508800Y-112307400D02*
X151627000Y-111425600D01*
G04 #@! TO.N,/~{P_CSRD}*
X104152900Y-115073700D02*
X108085700Y-115073700D01*
X108085700Y-115073700D02*
X110625700Y-117613700D01*
X146050000Y-112927300D02*
X146050000Y-111425600D01*
X110625700Y-117613700D02*
X130027200Y-117613700D01*
X140513600Y-111425600D02*
X146050000Y-111425600D01*
X134487800Y-117451400D02*
X140513600Y-111425600D01*
X130189500Y-117451400D02*
X134487800Y-117451400D01*
X105490900Y-111382000D02*
X103967100Y-112905800D01*
X130027200Y-117613700D02*
X130189500Y-117451400D01*
X106934000Y-111382000D02*
X105490900Y-111382000D01*
X103967100Y-114887900D02*
X104152900Y-115073700D01*
X103967100Y-112905800D02*
X103967100Y-114887900D01*
G04 #@! TO.N,/DATA_AB*
X106934000Y-106302000D02*
X108085700Y-106302000D01*
X108085700Y-106302000D02*
X109237400Y-107453700D01*
X127665700Y-107453700D02*
X128871000Y-108659000D01*
X109237400Y-107453700D02*
X127665700Y-107453700D01*
X128871000Y-108659000D02*
X141020800Y-108659000D01*
G04 #@! TO.N,/~{P_IOWR}*
X140343300Y-111023900D02*
X153268300Y-111023900D01*
X138596900Y-112770300D02*
X140343300Y-111023900D01*
X153670000Y-112927300D02*
X153670000Y-111425600D01*
X108085700Y-113922000D02*
X109237400Y-112770300D01*
X106934000Y-113922000D02*
X108085700Y-113922000D01*
X109237400Y-112770300D02*
X138596900Y-112770300D01*
X153268300Y-111023900D02*
X153670000Y-111425600D01*
G04 #@! TO.N,/~{DATA_CE}*
X109237400Y-102373700D02*
X134178400Y-102373700D01*
X142627000Y-103474500D02*
X143560800Y-102540700D01*
X134178400Y-102373700D02*
X135279200Y-103474500D01*
X108085700Y-101222000D02*
X109237400Y-102373700D01*
X106934000Y-101222000D02*
X108085700Y-101222000D01*
X143560800Y-101039000D02*
X143560800Y-102540700D01*
X135279200Y-103474500D02*
X142627000Y-103474500D01*
G04 #@! TO.N,/~{CSRD}*
X143510000Y-120547300D02*
X143510000Y-119045600D01*
X143510000Y-119045600D02*
X146394000Y-116161600D01*
X146394000Y-116161600D02*
X155469400Y-116161600D01*
G04 #@! TO.N,Net-(U8-E1)*
X153593800Y-96583300D02*
X153593800Y-96700600D01*
X151510100Y-94499600D02*
X153593800Y-96583300D01*
X150617200Y-94499600D02*
X151510100Y-94499600D01*
G04 #@! TO.N,Net-(U8-E2)*
X156133800Y-96700600D02*
X152841600Y-93408400D01*
X152841600Y-93408400D02*
X140916600Y-93408400D01*
X140916600Y-93408400D02*
X140706800Y-93198600D01*
G04 #@! TO.N,/~{IORD}*
X163271200Y-66297100D02*
X158654600Y-70913700D01*
X158654600Y-70913700D02*
X158191200Y-70913700D01*
X158191200Y-72415400D02*
X158191200Y-70913700D01*
X163271200Y-64795400D02*
X163271200Y-66297100D01*
G04 #@! TD*
M02*
