G04 #@! TF.GenerationSoftware,KiCad,Pcbnew,9.0.6*
G04 #@! TF.CreationDate,2026-02-15T08:34:06+00:00*
G04 #@! TF.ProjectId,Amstrad-CPC-IO-Logger,416d7374-7261-4642-9d43-50432d494f2d,V1.1*
G04 #@! TF.SameCoordinates,Original*
G04 #@! TF.FileFunction,Soldermask,Top*
G04 #@! TF.FilePolarity,Negative*
%FSLAX46Y46*%
G04 Gerber Fmt 4.6, Leading zero omitted, Abs format (unit mm)*
G04 Created by KiCad (PCBNEW 9.0.6) date 2026-02-15 08:34:06*
%MOMM*%
%LPD*%
G01*
G04 APERTURE LIST*
G04 Aperture macros list*
%AMRoundRect*
0 Rectangle with rounded corners*
0 $1 Rounding radius*
0 $2 $3 $4 $5 $6 $7 $8 $9 X,Y pos of 4 corners*
0 Add a 4 corners polygon primitive as box body*
4,1,4,$2,$3,$4,$5,$6,$7,$8,$9,$2,$3,0*
0 Add four circle primitives for the rounded corners*
1,1,$1+$1,$2,$3*
1,1,$1+$1,$4,$5*
1,1,$1+$1,$6,$7*
1,1,$1+$1,$8,$9*
0 Add four rect primitives between the rounded corners*
20,1,$1+$1,$2,$3,$4,$5,0*
20,1,$1+$1,$4,$5,$6,$7,0*
20,1,$1+$1,$6,$7,$8,$9,0*
20,1,$1+$1,$8,$9,$2,$3,0*%
G04 Aperture macros list end*
%ADD10O,1.800000X1.800000*%
%ADD11O,1.500000X1.500000*%
%ADD12O,1.700000X1.700000*%
%ADD13R,3.500000X1.700000*%
%ADD14R,1.700000X1.700000*%
%ADD15R,1.700000X3.500000*%
%ADD16C,1.600000*%
%ADD17RoundRect,0.250000X0.550000X-0.950000X0.550000X0.950000X-0.550000X0.950000X-0.550000X-0.950000X0*%
%ADD18O,1.600000X2.400000*%
%ADD19RoundRect,0.249999X0.850001X-0.850001X0.850001X0.850001X-0.850001X0.850001X-0.850001X-0.850001X0*%
%ADD20C,2.200000*%
%ADD21RoundRect,0.250000X-0.600000X-0.600000X0.600000X-0.600000X0.600000X0.600000X-0.600000X0.600000X0*%
%ADD22C,1.700000*%
%ADD23C,2.000000*%
G04 APERTURE END LIST*
D10*
G04 #@! TO.C,U1*
X113353000Y-125600000D03*
X118803000Y-125600000D03*
D11*
X118503000Y-122570000D03*
X113653000Y-122570000D03*
D12*
X124968000Y-125730000D03*
D13*
X125868000Y-125730000D03*
D12*
X124968000Y-123190000D03*
D13*
X125868000Y-123190000D03*
X125868000Y-120650000D03*
D14*
X124968000Y-120650000D03*
D12*
X124968000Y-118110000D03*
D13*
X125868000Y-118110000D03*
D12*
X124968000Y-115570000D03*
D13*
X125868000Y-115570000D03*
D12*
X124968000Y-113030000D03*
D13*
X125868000Y-113030000D03*
X125868000Y-110490000D03*
D12*
X124968000Y-110490000D03*
D14*
X124968000Y-107950000D03*
D13*
X125868000Y-107950000D03*
X125868000Y-105410000D03*
D12*
X124968000Y-105410000D03*
X124968000Y-102870000D03*
D13*
X125868000Y-102870000D03*
X125868000Y-100330000D03*
D12*
X124968000Y-100330000D03*
X124968000Y-97790000D03*
D13*
X125868000Y-97790000D03*
D14*
X124968000Y-95250000D03*
D13*
X125868000Y-95250000D03*
X125868000Y-92710000D03*
D12*
X124968000Y-92710000D03*
X124968000Y-90170000D03*
D13*
X125868000Y-90170000D03*
X125868000Y-87630000D03*
D12*
X124968000Y-87630000D03*
D13*
X125868000Y-85090000D03*
D12*
X124968000Y-85090000D03*
D13*
X125868000Y-82550000D03*
D14*
X124968000Y-82550000D03*
D12*
X124968000Y-80010000D03*
D13*
X125868000Y-80010000D03*
X125868000Y-77470000D03*
D12*
X124968000Y-77470000D03*
D13*
X106288000Y-77470000D03*
D12*
X107188000Y-77470000D03*
D13*
X106288000Y-80010000D03*
D12*
X107188000Y-80010000D03*
D13*
X106288000Y-82550000D03*
D14*
X107188000Y-82550000D03*
D12*
X107188000Y-85090000D03*
D13*
X106288000Y-85090000D03*
X106288000Y-87630000D03*
D12*
X107188000Y-87630000D03*
D13*
X106288000Y-90170000D03*
D12*
X107188000Y-90170000D03*
X107188000Y-92710000D03*
D13*
X106288000Y-92710000D03*
D14*
X107188000Y-95250000D03*
D13*
X106288000Y-95250000D03*
D12*
X107188000Y-97790000D03*
D13*
X106288000Y-97790000D03*
X106288000Y-100330000D03*
D12*
X107188000Y-100330000D03*
X107188000Y-102870000D03*
D13*
X106288000Y-102870000D03*
D12*
X107188000Y-105410000D03*
D13*
X106288000Y-105410000D03*
X106288000Y-107950000D03*
D14*
X107188000Y-107950000D03*
D13*
X106288000Y-110490000D03*
D12*
X107188000Y-110490000D03*
D13*
X106288000Y-113030000D03*
D12*
X107188000Y-113030000D03*
X107188000Y-115570000D03*
D13*
X106288000Y-115570000D03*
X106288000Y-118110000D03*
D12*
X107188000Y-118110000D03*
D13*
X106288000Y-120650000D03*
D14*
X107188000Y-120650000D03*
D13*
X106288000Y-123190000D03*
D12*
X107188000Y-123190000D03*
X107188000Y-125730000D03*
D13*
X106288000Y-125730000D03*
D15*
X118618000Y-76800000D03*
D12*
X118618000Y-77700000D03*
D14*
X116078000Y-77700000D03*
D15*
X116078000Y-76800000D03*
D12*
X113538000Y-77700000D03*
D15*
X113538000Y-76800000D03*
G04 #@! TD*
D16*
G04 #@! TO.C,C7*
X143484600Y-71359400D03*
X143484600Y-66359400D03*
G04 #@! TD*
D17*
G04 #@! TO.C,U5*
X123296600Y-72415400D03*
D18*
X125836600Y-72415400D03*
X128376600Y-72415400D03*
X130916600Y-72415400D03*
X133456600Y-72415400D03*
X135996600Y-72415400D03*
X138536600Y-72415400D03*
X138536600Y-64795400D03*
X135996600Y-64795400D03*
X133456600Y-64795400D03*
X130916600Y-64795400D03*
X128376600Y-64795400D03*
X125836600Y-64795400D03*
X123296600Y-64795400D03*
G04 #@! TD*
D19*
G04 #@! TO.C,D1*
X96774000Y-123291600D03*
D20*
X96774000Y-113131600D03*
G04 #@! TD*
D16*
G04 #@! TO.C,C4*
X141884400Y-95362400D03*
X141884400Y-90362400D03*
G04 #@! TD*
G04 #@! TO.C,C3*
X136093200Y-131125600D03*
X136093200Y-126125600D03*
G04 #@! TD*
G04 #@! TO.C,C1*
X136144000Y-107349000D03*
X136144000Y-102349000D03*
G04 #@! TD*
D21*
G04 #@! TO.C,J1*
X168673500Y-68580000D03*
D22*
X171213500Y-68580000D03*
X168673500Y-71120000D03*
X171213500Y-71120000D03*
X168673500Y-73660000D03*
X171213500Y-73660000D03*
X168673500Y-76200000D03*
X171213500Y-76200000D03*
X168673500Y-78740000D03*
X171213500Y-78740000D03*
X168673500Y-81280000D03*
X171213500Y-81280000D03*
X168673500Y-83820000D03*
X171213500Y-83820000D03*
X168673500Y-86360000D03*
X171213500Y-86360000D03*
X168673500Y-88900000D03*
X171213500Y-88900000D03*
X168673500Y-91440000D03*
X171213500Y-91440000D03*
X168673500Y-93980000D03*
X171213500Y-93980000D03*
X168673500Y-96520000D03*
X171213500Y-96520000D03*
X168673500Y-99060000D03*
X171213500Y-99060000D03*
X168673500Y-101600000D03*
X171213500Y-101600000D03*
X168673500Y-104140000D03*
X171213500Y-104140000D03*
X168673500Y-106680000D03*
X171213500Y-106680000D03*
X168673500Y-109220000D03*
X171213500Y-109220000D03*
X168673500Y-111760000D03*
X171213500Y-111760000D03*
X168673500Y-114300000D03*
X171213500Y-114300000D03*
X168673500Y-116840000D03*
X171213500Y-116840000D03*
X168673500Y-119380000D03*
X171213500Y-119380000D03*
X168673500Y-121920000D03*
X171213500Y-121920000D03*
X168673500Y-124460000D03*
X171213500Y-124460000D03*
X168673500Y-127000000D03*
X171213500Y-127000000D03*
X168673500Y-129540000D03*
X171213500Y-129540000D03*
G04 #@! TD*
D17*
G04 #@! TO.C,U4*
X141020800Y-108659000D03*
D18*
X143560800Y-108659000D03*
X146100800Y-108659000D03*
X148640800Y-108659000D03*
X151180800Y-108659000D03*
X153720800Y-108659000D03*
X156260800Y-108659000D03*
X158800800Y-108659000D03*
X161340800Y-108659000D03*
X163880800Y-108659000D03*
X163880800Y-101039000D03*
X161340800Y-101039000D03*
X158800800Y-101039000D03*
X156260800Y-101039000D03*
X153720800Y-101039000D03*
X151180800Y-101039000D03*
X148640800Y-101039000D03*
X146100800Y-101039000D03*
X143560800Y-101039000D03*
X141020800Y-101039000D03*
G04 #@! TD*
D16*
G04 #@! TO.C,C6*
X141808200Y-83195800D03*
X141808200Y-78195800D03*
G04 #@! TD*
D17*
G04 #@! TO.C,U3*
X140970000Y-132435600D03*
D18*
X143510000Y-132435600D03*
X146050000Y-132435600D03*
X148590000Y-132435600D03*
X151130000Y-132435600D03*
X153670000Y-132435600D03*
X156210000Y-132435600D03*
X158750000Y-132435600D03*
X161290000Y-132435600D03*
X163830000Y-132435600D03*
X163830000Y-124815600D03*
X161290000Y-124815600D03*
X158750000Y-124815600D03*
X156210000Y-124815600D03*
X153670000Y-124815600D03*
X151130000Y-124815600D03*
X148590000Y-124815600D03*
X146050000Y-124815600D03*
X143510000Y-124815600D03*
X140970000Y-124815600D03*
G04 #@! TD*
D16*
G04 #@! TO.C,C5*
X118389400Y-70789800D03*
X118389400Y-65789800D03*
G04 #@! TD*
D17*
G04 #@! TO.C,U6*
X145821400Y-84672300D03*
D18*
X148361400Y-84672300D03*
X150901400Y-84672300D03*
X153441400Y-84672300D03*
X155981400Y-84672300D03*
X158521400Y-84672300D03*
X161061400Y-84672300D03*
X163601400Y-84672300D03*
X163601400Y-77052300D03*
X161061400Y-77052300D03*
X158521400Y-77052300D03*
X155981400Y-77052300D03*
X153441400Y-77052300D03*
X150901400Y-77052300D03*
X148361400Y-77052300D03*
X145821400Y-77052300D03*
G04 #@! TD*
D17*
G04 #@! TO.C,U7*
X148031200Y-72415400D03*
D18*
X150571200Y-72415400D03*
X153111200Y-72415400D03*
X155651200Y-72415400D03*
X158191200Y-72415400D03*
X160731200Y-72415400D03*
X163271200Y-72415400D03*
X163271200Y-64795400D03*
X160731200Y-64795400D03*
X158191200Y-64795400D03*
X155651200Y-64795400D03*
X153111200Y-64795400D03*
X150571200Y-64795400D03*
X148031200Y-64795400D03*
G04 #@! TD*
D14*
G04 #@! TO.C,J2*
X134543800Y-78282800D03*
D22*
X137083800Y-78282800D03*
X134543800Y-80822800D03*
X137083800Y-80822800D03*
G04 #@! TD*
D16*
G04 #@! TO.C,C2*
X136093200Y-119237300D03*
X136093200Y-114237300D03*
G04 #@! TD*
D14*
G04 #@! TO.C,J3*
X134543800Y-87858600D03*
D22*
X137083800Y-87858600D03*
X134543800Y-90398600D03*
X137083800Y-90398600D03*
X134543800Y-92938600D03*
X137083800Y-92938600D03*
X134543800Y-95478600D03*
X137083800Y-95478600D03*
G04 #@! TD*
D17*
G04 #@! TO.C,U2*
X140970000Y-120547300D03*
D18*
X143510000Y-120547300D03*
X146050000Y-120547300D03*
X148590000Y-120547300D03*
X151130000Y-120547300D03*
X153670000Y-120547300D03*
X156210000Y-120547300D03*
X158750000Y-120547300D03*
X161290000Y-120547300D03*
X163830000Y-120547300D03*
X163830000Y-112927300D03*
X161290000Y-112927300D03*
X158750000Y-112927300D03*
X156210000Y-112927300D03*
X153670000Y-112927300D03*
X151130000Y-112927300D03*
X148590000Y-112927300D03*
X146050000Y-112927300D03*
X143510000Y-112927300D03*
X140970000Y-112927300D03*
G04 #@! TD*
D17*
G04 #@! TO.C,U8*
X145973800Y-96700600D03*
D18*
X148513800Y-96700600D03*
X151053800Y-96700600D03*
X153593800Y-96700600D03*
X156133800Y-96700600D03*
X158673800Y-96700600D03*
X161213800Y-96700600D03*
X163753800Y-96700600D03*
X163753800Y-89080600D03*
X161213800Y-89080600D03*
X158673800Y-89080600D03*
X156133800Y-89080600D03*
X153593800Y-89080600D03*
X151053800Y-89080600D03*
X148513800Y-89080600D03*
X145973800Y-89080600D03*
G04 #@! TD*
D23*
G04 #@! TO.C,SW1*
X106121200Y-70895600D03*
X99621200Y-70895600D03*
X106121200Y-66395600D03*
X99621200Y-66395600D03*
G04 #@! TD*
M02*
