G04 #@! TF.GenerationSoftware,KiCad,Pcbnew,9.0.6*
G04 #@! TF.CreationDate,2026-02-15T08:34:06+00:00*
G04 #@! TF.ProjectId,Amstrad-CPC-IO-Logger,416d7374-7261-4642-9d43-50432d494f2d,V1.1*
G04 #@! TF.SameCoordinates,Original*
G04 #@! TF.FileFunction,Legend,Top*
G04 #@! TF.FilePolarity,Positive*
%FSLAX46Y46*%
G04 Gerber Fmt 4.6, Leading zero omitted, Abs format (unit mm)*
G04 Created by KiCad (PCBNEW 9.0.6) date 2026-02-15 08:34:06*
%MOMM*%
%LPD*%
G01*
G04 APERTURE LIST*
%ADD10C,0.100000*%
%ADD11C,0.150000*%
%ADD12C,0.120000*%
G04 APERTURE END LIST*
D10*
X96494019Y-103526287D02*
X96017828Y-103859620D01*
X96494019Y-104097715D02*
X95494019Y-104097715D01*
X95494019Y-104097715D02*
X95494019Y-103716763D01*
X95494019Y-103716763D02*
X95541638Y-103621525D01*
X95541638Y-103621525D02*
X95589257Y-103573906D01*
X95589257Y-103573906D02*
X95684495Y-103526287D01*
X95684495Y-103526287D02*
X95827352Y-103526287D01*
X95827352Y-103526287D02*
X95922590Y-103573906D01*
X95922590Y-103573906D02*
X95970209Y-103621525D01*
X95970209Y-103621525D02*
X96017828Y-103716763D01*
X96017828Y-103716763D02*
X96017828Y-104097715D01*
X96208304Y-103145334D02*
X96208304Y-102669144D01*
X96494019Y-103240572D02*
X95494019Y-102907239D01*
X95494019Y-102907239D02*
X96494019Y-102573906D01*
X95970209Y-101907239D02*
X96017828Y-101764382D01*
X96017828Y-101764382D02*
X96065447Y-101716763D01*
X96065447Y-101716763D02*
X96160685Y-101669144D01*
X96160685Y-101669144D02*
X96303542Y-101669144D01*
X96303542Y-101669144D02*
X96398780Y-101716763D01*
X96398780Y-101716763D02*
X96446400Y-101764382D01*
X96446400Y-101764382D02*
X96494019Y-101859620D01*
X96494019Y-101859620D02*
X96494019Y-102240572D01*
X96494019Y-102240572D02*
X95494019Y-102240572D01*
X95494019Y-102240572D02*
X95494019Y-101907239D01*
X95494019Y-101907239D02*
X95541638Y-101812001D01*
X95541638Y-101812001D02*
X95589257Y-101764382D01*
X95589257Y-101764382D02*
X95684495Y-101716763D01*
X95684495Y-101716763D02*
X95779733Y-101716763D01*
X95779733Y-101716763D02*
X95874971Y-101764382D01*
X95874971Y-101764382D02*
X95922590Y-101812001D01*
X95922590Y-101812001D02*
X95970209Y-101907239D01*
X95970209Y-101907239D02*
X95970209Y-102240572D01*
X96446400Y-101288191D02*
X96494019Y-101145334D01*
X96494019Y-101145334D02*
X96494019Y-100907239D01*
X96494019Y-100907239D02*
X96446400Y-100812001D01*
X96446400Y-100812001D02*
X96398780Y-100764382D01*
X96398780Y-100764382D02*
X96303542Y-100716763D01*
X96303542Y-100716763D02*
X96208304Y-100716763D01*
X96208304Y-100716763D02*
X96113066Y-100764382D01*
X96113066Y-100764382D02*
X96065447Y-100812001D01*
X96065447Y-100812001D02*
X96017828Y-100907239D01*
X96017828Y-100907239D02*
X95970209Y-101097715D01*
X95970209Y-101097715D02*
X95922590Y-101192953D01*
X95922590Y-101192953D02*
X95874971Y-101240572D01*
X95874971Y-101240572D02*
X95779733Y-101288191D01*
X95779733Y-101288191D02*
X95684495Y-101288191D01*
X95684495Y-101288191D02*
X95589257Y-101240572D01*
X95589257Y-101240572D02*
X95541638Y-101192953D01*
X95541638Y-101192953D02*
X95494019Y-101097715D01*
X95494019Y-101097715D02*
X95494019Y-100859620D01*
X95494019Y-100859620D02*
X95541638Y-100716763D01*
X96208304Y-99573905D02*
X96208304Y-99097715D01*
X96494019Y-99669143D02*
X95494019Y-99335810D01*
X95494019Y-99335810D02*
X96494019Y-99002477D01*
X96494019Y-98669143D02*
X95827352Y-98669143D01*
X95922590Y-98669143D02*
X95874971Y-98621524D01*
X95874971Y-98621524D02*
X95827352Y-98526286D01*
X95827352Y-98526286D02*
X95827352Y-98383429D01*
X95827352Y-98383429D02*
X95874971Y-98288191D01*
X95874971Y-98288191D02*
X95970209Y-98240572D01*
X95970209Y-98240572D02*
X96494019Y-98240572D01*
X95970209Y-98240572D02*
X95874971Y-98192953D01*
X95874971Y-98192953D02*
X95827352Y-98097715D01*
X95827352Y-98097715D02*
X95827352Y-97954858D01*
X95827352Y-97954858D02*
X95874971Y-97859619D01*
X95874971Y-97859619D02*
X95970209Y-97812000D01*
X95970209Y-97812000D02*
X96494019Y-97812000D01*
X96446400Y-97383429D02*
X96494019Y-97288191D01*
X96494019Y-97288191D02*
X96494019Y-97097715D01*
X96494019Y-97097715D02*
X96446400Y-97002477D01*
X96446400Y-97002477D02*
X96351161Y-96954858D01*
X96351161Y-96954858D02*
X96303542Y-96954858D01*
X96303542Y-96954858D02*
X96208304Y-97002477D01*
X96208304Y-97002477D02*
X96160685Y-97097715D01*
X96160685Y-97097715D02*
X96160685Y-97240572D01*
X96160685Y-97240572D02*
X96113066Y-97335810D01*
X96113066Y-97335810D02*
X96017828Y-97383429D01*
X96017828Y-97383429D02*
X95970209Y-97383429D01*
X95970209Y-97383429D02*
X95874971Y-97335810D01*
X95874971Y-97335810D02*
X95827352Y-97240572D01*
X95827352Y-97240572D02*
X95827352Y-97097715D01*
X95827352Y-97097715D02*
X95874971Y-97002477D01*
X95827352Y-96669143D02*
X95827352Y-96288191D01*
X95494019Y-96526286D02*
X96351161Y-96526286D01*
X96351161Y-96526286D02*
X96446400Y-96478667D01*
X96446400Y-96478667D02*
X96494019Y-96383429D01*
X96494019Y-96383429D02*
X96494019Y-96288191D01*
X96494019Y-95954857D02*
X95827352Y-95954857D01*
X96017828Y-95954857D02*
X95922590Y-95907238D01*
X95922590Y-95907238D02*
X95874971Y-95859619D01*
X95874971Y-95859619D02*
X95827352Y-95764381D01*
X95827352Y-95764381D02*
X95827352Y-95669143D01*
X96494019Y-94907238D02*
X95970209Y-94907238D01*
X95970209Y-94907238D02*
X95874971Y-94954857D01*
X95874971Y-94954857D02*
X95827352Y-95050095D01*
X95827352Y-95050095D02*
X95827352Y-95240571D01*
X95827352Y-95240571D02*
X95874971Y-95335809D01*
X96446400Y-94907238D02*
X96494019Y-95002476D01*
X96494019Y-95002476D02*
X96494019Y-95240571D01*
X96494019Y-95240571D02*
X96446400Y-95335809D01*
X96446400Y-95335809D02*
X96351161Y-95383428D01*
X96351161Y-95383428D02*
X96255923Y-95383428D01*
X96255923Y-95383428D02*
X96160685Y-95335809D01*
X96160685Y-95335809D02*
X96113066Y-95240571D01*
X96113066Y-95240571D02*
X96113066Y-95002476D01*
X96113066Y-95002476D02*
X96065447Y-94907238D01*
X96494019Y-94002476D02*
X95494019Y-94002476D01*
X96446400Y-94002476D02*
X96494019Y-94097714D01*
X96494019Y-94097714D02*
X96494019Y-94288190D01*
X96494019Y-94288190D02*
X96446400Y-94383428D01*
X96446400Y-94383428D02*
X96398780Y-94431047D01*
X96398780Y-94431047D02*
X96303542Y-94478666D01*
X96303542Y-94478666D02*
X96017828Y-94478666D01*
X96017828Y-94478666D02*
X95922590Y-94431047D01*
X95922590Y-94431047D02*
X95874971Y-94383428D01*
X95874971Y-94383428D02*
X95827352Y-94288190D01*
X95827352Y-94288190D02*
X95827352Y-94097714D01*
X95827352Y-94097714D02*
X95874971Y-94002476D01*
X96398780Y-92192952D02*
X96446400Y-92240571D01*
X96446400Y-92240571D02*
X96494019Y-92383428D01*
X96494019Y-92383428D02*
X96494019Y-92478666D01*
X96494019Y-92478666D02*
X96446400Y-92621523D01*
X96446400Y-92621523D02*
X96351161Y-92716761D01*
X96351161Y-92716761D02*
X96255923Y-92764380D01*
X96255923Y-92764380D02*
X96065447Y-92811999D01*
X96065447Y-92811999D02*
X95922590Y-92811999D01*
X95922590Y-92811999D02*
X95732114Y-92764380D01*
X95732114Y-92764380D02*
X95636876Y-92716761D01*
X95636876Y-92716761D02*
X95541638Y-92621523D01*
X95541638Y-92621523D02*
X95494019Y-92478666D01*
X95494019Y-92478666D02*
X95494019Y-92383428D01*
X95494019Y-92383428D02*
X95541638Y-92240571D01*
X95541638Y-92240571D02*
X95589257Y-92192952D01*
X96494019Y-91764380D02*
X95494019Y-91764380D01*
X95494019Y-91764380D02*
X95494019Y-91383428D01*
X95494019Y-91383428D02*
X95541638Y-91288190D01*
X95541638Y-91288190D02*
X95589257Y-91240571D01*
X95589257Y-91240571D02*
X95684495Y-91192952D01*
X95684495Y-91192952D02*
X95827352Y-91192952D01*
X95827352Y-91192952D02*
X95922590Y-91240571D01*
X95922590Y-91240571D02*
X95970209Y-91288190D01*
X95970209Y-91288190D02*
X96017828Y-91383428D01*
X96017828Y-91383428D02*
X96017828Y-91764380D01*
X96398780Y-90192952D02*
X96446400Y-90240571D01*
X96446400Y-90240571D02*
X96494019Y-90383428D01*
X96494019Y-90383428D02*
X96494019Y-90478666D01*
X96494019Y-90478666D02*
X96446400Y-90621523D01*
X96446400Y-90621523D02*
X96351161Y-90716761D01*
X96351161Y-90716761D02*
X96255923Y-90764380D01*
X96255923Y-90764380D02*
X96065447Y-90811999D01*
X96065447Y-90811999D02*
X95922590Y-90811999D01*
X95922590Y-90811999D02*
X95732114Y-90764380D01*
X95732114Y-90764380D02*
X95636876Y-90716761D01*
X95636876Y-90716761D02*
X95541638Y-90621523D01*
X95541638Y-90621523D02*
X95494019Y-90478666D01*
X95494019Y-90478666D02*
X95494019Y-90383428D01*
X95494019Y-90383428D02*
X95541638Y-90240571D01*
X95541638Y-90240571D02*
X95589257Y-90192952D01*
X96494019Y-89002475D02*
X95494019Y-89002475D01*
X95494019Y-88335809D02*
X95494019Y-88145333D01*
X95494019Y-88145333D02*
X95541638Y-88050095D01*
X95541638Y-88050095D02*
X95636876Y-87954857D01*
X95636876Y-87954857D02*
X95827352Y-87907238D01*
X95827352Y-87907238D02*
X96160685Y-87907238D01*
X96160685Y-87907238D02*
X96351161Y-87954857D01*
X96351161Y-87954857D02*
X96446400Y-88050095D01*
X96446400Y-88050095D02*
X96494019Y-88145333D01*
X96494019Y-88145333D02*
X96494019Y-88335809D01*
X96494019Y-88335809D02*
X96446400Y-88431047D01*
X96446400Y-88431047D02*
X96351161Y-88526285D01*
X96351161Y-88526285D02*
X96160685Y-88573904D01*
X96160685Y-88573904D02*
X95827352Y-88573904D01*
X95827352Y-88573904D02*
X95636876Y-88526285D01*
X95636876Y-88526285D02*
X95541638Y-88431047D01*
X95541638Y-88431047D02*
X95494019Y-88335809D01*
X96494019Y-86240571D02*
X96494019Y-86716761D01*
X96494019Y-86716761D02*
X95494019Y-86716761D01*
X96494019Y-85764380D02*
X96446400Y-85859618D01*
X96446400Y-85859618D02*
X96398780Y-85907237D01*
X96398780Y-85907237D02*
X96303542Y-85954856D01*
X96303542Y-85954856D02*
X96017828Y-85954856D01*
X96017828Y-85954856D02*
X95922590Y-85907237D01*
X95922590Y-85907237D02*
X95874971Y-85859618D01*
X95874971Y-85859618D02*
X95827352Y-85764380D01*
X95827352Y-85764380D02*
X95827352Y-85621523D01*
X95827352Y-85621523D02*
X95874971Y-85526285D01*
X95874971Y-85526285D02*
X95922590Y-85478666D01*
X95922590Y-85478666D02*
X96017828Y-85431047D01*
X96017828Y-85431047D02*
X96303542Y-85431047D01*
X96303542Y-85431047D02*
X96398780Y-85478666D01*
X96398780Y-85478666D02*
X96446400Y-85526285D01*
X96446400Y-85526285D02*
X96494019Y-85621523D01*
X96494019Y-85621523D02*
X96494019Y-85764380D01*
X95827352Y-84573904D02*
X96636876Y-84573904D01*
X96636876Y-84573904D02*
X96732114Y-84621523D01*
X96732114Y-84621523D02*
X96779733Y-84669142D01*
X96779733Y-84669142D02*
X96827352Y-84764380D01*
X96827352Y-84764380D02*
X96827352Y-84907237D01*
X96827352Y-84907237D02*
X96779733Y-85002475D01*
X96446400Y-84573904D02*
X96494019Y-84669142D01*
X96494019Y-84669142D02*
X96494019Y-84859618D01*
X96494019Y-84859618D02*
X96446400Y-84954856D01*
X96446400Y-84954856D02*
X96398780Y-85002475D01*
X96398780Y-85002475D02*
X96303542Y-85050094D01*
X96303542Y-85050094D02*
X96017828Y-85050094D01*
X96017828Y-85050094D02*
X95922590Y-85002475D01*
X95922590Y-85002475D02*
X95874971Y-84954856D01*
X95874971Y-84954856D02*
X95827352Y-84859618D01*
X95827352Y-84859618D02*
X95827352Y-84669142D01*
X95827352Y-84669142D02*
X95874971Y-84573904D01*
X95827352Y-83669142D02*
X96636876Y-83669142D01*
X96636876Y-83669142D02*
X96732114Y-83716761D01*
X96732114Y-83716761D02*
X96779733Y-83764380D01*
X96779733Y-83764380D02*
X96827352Y-83859618D01*
X96827352Y-83859618D02*
X96827352Y-84002475D01*
X96827352Y-84002475D02*
X96779733Y-84097713D01*
X96446400Y-83669142D02*
X96494019Y-83764380D01*
X96494019Y-83764380D02*
X96494019Y-83954856D01*
X96494019Y-83954856D02*
X96446400Y-84050094D01*
X96446400Y-84050094D02*
X96398780Y-84097713D01*
X96398780Y-84097713D02*
X96303542Y-84145332D01*
X96303542Y-84145332D02*
X96017828Y-84145332D01*
X96017828Y-84145332D02*
X95922590Y-84097713D01*
X95922590Y-84097713D02*
X95874971Y-84050094D01*
X95874971Y-84050094D02*
X95827352Y-83954856D01*
X95827352Y-83954856D02*
X95827352Y-83764380D01*
X95827352Y-83764380D02*
X95874971Y-83669142D01*
X96446400Y-82811999D02*
X96494019Y-82907237D01*
X96494019Y-82907237D02*
X96494019Y-83097713D01*
X96494019Y-83097713D02*
X96446400Y-83192951D01*
X96446400Y-83192951D02*
X96351161Y-83240570D01*
X96351161Y-83240570D02*
X95970209Y-83240570D01*
X95970209Y-83240570D02*
X95874971Y-83192951D01*
X95874971Y-83192951D02*
X95827352Y-83097713D01*
X95827352Y-83097713D02*
X95827352Y-82907237D01*
X95827352Y-82907237D02*
X95874971Y-82811999D01*
X95874971Y-82811999D02*
X95970209Y-82764380D01*
X95970209Y-82764380D02*
X96065447Y-82764380D01*
X96065447Y-82764380D02*
X96160685Y-83240570D01*
X96494019Y-82335808D02*
X95827352Y-82335808D01*
X96017828Y-82335808D02*
X95922590Y-82288189D01*
X95922590Y-82288189D02*
X95874971Y-82240570D01*
X95874971Y-82240570D02*
X95827352Y-82145332D01*
X95827352Y-82145332D02*
X95827352Y-82050094D01*
X95494019Y-81097712D02*
X96494019Y-80764379D01*
X96494019Y-80764379D02*
X95494019Y-80431046D01*
X96494019Y-79573903D02*
X96494019Y-80145331D01*
X96494019Y-79859617D02*
X95494019Y-79859617D01*
X95494019Y-79859617D02*
X95636876Y-79954855D01*
X95636876Y-79954855D02*
X95732114Y-80050093D01*
X95732114Y-80050093D02*
X95779733Y-80145331D01*
X96398780Y-79145331D02*
X96446400Y-79097712D01*
X96446400Y-79097712D02*
X96494019Y-79145331D01*
X96494019Y-79145331D02*
X96446400Y-79192950D01*
X96446400Y-79192950D02*
X96398780Y-79145331D01*
X96398780Y-79145331D02*
X96494019Y-79145331D01*
X96494019Y-78145332D02*
X96494019Y-78716760D01*
X96494019Y-78431046D02*
X95494019Y-78431046D01*
X95494019Y-78431046D02*
X95636876Y-78526284D01*
X95636876Y-78526284D02*
X95732114Y-78621522D01*
X95732114Y-78621522D02*
X95779733Y-78716760D01*
X131621836Y-80710909D02*
X131288503Y-80710909D01*
X131288503Y-81234719D02*
X131288503Y-80234719D01*
X131288503Y-80234719D02*
X131764693Y-80234719D01*
X132336122Y-80234719D02*
X132431360Y-80234719D01*
X132431360Y-80234719D02*
X132526598Y-80282338D01*
X132526598Y-80282338D02*
X132574217Y-80329957D01*
X132574217Y-80329957D02*
X132621836Y-80425195D01*
X132621836Y-80425195D02*
X132669455Y-80615671D01*
X132669455Y-80615671D02*
X132669455Y-80853766D01*
X132669455Y-80853766D02*
X132621836Y-81044242D01*
X132621836Y-81044242D02*
X132574217Y-81139480D01*
X132574217Y-81139480D02*
X132526598Y-81187100D01*
X132526598Y-81187100D02*
X132431360Y-81234719D01*
X132431360Y-81234719D02*
X132336122Y-81234719D01*
X132336122Y-81234719D02*
X132240884Y-81187100D01*
X132240884Y-81187100D02*
X132193265Y-81139480D01*
X132193265Y-81139480D02*
X132145646Y-81044242D01*
X132145646Y-81044242D02*
X132098027Y-80853766D01*
X132098027Y-80853766D02*
X132098027Y-80615671D01*
X132098027Y-80615671D02*
X132145646Y-80425195D01*
X132145646Y-80425195D02*
X132193265Y-80329957D01*
X132193265Y-80329957D02*
X132240884Y-80282338D01*
X132240884Y-80282338D02*
X132336122Y-80234719D01*
X131621836Y-90286709D02*
X131288503Y-90286709D01*
X131288503Y-90810519D02*
X131288503Y-89810519D01*
X131288503Y-89810519D02*
X131764693Y-89810519D01*
X132193265Y-90810519D02*
X132383741Y-90810519D01*
X132383741Y-90810519D02*
X132478979Y-90762900D01*
X132478979Y-90762900D02*
X132526598Y-90715280D01*
X132526598Y-90715280D02*
X132621836Y-90572423D01*
X132621836Y-90572423D02*
X132669455Y-90381947D01*
X132669455Y-90381947D02*
X132669455Y-90000995D01*
X132669455Y-90000995D02*
X132621836Y-89905757D01*
X132621836Y-89905757D02*
X132574217Y-89858138D01*
X132574217Y-89858138D02*
X132478979Y-89810519D01*
X132478979Y-89810519D02*
X132288503Y-89810519D01*
X132288503Y-89810519D02*
X132193265Y-89858138D01*
X132193265Y-89858138D02*
X132145646Y-89905757D01*
X132145646Y-89905757D02*
X132098027Y-90000995D01*
X132098027Y-90000995D02*
X132098027Y-90239090D01*
X132098027Y-90239090D02*
X132145646Y-90334328D01*
X132145646Y-90334328D02*
X132193265Y-90381947D01*
X132193265Y-90381947D02*
X132288503Y-90429566D01*
X132288503Y-90429566D02*
X132478979Y-90429566D01*
X132478979Y-90429566D02*
X132574217Y-90381947D01*
X132574217Y-90381947D02*
X132621836Y-90334328D01*
X132621836Y-90334328D02*
X132669455Y-90239090D01*
X131574217Y-95366709D02*
X131240884Y-95366709D01*
X131240884Y-95890519D02*
X131240884Y-94890519D01*
X131240884Y-94890519D02*
X131717074Y-94890519D01*
X132431360Y-95366709D02*
X132574217Y-95414328D01*
X132574217Y-95414328D02*
X132621836Y-95461947D01*
X132621836Y-95461947D02*
X132669455Y-95557185D01*
X132669455Y-95557185D02*
X132669455Y-95700042D01*
X132669455Y-95700042D02*
X132621836Y-95795280D01*
X132621836Y-95795280D02*
X132574217Y-95842900D01*
X132574217Y-95842900D02*
X132478979Y-95890519D01*
X132478979Y-95890519D02*
X132098027Y-95890519D01*
X132098027Y-95890519D02*
X132098027Y-94890519D01*
X132098027Y-94890519D02*
X132431360Y-94890519D01*
X132431360Y-94890519D02*
X132526598Y-94938138D01*
X132526598Y-94938138D02*
X132574217Y-94985757D01*
X132574217Y-94985757D02*
X132621836Y-95080995D01*
X132621836Y-95080995D02*
X132621836Y-95176233D01*
X132621836Y-95176233D02*
X132574217Y-95271471D01*
X132574217Y-95271471D02*
X132526598Y-95319090D01*
X132526598Y-95319090D02*
X132431360Y-95366709D01*
X132431360Y-95366709D02*
X132098027Y-95366709D01*
X131717074Y-92826709D02*
X131383741Y-92826709D01*
X131383741Y-93350519D02*
X131383741Y-92350519D01*
X131383741Y-92350519D02*
X131859931Y-92350519D01*
X132193265Y-93064804D02*
X132669455Y-93064804D01*
X132098027Y-93350519D02*
X132431360Y-92350519D01*
X132431360Y-92350519D02*
X132764693Y-93350519D01*
X131240884Y-78170909D02*
X131574217Y-78170909D01*
X131717074Y-78694719D02*
X131240884Y-78694719D01*
X131240884Y-78694719D02*
X131240884Y-77694719D01*
X131240884Y-77694719D02*
X131717074Y-77694719D01*
X132336122Y-77694719D02*
X132431360Y-77694719D01*
X132431360Y-77694719D02*
X132526598Y-77742338D01*
X132526598Y-77742338D02*
X132574217Y-77789957D01*
X132574217Y-77789957D02*
X132621836Y-77885195D01*
X132621836Y-77885195D02*
X132669455Y-78075671D01*
X132669455Y-78075671D02*
X132669455Y-78313766D01*
X132669455Y-78313766D02*
X132621836Y-78504242D01*
X132621836Y-78504242D02*
X132574217Y-78599480D01*
X132574217Y-78599480D02*
X132526598Y-78647100D01*
X132526598Y-78647100D02*
X132431360Y-78694719D01*
X132431360Y-78694719D02*
X132336122Y-78694719D01*
X132336122Y-78694719D02*
X132240884Y-78647100D01*
X132240884Y-78647100D02*
X132193265Y-78599480D01*
X132193265Y-78599480D02*
X132145646Y-78504242D01*
X132145646Y-78504242D02*
X132098027Y-78313766D01*
X132098027Y-78313766D02*
X132098027Y-78075671D01*
X132098027Y-78075671D02*
X132145646Y-77885195D01*
X132145646Y-77885195D02*
X132193265Y-77789957D01*
X132193265Y-77789957D02*
X132240884Y-77742338D01*
X132240884Y-77742338D02*
X132336122Y-77694719D01*
X131621836Y-87746709D02*
X131288503Y-87746709D01*
X131288503Y-88270519D02*
X131288503Y-87270519D01*
X131288503Y-87270519D02*
X131764693Y-87270519D01*
X132288503Y-87699090D02*
X132193265Y-87651471D01*
X132193265Y-87651471D02*
X132145646Y-87603852D01*
X132145646Y-87603852D02*
X132098027Y-87508614D01*
X132098027Y-87508614D02*
X132098027Y-87460995D01*
X132098027Y-87460995D02*
X132145646Y-87365757D01*
X132145646Y-87365757D02*
X132193265Y-87318138D01*
X132193265Y-87318138D02*
X132288503Y-87270519D01*
X132288503Y-87270519D02*
X132478979Y-87270519D01*
X132478979Y-87270519D02*
X132574217Y-87318138D01*
X132574217Y-87318138D02*
X132621836Y-87365757D01*
X132621836Y-87365757D02*
X132669455Y-87460995D01*
X132669455Y-87460995D02*
X132669455Y-87508614D01*
X132669455Y-87508614D02*
X132621836Y-87603852D01*
X132621836Y-87603852D02*
X132574217Y-87651471D01*
X132574217Y-87651471D02*
X132478979Y-87699090D01*
X132478979Y-87699090D02*
X132288503Y-87699090D01*
X132288503Y-87699090D02*
X132193265Y-87746709D01*
X132193265Y-87746709D02*
X132145646Y-87794328D01*
X132145646Y-87794328D02*
X132098027Y-87889566D01*
X132098027Y-87889566D02*
X132098027Y-88080042D01*
X132098027Y-88080042D02*
X132145646Y-88175280D01*
X132145646Y-88175280D02*
X132193265Y-88222900D01*
X132193265Y-88222900D02*
X132288503Y-88270519D01*
X132288503Y-88270519D02*
X132478979Y-88270519D01*
X132478979Y-88270519D02*
X132574217Y-88222900D01*
X132574217Y-88222900D02*
X132621836Y-88175280D01*
X132621836Y-88175280D02*
X132669455Y-88080042D01*
X132669455Y-88080042D02*
X132669455Y-87889566D01*
X132669455Y-87889566D02*
X132621836Y-87794328D01*
X132621836Y-87794328D02*
X132574217Y-87746709D01*
X132574217Y-87746709D02*
X132478979Y-87699090D01*
D11*
X115316095Y-101054819D02*
X115316095Y-101864342D01*
X115316095Y-101864342D02*
X115363714Y-101959580D01*
X115363714Y-101959580D02*
X115411333Y-102007200D01*
X115411333Y-102007200D02*
X115506571Y-102054819D01*
X115506571Y-102054819D02*
X115697047Y-102054819D01*
X115697047Y-102054819D02*
X115792285Y-102007200D01*
X115792285Y-102007200D02*
X115839904Y-101959580D01*
X115839904Y-101959580D02*
X115887523Y-101864342D01*
X115887523Y-101864342D02*
X115887523Y-101054819D01*
X116887523Y-102054819D02*
X116316095Y-102054819D01*
X116601809Y-102054819D02*
X116601809Y-101054819D01*
X116601809Y-101054819D02*
X116506571Y-101197676D01*
X116506571Y-101197676D02*
X116411333Y-101292914D01*
X116411333Y-101292914D02*
X116316095Y-101340533D01*
X128321998Y-90560868D02*
X128241185Y-90587805D01*
X128241185Y-90587805D02*
X128160373Y-90668618D01*
X128160373Y-90668618D02*
X128106498Y-90776367D01*
X128106498Y-90776367D02*
X128106498Y-90884117D01*
X128106498Y-90884117D02*
X128133436Y-90964929D01*
X128133436Y-90964929D02*
X128214248Y-91099616D01*
X128214248Y-91099616D02*
X128295060Y-91180428D01*
X128295060Y-91180428D02*
X128429747Y-91261241D01*
X128429747Y-91261241D02*
X128510560Y-91288178D01*
X128510560Y-91288178D02*
X128618309Y-91288178D01*
X128618309Y-91288178D02*
X128726059Y-91234303D01*
X128726059Y-91234303D02*
X128779934Y-91180428D01*
X128779934Y-91180428D02*
X128833808Y-91072679D01*
X128833808Y-91072679D02*
X128833808Y-91018804D01*
X128833808Y-91018804D02*
X128645247Y-90830242D01*
X128645247Y-90830242D02*
X128537497Y-90937992D01*
X129130120Y-90830242D02*
X128564434Y-90264557D01*
X128564434Y-90264557D02*
X128779934Y-90049057D01*
X128779934Y-90049057D02*
X128860746Y-90022120D01*
X128860746Y-90022120D02*
X128914621Y-90022120D01*
X128914621Y-90022120D02*
X128995433Y-90049057D01*
X128995433Y-90049057D02*
X129076245Y-90129870D01*
X129076245Y-90129870D02*
X129103182Y-90210682D01*
X129103182Y-90210682D02*
X129103182Y-90264557D01*
X129103182Y-90264557D02*
X129076245Y-90345369D01*
X129076245Y-90345369D02*
X128860746Y-90560868D01*
X129992117Y-89968245D02*
X129668868Y-90291494D01*
X129830492Y-90129870D02*
X129264807Y-89564184D01*
X129264807Y-89564184D02*
X129291744Y-89698871D01*
X129291744Y-89698871D02*
X129291744Y-89806621D01*
X129291744Y-89806621D02*
X129264807Y-89887433D01*
X130530865Y-89429497D02*
X130207616Y-89752746D01*
X130369240Y-89591121D02*
X129803555Y-89025436D01*
X129803555Y-89025436D02*
X129830492Y-89160123D01*
X129830492Y-89160123D02*
X129830492Y-89267873D01*
X129830492Y-89267873D02*
X129803555Y-89348685D01*
X102121873Y-109041240D02*
X102391247Y-108771866D01*
X102229623Y-109256739D02*
X101852499Y-108502492D01*
X101852499Y-108502492D02*
X102606746Y-108879615D01*
X102552871Y-107855994D02*
X102472059Y-107882932D01*
X102472059Y-107882932D02*
X102391247Y-107963744D01*
X102391247Y-107963744D02*
X102337372Y-108071494D01*
X102337372Y-108071494D02*
X102337372Y-108179243D01*
X102337372Y-108179243D02*
X102364310Y-108260055D01*
X102364310Y-108260055D02*
X102445122Y-108394742D01*
X102445122Y-108394742D02*
X102525934Y-108475555D01*
X102525934Y-108475555D02*
X102660621Y-108556367D01*
X102660621Y-108556367D02*
X102741433Y-108583304D01*
X102741433Y-108583304D02*
X102849183Y-108583304D01*
X102849183Y-108583304D02*
X102956932Y-108529429D01*
X102956932Y-108529429D02*
X103010807Y-108475555D01*
X103010807Y-108475555D02*
X103064682Y-108367805D01*
X103064682Y-108367805D02*
X103064682Y-108313930D01*
X103064682Y-108313930D02*
X102876120Y-108125368D01*
X102876120Y-108125368D02*
X102768371Y-108233118D01*
X103360993Y-108125368D02*
X102795308Y-107559683D01*
X102795308Y-107559683D02*
X103684242Y-107802120D01*
X103684242Y-107802120D02*
X103118557Y-107236434D01*
X103953616Y-107532746D02*
X103387931Y-106967060D01*
X103387931Y-106967060D02*
X103522618Y-106832373D01*
X103522618Y-106832373D02*
X103630367Y-106778498D01*
X103630367Y-106778498D02*
X103738117Y-106778498D01*
X103738117Y-106778498D02*
X103818929Y-106805436D01*
X103818929Y-106805436D02*
X103953616Y-106886248D01*
X103953616Y-106886248D02*
X104034428Y-106967060D01*
X104034428Y-106967060D02*
X104115241Y-107101747D01*
X104115241Y-107101747D02*
X104142178Y-107182560D01*
X104142178Y-107182560D02*
X104142178Y-107290309D01*
X104142178Y-107290309D02*
X104088303Y-107398059D01*
X104088303Y-107398059D02*
X103953616Y-107532746D01*
X102564435Y-82698431D02*
X102483623Y-82725368D01*
X102483623Y-82725368D02*
X102402811Y-82806180D01*
X102402811Y-82806180D02*
X102348936Y-82913930D01*
X102348936Y-82913930D02*
X102348936Y-83021680D01*
X102348936Y-83021680D02*
X102375873Y-83102492D01*
X102375873Y-83102492D02*
X102456685Y-83237179D01*
X102456685Y-83237179D02*
X102537498Y-83317991D01*
X102537498Y-83317991D02*
X102672185Y-83398803D01*
X102672185Y-83398803D02*
X102752997Y-83425741D01*
X102752997Y-83425741D02*
X102860746Y-83425741D01*
X102860746Y-83425741D02*
X102968496Y-83371866D01*
X102968496Y-83371866D02*
X103022371Y-83317991D01*
X103022371Y-83317991D02*
X103076246Y-83210241D01*
X103076246Y-83210241D02*
X103076246Y-83156367D01*
X103076246Y-83156367D02*
X102887684Y-82967805D01*
X102887684Y-82967805D02*
X102779934Y-83075554D01*
X103372557Y-82967805D02*
X102806872Y-82402119D01*
X102806872Y-82402119D02*
X103695806Y-82644556D01*
X103695806Y-82644556D02*
X103130120Y-82078871D01*
X103965180Y-82375182D02*
X103399494Y-81809497D01*
X103399494Y-81809497D02*
X103534181Y-81674810D01*
X103534181Y-81674810D02*
X103641931Y-81620935D01*
X103641931Y-81620935D02*
X103749680Y-81620935D01*
X103749680Y-81620935D02*
X103830493Y-81647872D01*
X103830493Y-81647872D02*
X103965180Y-81728685D01*
X103965180Y-81728685D02*
X104045992Y-81809497D01*
X104045992Y-81809497D02*
X104126804Y-81944184D01*
X104126804Y-81944184D02*
X104153741Y-82024996D01*
X104153741Y-82024996D02*
X104153741Y-82132746D01*
X104153741Y-82132746D02*
X104099867Y-82240495D01*
X104099867Y-82240495D02*
X103965180Y-82375182D01*
X101431406Y-126527585D02*
X102185653Y-126904709D01*
X102185653Y-126904709D02*
X101808529Y-126150462D01*
X102455027Y-126042712D02*
X102562776Y-125988838D01*
X102562776Y-125988838D02*
X102616651Y-125988838D01*
X102616651Y-125988838D02*
X102697463Y-126015775D01*
X102697463Y-126015775D02*
X102778276Y-126096587D01*
X102778276Y-126096587D02*
X102805213Y-126177399D01*
X102805213Y-126177399D02*
X102805213Y-126231274D01*
X102805213Y-126231274D02*
X102778276Y-126312086D01*
X102778276Y-126312086D02*
X102562776Y-126527586D01*
X102562776Y-126527586D02*
X101997091Y-125961900D01*
X101997091Y-125961900D02*
X102185653Y-125773338D01*
X102185653Y-125773338D02*
X102266465Y-125746401D01*
X102266465Y-125746401D02*
X102320340Y-125746401D01*
X102320340Y-125746401D02*
X102401152Y-125773338D01*
X102401152Y-125773338D02*
X102455027Y-125827213D01*
X102455027Y-125827213D02*
X102481964Y-125908025D01*
X102481964Y-125908025D02*
X102481964Y-125961900D01*
X102481964Y-125961900D02*
X102455027Y-126042712D01*
X102455027Y-126042712D02*
X102266465Y-126231274D01*
X102562776Y-125396215D02*
X103020712Y-125854151D01*
X103020712Y-125854151D02*
X103101524Y-125881088D01*
X103101524Y-125881088D02*
X103155399Y-125881088D01*
X103155399Y-125881088D02*
X103236211Y-125854151D01*
X103236211Y-125854151D02*
X103343961Y-125746401D01*
X103343961Y-125746401D02*
X103370898Y-125665589D01*
X103370898Y-125665589D02*
X103370898Y-125611714D01*
X103370898Y-125611714D02*
X103343961Y-125530902D01*
X103343961Y-125530902D02*
X102886025Y-125072966D01*
X103667210Y-125369277D02*
X103774959Y-125315403D01*
X103774959Y-125315403D02*
X103909646Y-125180716D01*
X103909646Y-125180716D02*
X103936584Y-125099903D01*
X103936584Y-125099903D02*
X103936584Y-125046029D01*
X103936584Y-125046029D02*
X103909646Y-124965216D01*
X103909646Y-124965216D02*
X103855771Y-124911342D01*
X103855771Y-124911342D02*
X103774959Y-124884404D01*
X103774959Y-124884404D02*
X103721084Y-124884404D01*
X103721084Y-124884404D02*
X103640272Y-124911342D01*
X103640272Y-124911342D02*
X103505585Y-124992154D01*
X103505585Y-124992154D02*
X103424773Y-125019091D01*
X103424773Y-125019091D02*
X103370898Y-125019091D01*
X103370898Y-125019091D02*
X103290086Y-124992154D01*
X103290086Y-124992154D02*
X103236211Y-124938279D01*
X103236211Y-124938279D02*
X103209274Y-124857467D01*
X103209274Y-124857467D02*
X103209274Y-124803592D01*
X103209274Y-124803592D02*
X103236211Y-124722780D01*
X103236211Y-124722780D02*
X103370898Y-124588093D01*
X103370898Y-124588093D02*
X103478648Y-124534218D01*
X102564435Y-120798431D02*
X102483623Y-120825368D01*
X102483623Y-120825368D02*
X102402811Y-120906180D01*
X102402811Y-120906180D02*
X102348936Y-121013930D01*
X102348936Y-121013930D02*
X102348936Y-121121680D01*
X102348936Y-121121680D02*
X102375873Y-121202492D01*
X102375873Y-121202492D02*
X102456685Y-121337179D01*
X102456685Y-121337179D02*
X102537498Y-121417991D01*
X102537498Y-121417991D02*
X102672185Y-121498803D01*
X102672185Y-121498803D02*
X102752997Y-121525741D01*
X102752997Y-121525741D02*
X102860746Y-121525741D01*
X102860746Y-121525741D02*
X102968496Y-121471866D01*
X102968496Y-121471866D02*
X103022371Y-121417991D01*
X103022371Y-121417991D02*
X103076246Y-121310241D01*
X103076246Y-121310241D02*
X103076246Y-121256367D01*
X103076246Y-121256367D02*
X102887684Y-121067805D01*
X102887684Y-121067805D02*
X102779934Y-121175554D01*
X103372557Y-121067805D02*
X102806872Y-120502119D01*
X102806872Y-120502119D02*
X103695806Y-120744556D01*
X103695806Y-120744556D02*
X103130120Y-120178871D01*
X103965180Y-120475182D02*
X103399494Y-119909497D01*
X103399494Y-119909497D02*
X103534181Y-119774810D01*
X103534181Y-119774810D02*
X103641931Y-119720935D01*
X103641931Y-119720935D02*
X103749680Y-119720935D01*
X103749680Y-119720935D02*
X103830493Y-119747872D01*
X103830493Y-119747872D02*
X103965180Y-119828685D01*
X103965180Y-119828685D02*
X104045992Y-119909497D01*
X104045992Y-119909497D02*
X104126804Y-120044184D01*
X104126804Y-120044184D02*
X104153741Y-120124996D01*
X104153741Y-120124996D02*
X104153741Y-120232746D01*
X104153741Y-120232746D02*
X104099867Y-120340495D01*
X104099867Y-120340495D02*
X103965180Y-120475182D01*
X128175998Y-85480868D02*
X128095185Y-85507805D01*
X128095185Y-85507805D02*
X128014373Y-85588618D01*
X128014373Y-85588618D02*
X127960498Y-85696367D01*
X127960498Y-85696367D02*
X127960498Y-85804117D01*
X127960498Y-85804117D02*
X127987436Y-85884929D01*
X127987436Y-85884929D02*
X128068248Y-86019616D01*
X128068248Y-86019616D02*
X128149060Y-86100428D01*
X128149060Y-86100428D02*
X128283747Y-86181241D01*
X128283747Y-86181241D02*
X128364560Y-86208178D01*
X128364560Y-86208178D02*
X128472309Y-86208178D01*
X128472309Y-86208178D02*
X128580059Y-86154303D01*
X128580059Y-86154303D02*
X128633934Y-86100428D01*
X128633934Y-86100428D02*
X128687808Y-85992679D01*
X128687808Y-85992679D02*
X128687808Y-85938804D01*
X128687808Y-85938804D02*
X128499247Y-85750242D01*
X128499247Y-85750242D02*
X128391497Y-85857992D01*
X128984120Y-85750242D02*
X128418434Y-85184557D01*
X128418434Y-85184557D02*
X128633934Y-84969057D01*
X128633934Y-84969057D02*
X128714746Y-84942120D01*
X128714746Y-84942120D02*
X128768621Y-84942120D01*
X128768621Y-84942120D02*
X128849433Y-84969057D01*
X128849433Y-84969057D02*
X128930245Y-85049870D01*
X128930245Y-85049870D02*
X128957182Y-85130682D01*
X128957182Y-85130682D02*
X128957182Y-85184557D01*
X128957182Y-85184557D02*
X128930245Y-85265369D01*
X128930245Y-85265369D02*
X128714746Y-85480868D01*
X129846117Y-84888245D02*
X129522868Y-85211494D01*
X129684492Y-85049870D02*
X129118807Y-84484184D01*
X129118807Y-84484184D02*
X129145744Y-84618871D01*
X129145744Y-84618871D02*
X129145744Y-84726621D01*
X129145744Y-84726621D02*
X129118807Y-84807433D01*
X129468993Y-84133998D02*
X129819179Y-83783812D01*
X129819179Y-83783812D02*
X129846117Y-84187873D01*
X129846117Y-84187873D02*
X129926929Y-84107060D01*
X129926929Y-84107060D02*
X130007741Y-84080123D01*
X130007741Y-84080123D02*
X130061616Y-84080123D01*
X130061616Y-84080123D02*
X130142428Y-84107060D01*
X130142428Y-84107060D02*
X130277115Y-84241747D01*
X130277115Y-84241747D02*
X130304053Y-84322560D01*
X130304053Y-84322560D02*
X130304053Y-84376434D01*
X130304053Y-84376434D02*
X130277115Y-84457247D01*
X130277115Y-84457247D02*
X130115491Y-84618871D01*
X130115491Y-84618871D02*
X130034679Y-84645808D01*
X130034679Y-84645808D02*
X129980804Y-84645808D01*
X100233064Y-116134049D02*
X100502438Y-115864675D01*
X100340813Y-116349549D02*
X99963690Y-115595301D01*
X99963690Y-115595301D02*
X100717937Y-115972425D01*
X100906499Y-115783863D02*
X100340813Y-115218178D01*
X100340813Y-115218178D02*
X100475500Y-115083491D01*
X100475500Y-115083491D02*
X100583250Y-115029616D01*
X100583250Y-115029616D02*
X100690999Y-115029616D01*
X100690999Y-115029616D02*
X100771812Y-115056553D01*
X100771812Y-115056553D02*
X100906499Y-115137366D01*
X100906499Y-115137366D02*
X100987311Y-115218178D01*
X100987311Y-115218178D02*
X101068123Y-115352865D01*
X101068123Y-115352865D02*
X101095060Y-115433677D01*
X101095060Y-115433677D02*
X101095060Y-115541427D01*
X101095060Y-115541427D02*
X101041186Y-115649176D01*
X101041186Y-115649176D02*
X100906499Y-115783863D01*
X101741558Y-114841054D02*
X101741558Y-114894929D01*
X101741558Y-114894929D02*
X101687683Y-115002679D01*
X101687683Y-115002679D02*
X101633808Y-115056553D01*
X101633808Y-115056553D02*
X101526059Y-115110428D01*
X101526059Y-115110428D02*
X101418309Y-115110428D01*
X101418309Y-115110428D02*
X101337497Y-115083491D01*
X101337497Y-115083491D02*
X101202810Y-115002679D01*
X101202810Y-115002679D02*
X101121998Y-114921866D01*
X101121998Y-114921866D02*
X101041186Y-114787179D01*
X101041186Y-114787179D02*
X101014248Y-114706367D01*
X101014248Y-114706367D02*
X101014248Y-114598618D01*
X101014248Y-114598618D02*
X101068123Y-114490868D01*
X101068123Y-114490868D02*
X101121998Y-114436993D01*
X101121998Y-114436993D02*
X101229747Y-114383118D01*
X101229747Y-114383118D02*
X101283622Y-114383118D01*
X101957057Y-114841054D02*
X102388056Y-114410056D01*
X101822370Y-113736621D02*
X102576618Y-114113744D01*
X102576618Y-114113744D02*
X102199494Y-113359497D01*
X103276990Y-113413372D02*
X102819054Y-113332560D01*
X102953741Y-113736621D02*
X102388056Y-113170935D01*
X102388056Y-113170935D02*
X102603555Y-112955436D01*
X102603555Y-112955436D02*
X102684367Y-112928499D01*
X102684367Y-112928499D02*
X102738242Y-112928499D01*
X102738242Y-112928499D02*
X102819054Y-112955436D01*
X102819054Y-112955436D02*
X102899866Y-113036248D01*
X102899866Y-113036248D02*
X102926804Y-113117061D01*
X102926804Y-113117061D02*
X102926804Y-113170935D01*
X102926804Y-113170935D02*
X102899866Y-113251748D01*
X102899866Y-113251748D02*
X102684367Y-113467247D01*
X103223115Y-112874624D02*
X103411677Y-112686062D01*
X103788800Y-112901561D02*
X103519426Y-113170935D01*
X103519426Y-113170935D02*
X102953741Y-112605250D01*
X102953741Y-112605250D02*
X103223115Y-112335876D01*
X103923488Y-112174251D02*
X103734926Y-112362813D01*
X104031237Y-112659125D02*
X103465552Y-112093439D01*
X103465552Y-112093439D02*
X103734926Y-111824065D01*
X128191372Y-113151494D02*
X128110560Y-113178431D01*
X128110560Y-113178431D02*
X128029748Y-113259243D01*
X128029748Y-113259243D02*
X127975873Y-113366993D01*
X127975873Y-113366993D02*
X127975873Y-113474742D01*
X127975873Y-113474742D02*
X128002810Y-113555555D01*
X128002810Y-113555555D02*
X128083623Y-113690242D01*
X128083623Y-113690242D02*
X128164435Y-113771054D01*
X128164435Y-113771054D02*
X128299122Y-113851866D01*
X128299122Y-113851866D02*
X128379934Y-113878803D01*
X128379934Y-113878803D02*
X128487684Y-113878803D01*
X128487684Y-113878803D02*
X128595433Y-113824929D01*
X128595433Y-113824929D02*
X128649308Y-113771054D01*
X128649308Y-113771054D02*
X128703183Y-113663304D01*
X128703183Y-113663304D02*
X128703183Y-113609429D01*
X128703183Y-113609429D02*
X128514621Y-113420868D01*
X128514621Y-113420868D02*
X128406871Y-113528617D01*
X128999494Y-113420868D02*
X128433809Y-112855182D01*
X128433809Y-112855182D02*
X128649308Y-112639683D01*
X128649308Y-112639683D02*
X128730120Y-112612746D01*
X128730120Y-112612746D02*
X128783995Y-112612746D01*
X128783995Y-112612746D02*
X128864807Y-112639683D01*
X128864807Y-112639683D02*
X128945619Y-112720495D01*
X128945619Y-112720495D02*
X128972557Y-112801307D01*
X128972557Y-112801307D02*
X128972557Y-112855182D01*
X128972557Y-112855182D02*
X128945619Y-112935994D01*
X128945619Y-112935994D02*
X128730120Y-113151494D01*
X129430493Y-112235622D02*
X129807616Y-112612746D01*
X129080306Y-112154810D02*
X129349680Y-112693558D01*
X129349680Y-112693558D02*
X129699867Y-112343372D01*
X128091372Y-103021494D02*
X128010560Y-103048431D01*
X128010560Y-103048431D02*
X127929748Y-103129243D01*
X127929748Y-103129243D02*
X127875873Y-103236993D01*
X127875873Y-103236993D02*
X127875873Y-103344742D01*
X127875873Y-103344742D02*
X127902810Y-103425555D01*
X127902810Y-103425555D02*
X127983623Y-103560242D01*
X127983623Y-103560242D02*
X128064435Y-103641054D01*
X128064435Y-103641054D02*
X128199122Y-103721866D01*
X128199122Y-103721866D02*
X128279934Y-103748803D01*
X128279934Y-103748803D02*
X128387684Y-103748803D01*
X128387684Y-103748803D02*
X128495433Y-103694929D01*
X128495433Y-103694929D02*
X128549308Y-103641054D01*
X128549308Y-103641054D02*
X128603183Y-103533304D01*
X128603183Y-103533304D02*
X128603183Y-103479429D01*
X128603183Y-103479429D02*
X128414621Y-103290868D01*
X128414621Y-103290868D02*
X128306871Y-103398617D01*
X128899494Y-103290868D02*
X128333809Y-102725182D01*
X128333809Y-102725182D02*
X128549308Y-102509683D01*
X128549308Y-102509683D02*
X128630120Y-102482746D01*
X128630120Y-102482746D02*
X128683995Y-102482746D01*
X128683995Y-102482746D02*
X128764807Y-102509683D01*
X128764807Y-102509683D02*
X128845619Y-102590495D01*
X128845619Y-102590495D02*
X128872557Y-102671307D01*
X128872557Y-102671307D02*
X128872557Y-102725182D01*
X128872557Y-102725182D02*
X128845619Y-102805994D01*
X128845619Y-102805994D02*
X128630120Y-103021494D01*
X128845619Y-102213372D02*
X129222743Y-101836248D01*
X129222743Y-101836248D02*
X129545992Y-102644370D01*
X128175998Y-77860868D02*
X128095185Y-77887805D01*
X128095185Y-77887805D02*
X128014373Y-77968618D01*
X128014373Y-77968618D02*
X127960498Y-78076367D01*
X127960498Y-78076367D02*
X127960498Y-78184117D01*
X127960498Y-78184117D02*
X127987436Y-78264929D01*
X127987436Y-78264929D02*
X128068248Y-78399616D01*
X128068248Y-78399616D02*
X128149060Y-78480428D01*
X128149060Y-78480428D02*
X128283747Y-78561241D01*
X128283747Y-78561241D02*
X128364560Y-78588178D01*
X128364560Y-78588178D02*
X128472309Y-78588178D01*
X128472309Y-78588178D02*
X128580059Y-78534303D01*
X128580059Y-78534303D02*
X128633934Y-78480428D01*
X128633934Y-78480428D02*
X128687808Y-78372679D01*
X128687808Y-78372679D02*
X128687808Y-78318804D01*
X128687808Y-78318804D02*
X128499247Y-78130242D01*
X128499247Y-78130242D02*
X128391497Y-78237992D01*
X128984120Y-78130242D02*
X128418434Y-77564557D01*
X128418434Y-77564557D02*
X128633934Y-77349057D01*
X128633934Y-77349057D02*
X128714746Y-77322120D01*
X128714746Y-77322120D02*
X128768621Y-77322120D01*
X128768621Y-77322120D02*
X128849433Y-77349057D01*
X128849433Y-77349057D02*
X128930245Y-77429870D01*
X128930245Y-77429870D02*
X128957182Y-77510682D01*
X128957182Y-77510682D02*
X128957182Y-77564557D01*
X128957182Y-77564557D02*
X128930245Y-77645369D01*
X128930245Y-77645369D02*
X128714746Y-77860868D01*
X129846117Y-77268245D02*
X129522868Y-77591494D01*
X129684492Y-77429870D02*
X129118807Y-76864184D01*
X129118807Y-76864184D02*
X129145744Y-76998871D01*
X129145744Y-76998871D02*
X129145744Y-77106621D01*
X129145744Y-77106621D02*
X129118807Y-77187433D01*
X129792242Y-76190749D02*
X129522868Y-76460123D01*
X129522868Y-76460123D02*
X129765305Y-76756434D01*
X129765305Y-76756434D02*
X129765305Y-76702560D01*
X129765305Y-76702560D02*
X129792242Y-76621747D01*
X129792242Y-76621747D02*
X129926929Y-76487060D01*
X129926929Y-76487060D02*
X130007741Y-76460123D01*
X130007741Y-76460123D02*
X130061616Y-76460123D01*
X130061616Y-76460123D02*
X130142428Y-76487060D01*
X130142428Y-76487060D02*
X130277115Y-76621747D01*
X130277115Y-76621747D02*
X130304053Y-76702560D01*
X130304053Y-76702560D02*
X130304053Y-76756434D01*
X130304053Y-76756434D02*
X130277115Y-76837247D01*
X130277115Y-76837247D02*
X130142428Y-76971934D01*
X130142428Y-76971934D02*
X130061616Y-76998871D01*
X130061616Y-76998871D02*
X130007741Y-76998871D01*
X102067998Y-80400868D02*
X101987185Y-80427805D01*
X101987185Y-80427805D02*
X101906373Y-80508618D01*
X101906373Y-80508618D02*
X101852498Y-80616367D01*
X101852498Y-80616367D02*
X101852498Y-80724117D01*
X101852498Y-80724117D02*
X101879436Y-80804929D01*
X101879436Y-80804929D02*
X101960248Y-80939616D01*
X101960248Y-80939616D02*
X102041060Y-81020428D01*
X102041060Y-81020428D02*
X102175747Y-81101241D01*
X102175747Y-81101241D02*
X102256560Y-81128178D01*
X102256560Y-81128178D02*
X102364309Y-81128178D01*
X102364309Y-81128178D02*
X102472059Y-81074303D01*
X102472059Y-81074303D02*
X102525934Y-81020428D01*
X102525934Y-81020428D02*
X102579808Y-80912679D01*
X102579808Y-80912679D02*
X102579808Y-80858804D01*
X102579808Y-80858804D02*
X102391247Y-80670242D01*
X102391247Y-80670242D02*
X102283497Y-80777992D01*
X102876120Y-80670242D02*
X102310434Y-80104557D01*
X102310434Y-80104557D02*
X102525934Y-79889057D01*
X102525934Y-79889057D02*
X102606746Y-79862120D01*
X102606746Y-79862120D02*
X102660621Y-79862120D01*
X102660621Y-79862120D02*
X102741433Y-79889057D01*
X102741433Y-79889057D02*
X102822245Y-79969870D01*
X102822245Y-79969870D02*
X102849182Y-80050682D01*
X102849182Y-80050682D02*
X102849182Y-80104557D01*
X102849182Y-80104557D02*
X102822245Y-80185369D01*
X102822245Y-80185369D02*
X102606746Y-80400868D01*
X103738117Y-79808245D02*
X103414868Y-80131494D01*
X103576492Y-79969870D02*
X103010807Y-79404184D01*
X103010807Y-79404184D02*
X103037744Y-79538871D01*
X103037744Y-79538871D02*
X103037744Y-79646621D01*
X103037744Y-79646621D02*
X103010807Y-79727433D01*
X103360993Y-79053998D02*
X103738117Y-78676874D01*
X103738117Y-78676874D02*
X104061366Y-79484996D01*
X102067998Y-103260868D02*
X101987185Y-103287805D01*
X101987185Y-103287805D02*
X101906373Y-103368618D01*
X101906373Y-103368618D02*
X101852498Y-103476367D01*
X101852498Y-103476367D02*
X101852498Y-103584117D01*
X101852498Y-103584117D02*
X101879436Y-103664929D01*
X101879436Y-103664929D02*
X101960248Y-103799616D01*
X101960248Y-103799616D02*
X102041060Y-103880428D01*
X102041060Y-103880428D02*
X102175747Y-103961241D01*
X102175747Y-103961241D02*
X102256560Y-103988178D01*
X102256560Y-103988178D02*
X102364309Y-103988178D01*
X102364309Y-103988178D02*
X102472059Y-103934303D01*
X102472059Y-103934303D02*
X102525934Y-103880428D01*
X102525934Y-103880428D02*
X102579808Y-103772679D01*
X102579808Y-103772679D02*
X102579808Y-103718804D01*
X102579808Y-103718804D02*
X102391247Y-103530242D01*
X102391247Y-103530242D02*
X102283497Y-103637992D01*
X102876120Y-103530242D02*
X102310434Y-102964557D01*
X102310434Y-102964557D02*
X102525934Y-102749057D01*
X102525934Y-102749057D02*
X102606746Y-102722120D01*
X102606746Y-102722120D02*
X102660621Y-102722120D01*
X102660621Y-102722120D02*
X102741433Y-102749057D01*
X102741433Y-102749057D02*
X102822245Y-102829870D01*
X102822245Y-102829870D02*
X102849182Y-102910682D01*
X102849182Y-102910682D02*
X102849182Y-102964557D01*
X102849182Y-102964557D02*
X102822245Y-103045369D01*
X102822245Y-103045369D02*
X102606746Y-103260868D01*
X102903057Y-102479683D02*
X102903057Y-102425809D01*
X102903057Y-102425809D02*
X102929995Y-102344996D01*
X102929995Y-102344996D02*
X103064682Y-102210309D01*
X103064682Y-102210309D02*
X103145494Y-102183372D01*
X103145494Y-102183372D02*
X103199369Y-102183372D01*
X103199369Y-102183372D02*
X103280181Y-102210309D01*
X103280181Y-102210309D02*
X103334056Y-102264184D01*
X103334056Y-102264184D02*
X103387930Y-102371934D01*
X103387930Y-102371934D02*
X103387930Y-103018431D01*
X103387930Y-103018431D02*
X103738117Y-102668245D01*
X103657305Y-101617686D02*
X103549555Y-101725436D01*
X103549555Y-101725436D02*
X103522618Y-101806248D01*
X103522618Y-101806248D02*
X103522618Y-101860123D01*
X103522618Y-101860123D02*
X103549555Y-101994810D01*
X103549555Y-101994810D02*
X103630367Y-102129497D01*
X103630367Y-102129497D02*
X103845866Y-102344996D01*
X103845866Y-102344996D02*
X103926679Y-102371934D01*
X103926679Y-102371934D02*
X103980553Y-102371934D01*
X103980553Y-102371934D02*
X104061366Y-102344996D01*
X104061366Y-102344996D02*
X104169115Y-102237247D01*
X104169115Y-102237247D02*
X104196053Y-102156434D01*
X104196053Y-102156434D02*
X104196053Y-102102560D01*
X104196053Y-102102560D02*
X104169115Y-102021747D01*
X104169115Y-102021747D02*
X104034428Y-101887060D01*
X104034428Y-101887060D02*
X103953616Y-101860123D01*
X103953616Y-101860123D02*
X103899741Y-101860123D01*
X103899741Y-101860123D02*
X103818929Y-101887060D01*
X103818929Y-101887060D02*
X103711179Y-101994810D01*
X103711179Y-101994810D02*
X103684242Y-102075622D01*
X103684242Y-102075622D02*
X103684242Y-102129497D01*
X103684242Y-102129497D02*
X103711179Y-102210309D01*
X119968475Y-75724200D02*
X120082761Y-75762295D01*
X120082761Y-75762295D02*
X120273237Y-75762295D01*
X120273237Y-75762295D02*
X120349428Y-75724200D01*
X120349428Y-75724200D02*
X120387523Y-75686104D01*
X120387523Y-75686104D02*
X120425618Y-75609914D01*
X120425618Y-75609914D02*
X120425618Y-75533723D01*
X120425618Y-75533723D02*
X120387523Y-75457533D01*
X120387523Y-75457533D02*
X120349428Y-75419438D01*
X120349428Y-75419438D02*
X120273237Y-75381342D01*
X120273237Y-75381342D02*
X120120856Y-75343247D01*
X120120856Y-75343247D02*
X120044666Y-75305152D01*
X120044666Y-75305152D02*
X120006571Y-75267057D01*
X120006571Y-75267057D02*
X119968475Y-75190866D01*
X119968475Y-75190866D02*
X119968475Y-75114676D01*
X119968475Y-75114676D02*
X120006571Y-75038485D01*
X120006571Y-75038485D02*
X120044666Y-75000390D01*
X120044666Y-75000390D02*
X120120856Y-74962295D01*
X120120856Y-74962295D02*
X120311333Y-74962295D01*
X120311333Y-74962295D02*
X120425618Y-75000390D01*
X120692285Y-74962295D02*
X120882761Y-75762295D01*
X120882761Y-75762295D02*
X121035142Y-75190866D01*
X121035142Y-75190866D02*
X121187523Y-75762295D01*
X121187523Y-75762295D02*
X121378000Y-74962295D01*
X122139905Y-75686104D02*
X122101809Y-75724200D01*
X122101809Y-75724200D02*
X121987524Y-75762295D01*
X121987524Y-75762295D02*
X121911333Y-75762295D01*
X121911333Y-75762295D02*
X121797047Y-75724200D01*
X121797047Y-75724200D02*
X121720857Y-75648009D01*
X121720857Y-75648009D02*
X121682762Y-75571819D01*
X121682762Y-75571819D02*
X121644666Y-75419438D01*
X121644666Y-75419438D02*
X121644666Y-75305152D01*
X121644666Y-75305152D02*
X121682762Y-75152771D01*
X121682762Y-75152771D02*
X121720857Y-75076580D01*
X121720857Y-75076580D02*
X121797047Y-75000390D01*
X121797047Y-75000390D02*
X121911333Y-74962295D01*
X121911333Y-74962295D02*
X121987524Y-74962295D01*
X121987524Y-74962295D02*
X122101809Y-75000390D01*
X122101809Y-75000390D02*
X122139905Y-75038485D01*
X122863714Y-75762295D02*
X122482762Y-75762295D01*
X122482762Y-75762295D02*
X122482762Y-74962295D01*
X123130381Y-75762295D02*
X123130381Y-74962295D01*
X123587524Y-75762295D02*
X123244666Y-75305152D01*
X123587524Y-74962295D02*
X123130381Y-75419438D01*
X100600407Y-119958584D02*
X100950593Y-119608398D01*
X100950593Y-119608398D02*
X100977531Y-120012459D01*
X100977531Y-120012459D02*
X101058343Y-119931646D01*
X101058343Y-119931646D02*
X101139155Y-119904709D01*
X101139155Y-119904709D02*
X101193030Y-119904709D01*
X101193030Y-119904709D02*
X101273842Y-119931646D01*
X101273842Y-119931646D02*
X101408529Y-120066333D01*
X101408529Y-120066333D02*
X101435467Y-120147146D01*
X101435467Y-120147146D02*
X101435467Y-120201020D01*
X101435467Y-120201020D02*
X101408529Y-120281833D01*
X101408529Y-120281833D02*
X101246905Y-120443457D01*
X101246905Y-120443457D02*
X101166093Y-120470394D01*
X101166093Y-120470394D02*
X101112218Y-120470394D01*
X101112218Y-119446773D02*
X101866465Y-119823897D01*
X101866465Y-119823897D02*
X101489342Y-119069649D01*
X101624028Y-118934963D02*
X101974215Y-118584776D01*
X101974215Y-118584776D02*
X102001152Y-118988837D01*
X102001152Y-118988837D02*
X102081964Y-118908025D01*
X102081964Y-118908025D02*
X102162776Y-118881088D01*
X102162776Y-118881088D02*
X102216651Y-118881088D01*
X102216651Y-118881088D02*
X102297464Y-118908025D01*
X102297464Y-118908025D02*
X102432151Y-119042712D01*
X102432151Y-119042712D02*
X102459088Y-119123524D01*
X102459088Y-119123524D02*
X102459088Y-119177399D01*
X102459088Y-119177399D02*
X102432151Y-119258211D01*
X102432151Y-119258211D02*
X102270526Y-119419836D01*
X102270526Y-119419836D02*
X102189714Y-119446773D01*
X102189714Y-119446773D02*
X102135839Y-119446773D01*
X102701525Y-119096587D02*
X103132523Y-118665588D01*
X102917024Y-118180715D02*
X103105586Y-117992153D01*
X103482709Y-118207652D02*
X103213335Y-118477026D01*
X103213335Y-118477026D02*
X102647650Y-117911341D01*
X102647650Y-117911341D02*
X102917024Y-117641967D01*
X103725146Y-117965215D02*
X103159461Y-117399530D01*
X103159461Y-117399530D02*
X104048395Y-117641967D01*
X104048395Y-117641967D02*
X103482710Y-117076281D01*
X102168123Y-115890868D02*
X102518309Y-115540682D01*
X102518309Y-115540682D02*
X102545247Y-115944743D01*
X102545247Y-115944743D02*
X102626059Y-115863931D01*
X102626059Y-115863931D02*
X102706871Y-115836993D01*
X102706871Y-115836993D02*
X102760746Y-115836993D01*
X102760746Y-115836993D02*
X102841558Y-115863931D01*
X102841558Y-115863931D02*
X102976245Y-115998618D01*
X102976245Y-115998618D02*
X103003182Y-116079430D01*
X103003182Y-116079430D02*
X103003182Y-116133305D01*
X103003182Y-116133305D02*
X102976245Y-116214117D01*
X102976245Y-116214117D02*
X102814621Y-116375741D01*
X102814621Y-116375741D02*
X102733808Y-116402679D01*
X102733808Y-116402679D02*
X102679934Y-116402679D01*
X102679934Y-115379057D02*
X103434181Y-115756181D01*
X103434181Y-115756181D02*
X103057057Y-115001934D01*
X103191744Y-114867247D02*
X103541930Y-114517061D01*
X103541930Y-114517061D02*
X103568868Y-114921122D01*
X103568868Y-114921122D02*
X103649680Y-114840309D01*
X103649680Y-114840309D02*
X103730492Y-114813372D01*
X103730492Y-114813372D02*
X103784367Y-114813372D01*
X103784367Y-114813372D02*
X103865179Y-114840309D01*
X103865179Y-114840309D02*
X103999866Y-114974996D01*
X103999866Y-114974996D02*
X104026804Y-115055809D01*
X104026804Y-115055809D02*
X104026804Y-115109683D01*
X104026804Y-115109683D02*
X103999866Y-115190496D01*
X103999866Y-115190496D02*
X103838242Y-115352120D01*
X103838242Y-115352120D02*
X103757430Y-115379057D01*
X103757430Y-115379057D02*
X103703555Y-115379057D01*
X128191372Y-100451494D02*
X128110560Y-100478431D01*
X128110560Y-100478431D02*
X128029748Y-100559243D01*
X128029748Y-100559243D02*
X127975873Y-100666993D01*
X127975873Y-100666993D02*
X127975873Y-100774742D01*
X127975873Y-100774742D02*
X128002810Y-100855555D01*
X128002810Y-100855555D02*
X128083623Y-100990242D01*
X128083623Y-100990242D02*
X128164435Y-101071054D01*
X128164435Y-101071054D02*
X128299122Y-101151866D01*
X128299122Y-101151866D02*
X128379934Y-101178803D01*
X128379934Y-101178803D02*
X128487684Y-101178803D01*
X128487684Y-101178803D02*
X128595433Y-101124929D01*
X128595433Y-101124929D02*
X128649308Y-101071054D01*
X128649308Y-101071054D02*
X128703183Y-100963304D01*
X128703183Y-100963304D02*
X128703183Y-100909429D01*
X128703183Y-100909429D02*
X128514621Y-100720868D01*
X128514621Y-100720868D02*
X128406871Y-100828617D01*
X128999494Y-100720868D02*
X128433809Y-100155182D01*
X128433809Y-100155182D02*
X128649308Y-99939683D01*
X128649308Y-99939683D02*
X128730120Y-99912746D01*
X128730120Y-99912746D02*
X128783995Y-99912746D01*
X128783995Y-99912746D02*
X128864807Y-99939683D01*
X128864807Y-99939683D02*
X128945619Y-100020495D01*
X128945619Y-100020495D02*
X128972557Y-100101307D01*
X128972557Y-100101307D02*
X128972557Y-100155182D01*
X128972557Y-100155182D02*
X128945619Y-100235994D01*
X128945619Y-100235994D02*
X128730120Y-100451494D01*
X129322743Y-99751121D02*
X129241931Y-99778059D01*
X129241931Y-99778059D02*
X129188056Y-99778059D01*
X129188056Y-99778059D02*
X129107244Y-99751121D01*
X129107244Y-99751121D02*
X129080306Y-99724184D01*
X129080306Y-99724184D02*
X129053369Y-99643372D01*
X129053369Y-99643372D02*
X129053369Y-99589497D01*
X129053369Y-99589497D02*
X129080306Y-99508685D01*
X129080306Y-99508685D02*
X129188056Y-99400935D01*
X129188056Y-99400935D02*
X129268868Y-99373998D01*
X129268868Y-99373998D02*
X129322743Y-99373998D01*
X129322743Y-99373998D02*
X129403555Y-99400935D01*
X129403555Y-99400935D02*
X129430493Y-99427872D01*
X129430493Y-99427872D02*
X129457430Y-99508685D01*
X129457430Y-99508685D02*
X129457430Y-99562559D01*
X129457430Y-99562559D02*
X129430493Y-99643372D01*
X129430493Y-99643372D02*
X129322743Y-99751121D01*
X129322743Y-99751121D02*
X129295806Y-99831933D01*
X129295806Y-99831933D02*
X129295806Y-99885808D01*
X129295806Y-99885808D02*
X129322743Y-99966620D01*
X129322743Y-99966620D02*
X129430493Y-100074370D01*
X129430493Y-100074370D02*
X129511305Y-100101307D01*
X129511305Y-100101307D02*
X129565180Y-100101307D01*
X129565180Y-100101307D02*
X129645992Y-100074370D01*
X129645992Y-100074370D02*
X129753741Y-99966620D01*
X129753741Y-99966620D02*
X129780679Y-99885808D01*
X129780679Y-99885808D02*
X129780679Y-99831933D01*
X129780679Y-99831933D02*
X129753741Y-99751121D01*
X129753741Y-99751121D02*
X129645992Y-99643372D01*
X129645992Y-99643372D02*
X129565180Y-99616434D01*
X129565180Y-99616434D02*
X129511305Y-99616434D01*
X129511305Y-99616434D02*
X129430493Y-99643372D01*
X102067998Y-77860868D02*
X101987185Y-77887805D01*
X101987185Y-77887805D02*
X101906373Y-77968618D01*
X101906373Y-77968618D02*
X101852498Y-78076367D01*
X101852498Y-78076367D02*
X101852498Y-78184117D01*
X101852498Y-78184117D02*
X101879436Y-78264929D01*
X101879436Y-78264929D02*
X101960248Y-78399616D01*
X101960248Y-78399616D02*
X102041060Y-78480428D01*
X102041060Y-78480428D02*
X102175747Y-78561241D01*
X102175747Y-78561241D02*
X102256560Y-78588178D01*
X102256560Y-78588178D02*
X102364309Y-78588178D01*
X102364309Y-78588178D02*
X102472059Y-78534303D01*
X102472059Y-78534303D02*
X102525934Y-78480428D01*
X102525934Y-78480428D02*
X102579808Y-78372679D01*
X102579808Y-78372679D02*
X102579808Y-78318804D01*
X102579808Y-78318804D02*
X102391247Y-78130242D01*
X102391247Y-78130242D02*
X102283497Y-78237992D01*
X102876120Y-78130242D02*
X102310434Y-77564557D01*
X102310434Y-77564557D02*
X102525934Y-77349057D01*
X102525934Y-77349057D02*
X102606746Y-77322120D01*
X102606746Y-77322120D02*
X102660621Y-77322120D01*
X102660621Y-77322120D02*
X102741433Y-77349057D01*
X102741433Y-77349057D02*
X102822245Y-77429870D01*
X102822245Y-77429870D02*
X102849182Y-77510682D01*
X102849182Y-77510682D02*
X102849182Y-77564557D01*
X102849182Y-77564557D02*
X102822245Y-77645369D01*
X102822245Y-77645369D02*
X102606746Y-77860868D01*
X103738117Y-77268245D02*
X103414868Y-77591494D01*
X103576492Y-77429870D02*
X103010807Y-76864184D01*
X103010807Y-76864184D02*
X103037744Y-76998871D01*
X103037744Y-76998871D02*
X103037744Y-77106621D01*
X103037744Y-77106621D02*
X103010807Y-77187433D01*
X103657305Y-76217686D02*
X103549555Y-76325436D01*
X103549555Y-76325436D02*
X103522618Y-76406248D01*
X103522618Y-76406248D02*
X103522618Y-76460123D01*
X103522618Y-76460123D02*
X103549555Y-76594810D01*
X103549555Y-76594810D02*
X103630367Y-76729497D01*
X103630367Y-76729497D02*
X103845866Y-76944996D01*
X103845866Y-76944996D02*
X103926679Y-76971934D01*
X103926679Y-76971934D02*
X103980553Y-76971934D01*
X103980553Y-76971934D02*
X104061366Y-76944996D01*
X104061366Y-76944996D02*
X104169115Y-76837247D01*
X104169115Y-76837247D02*
X104196053Y-76756434D01*
X104196053Y-76756434D02*
X104196053Y-76702560D01*
X104196053Y-76702560D02*
X104169115Y-76621747D01*
X104169115Y-76621747D02*
X104034428Y-76487060D01*
X104034428Y-76487060D02*
X103953616Y-76460123D01*
X103953616Y-76460123D02*
X103899741Y-76460123D01*
X103899741Y-76460123D02*
X103818929Y-76487060D01*
X103818929Y-76487060D02*
X103711179Y-76594810D01*
X103711179Y-76594810D02*
X103684242Y-76675622D01*
X103684242Y-76675622D02*
X103684242Y-76729497D01*
X103684242Y-76729497D02*
X103711179Y-76810309D01*
X102564435Y-95398431D02*
X102483623Y-95425368D01*
X102483623Y-95425368D02*
X102402811Y-95506180D01*
X102402811Y-95506180D02*
X102348936Y-95613930D01*
X102348936Y-95613930D02*
X102348936Y-95721680D01*
X102348936Y-95721680D02*
X102375873Y-95802492D01*
X102375873Y-95802492D02*
X102456685Y-95937179D01*
X102456685Y-95937179D02*
X102537498Y-96017991D01*
X102537498Y-96017991D02*
X102672185Y-96098803D01*
X102672185Y-96098803D02*
X102752997Y-96125741D01*
X102752997Y-96125741D02*
X102860746Y-96125741D01*
X102860746Y-96125741D02*
X102968496Y-96071866D01*
X102968496Y-96071866D02*
X103022371Y-96017991D01*
X103022371Y-96017991D02*
X103076246Y-95910241D01*
X103076246Y-95910241D02*
X103076246Y-95856367D01*
X103076246Y-95856367D02*
X102887684Y-95667805D01*
X102887684Y-95667805D02*
X102779934Y-95775554D01*
X103372557Y-95667805D02*
X102806872Y-95102119D01*
X102806872Y-95102119D02*
X103695806Y-95344556D01*
X103695806Y-95344556D02*
X103130120Y-94778871D01*
X103965180Y-95075182D02*
X103399494Y-94509497D01*
X103399494Y-94509497D02*
X103534181Y-94374810D01*
X103534181Y-94374810D02*
X103641931Y-94320935D01*
X103641931Y-94320935D02*
X103749680Y-94320935D01*
X103749680Y-94320935D02*
X103830493Y-94347872D01*
X103830493Y-94347872D02*
X103965180Y-94428685D01*
X103965180Y-94428685D02*
X104045992Y-94509497D01*
X104045992Y-94509497D02*
X104126804Y-94644184D01*
X104126804Y-94644184D02*
X104153741Y-94724996D01*
X104153741Y-94724996D02*
X104153741Y-94832746D01*
X104153741Y-94832746D02*
X104099867Y-94940495D01*
X104099867Y-94940495D02*
X103965180Y-95075182D01*
X128164435Y-108098431D02*
X128083623Y-108125368D01*
X128083623Y-108125368D02*
X128002811Y-108206180D01*
X128002811Y-108206180D02*
X127948936Y-108313930D01*
X127948936Y-108313930D02*
X127948936Y-108421680D01*
X127948936Y-108421680D02*
X127975873Y-108502492D01*
X127975873Y-108502492D02*
X128056685Y-108637179D01*
X128056685Y-108637179D02*
X128137498Y-108717991D01*
X128137498Y-108717991D02*
X128272185Y-108798803D01*
X128272185Y-108798803D02*
X128352997Y-108825741D01*
X128352997Y-108825741D02*
X128460746Y-108825741D01*
X128460746Y-108825741D02*
X128568496Y-108771866D01*
X128568496Y-108771866D02*
X128622371Y-108717991D01*
X128622371Y-108717991D02*
X128676246Y-108610241D01*
X128676246Y-108610241D02*
X128676246Y-108556367D01*
X128676246Y-108556367D02*
X128487684Y-108367805D01*
X128487684Y-108367805D02*
X128379934Y-108475554D01*
X128972557Y-108367805D02*
X128406872Y-107802119D01*
X128406872Y-107802119D02*
X129295806Y-108044556D01*
X129295806Y-108044556D02*
X128730120Y-107478871D01*
X129565180Y-107775182D02*
X128999494Y-107209497D01*
X128999494Y-107209497D02*
X129134181Y-107074810D01*
X129134181Y-107074810D02*
X129241931Y-107020935D01*
X129241931Y-107020935D02*
X129349680Y-107020935D01*
X129349680Y-107020935D02*
X129430493Y-107047872D01*
X129430493Y-107047872D02*
X129565180Y-107128685D01*
X129565180Y-107128685D02*
X129645992Y-107209497D01*
X129645992Y-107209497D02*
X129726804Y-107344184D01*
X129726804Y-107344184D02*
X129753741Y-107424996D01*
X129753741Y-107424996D02*
X129753741Y-107532746D01*
X129753741Y-107532746D02*
X129699867Y-107640495D01*
X129699867Y-107640495D02*
X129565180Y-107775182D01*
X102067998Y-111134868D02*
X101987185Y-111161805D01*
X101987185Y-111161805D02*
X101906373Y-111242618D01*
X101906373Y-111242618D02*
X101852498Y-111350367D01*
X101852498Y-111350367D02*
X101852498Y-111458117D01*
X101852498Y-111458117D02*
X101879436Y-111538929D01*
X101879436Y-111538929D02*
X101960248Y-111673616D01*
X101960248Y-111673616D02*
X102041060Y-111754428D01*
X102041060Y-111754428D02*
X102175747Y-111835241D01*
X102175747Y-111835241D02*
X102256560Y-111862178D01*
X102256560Y-111862178D02*
X102364309Y-111862178D01*
X102364309Y-111862178D02*
X102472059Y-111808303D01*
X102472059Y-111808303D02*
X102525934Y-111754428D01*
X102525934Y-111754428D02*
X102579808Y-111646679D01*
X102579808Y-111646679D02*
X102579808Y-111592804D01*
X102579808Y-111592804D02*
X102391247Y-111404242D01*
X102391247Y-111404242D02*
X102283497Y-111511992D01*
X102876120Y-111404242D02*
X102310434Y-110838557D01*
X102310434Y-110838557D02*
X102525934Y-110623057D01*
X102525934Y-110623057D02*
X102606746Y-110596120D01*
X102606746Y-110596120D02*
X102660621Y-110596120D01*
X102660621Y-110596120D02*
X102741433Y-110623057D01*
X102741433Y-110623057D02*
X102822245Y-110703870D01*
X102822245Y-110703870D02*
X102849182Y-110784682D01*
X102849182Y-110784682D02*
X102849182Y-110838557D01*
X102849182Y-110838557D02*
X102822245Y-110919369D01*
X102822245Y-110919369D02*
X102606746Y-111134868D01*
X102903057Y-110353683D02*
X102903057Y-110299809D01*
X102903057Y-110299809D02*
X102929995Y-110218996D01*
X102929995Y-110218996D02*
X103064682Y-110084309D01*
X103064682Y-110084309D02*
X103145494Y-110057372D01*
X103145494Y-110057372D02*
X103199369Y-110057372D01*
X103199369Y-110057372D02*
X103280181Y-110084309D01*
X103280181Y-110084309D02*
X103334056Y-110138184D01*
X103334056Y-110138184D02*
X103387930Y-110245934D01*
X103387930Y-110245934D02*
X103387930Y-110892431D01*
X103387930Y-110892431D02*
X103738117Y-110542245D01*
X103738117Y-109895747D02*
X103657305Y-109922685D01*
X103657305Y-109922685D02*
X103603430Y-109922685D01*
X103603430Y-109922685D02*
X103522618Y-109895747D01*
X103522618Y-109895747D02*
X103495680Y-109868810D01*
X103495680Y-109868810D02*
X103468743Y-109787998D01*
X103468743Y-109787998D02*
X103468743Y-109734123D01*
X103468743Y-109734123D02*
X103495680Y-109653311D01*
X103495680Y-109653311D02*
X103603430Y-109545561D01*
X103603430Y-109545561D02*
X103684242Y-109518624D01*
X103684242Y-109518624D02*
X103738117Y-109518624D01*
X103738117Y-109518624D02*
X103818929Y-109545561D01*
X103818929Y-109545561D02*
X103845866Y-109572499D01*
X103845866Y-109572499D02*
X103872804Y-109653311D01*
X103872804Y-109653311D02*
X103872804Y-109707186D01*
X103872804Y-109707186D02*
X103845866Y-109787998D01*
X103845866Y-109787998D02*
X103738117Y-109895747D01*
X103738117Y-109895747D02*
X103711179Y-109976560D01*
X103711179Y-109976560D02*
X103711179Y-110030434D01*
X103711179Y-110030434D02*
X103738117Y-110111247D01*
X103738117Y-110111247D02*
X103845866Y-110218996D01*
X103845866Y-110218996D02*
X103926679Y-110245934D01*
X103926679Y-110245934D02*
X103980553Y-110245934D01*
X103980553Y-110245934D02*
X104061366Y-110218996D01*
X104061366Y-110218996D02*
X104169115Y-110111247D01*
X104169115Y-110111247D02*
X104196053Y-110030434D01*
X104196053Y-110030434D02*
X104196053Y-109976560D01*
X104196053Y-109976560D02*
X104169115Y-109895747D01*
X104169115Y-109895747D02*
X104061366Y-109787998D01*
X104061366Y-109787998D02*
X103980553Y-109761060D01*
X103980553Y-109761060D02*
X103926679Y-109761060D01*
X103926679Y-109761060D02*
X103845866Y-109787998D01*
X128191372Y-97911494D02*
X128110560Y-97938431D01*
X128110560Y-97938431D02*
X128029748Y-98019243D01*
X128029748Y-98019243D02*
X127975873Y-98126993D01*
X127975873Y-98126993D02*
X127975873Y-98234742D01*
X127975873Y-98234742D02*
X128002810Y-98315555D01*
X128002810Y-98315555D02*
X128083623Y-98450242D01*
X128083623Y-98450242D02*
X128164435Y-98531054D01*
X128164435Y-98531054D02*
X128299122Y-98611866D01*
X128299122Y-98611866D02*
X128379934Y-98638803D01*
X128379934Y-98638803D02*
X128487684Y-98638803D01*
X128487684Y-98638803D02*
X128595433Y-98584929D01*
X128595433Y-98584929D02*
X128649308Y-98531054D01*
X128649308Y-98531054D02*
X128703183Y-98423304D01*
X128703183Y-98423304D02*
X128703183Y-98369429D01*
X128703183Y-98369429D02*
X128514621Y-98180868D01*
X128514621Y-98180868D02*
X128406871Y-98288617D01*
X128999494Y-98180868D02*
X128433809Y-97615182D01*
X128433809Y-97615182D02*
X128649308Y-97399683D01*
X128649308Y-97399683D02*
X128730120Y-97372746D01*
X128730120Y-97372746D02*
X128783995Y-97372746D01*
X128783995Y-97372746D02*
X128864807Y-97399683D01*
X128864807Y-97399683D02*
X128945619Y-97480495D01*
X128945619Y-97480495D02*
X128972557Y-97561307D01*
X128972557Y-97561307D02*
X128972557Y-97615182D01*
X128972557Y-97615182D02*
X128945619Y-97695994D01*
X128945619Y-97695994D02*
X128730120Y-97911494D01*
X129592117Y-97588245D02*
X129699867Y-97480495D01*
X129699867Y-97480495D02*
X129726804Y-97399683D01*
X129726804Y-97399683D02*
X129726804Y-97345808D01*
X129726804Y-97345808D02*
X129699867Y-97211121D01*
X129699867Y-97211121D02*
X129619054Y-97076434D01*
X129619054Y-97076434D02*
X129403555Y-96860935D01*
X129403555Y-96860935D02*
X129322743Y-96833998D01*
X129322743Y-96833998D02*
X129268868Y-96833998D01*
X129268868Y-96833998D02*
X129188056Y-96860935D01*
X129188056Y-96860935D02*
X129080306Y-96968685D01*
X129080306Y-96968685D02*
X129053369Y-97049497D01*
X129053369Y-97049497D02*
X129053369Y-97103372D01*
X129053369Y-97103372D02*
X129080306Y-97184184D01*
X129080306Y-97184184D02*
X129214993Y-97318871D01*
X129214993Y-97318871D02*
X129295806Y-97345808D01*
X129295806Y-97345808D02*
X129349680Y-97345808D01*
X129349680Y-97345808D02*
X129430493Y-97318871D01*
X129430493Y-97318871D02*
X129538242Y-97211121D01*
X129538242Y-97211121D02*
X129565180Y-97130309D01*
X129565180Y-97130309D02*
X129565180Y-97076434D01*
X129565180Y-97076434D02*
X129538242Y-96995622D01*
X108782761Y-75724200D02*
X108897047Y-75762295D01*
X108897047Y-75762295D02*
X109087523Y-75762295D01*
X109087523Y-75762295D02*
X109163714Y-75724200D01*
X109163714Y-75724200D02*
X109201809Y-75686104D01*
X109201809Y-75686104D02*
X109239904Y-75609914D01*
X109239904Y-75609914D02*
X109239904Y-75533723D01*
X109239904Y-75533723D02*
X109201809Y-75457533D01*
X109201809Y-75457533D02*
X109163714Y-75419438D01*
X109163714Y-75419438D02*
X109087523Y-75381342D01*
X109087523Y-75381342D02*
X108935142Y-75343247D01*
X108935142Y-75343247D02*
X108858952Y-75305152D01*
X108858952Y-75305152D02*
X108820857Y-75267057D01*
X108820857Y-75267057D02*
X108782761Y-75190866D01*
X108782761Y-75190866D02*
X108782761Y-75114676D01*
X108782761Y-75114676D02*
X108820857Y-75038485D01*
X108820857Y-75038485D02*
X108858952Y-75000390D01*
X108858952Y-75000390D02*
X108935142Y-74962295D01*
X108935142Y-74962295D02*
X109125619Y-74962295D01*
X109125619Y-74962295D02*
X109239904Y-75000390D01*
X109506571Y-74962295D02*
X109697047Y-75762295D01*
X109697047Y-75762295D02*
X109849428Y-75190866D01*
X109849428Y-75190866D02*
X110001809Y-75762295D01*
X110001809Y-75762295D02*
X110192286Y-74962295D01*
X110497048Y-75762295D02*
X110497048Y-74962295D01*
X110497048Y-74962295D02*
X110687524Y-74962295D01*
X110687524Y-74962295D02*
X110801810Y-75000390D01*
X110801810Y-75000390D02*
X110878000Y-75076580D01*
X110878000Y-75076580D02*
X110916095Y-75152771D01*
X110916095Y-75152771D02*
X110954191Y-75305152D01*
X110954191Y-75305152D02*
X110954191Y-75419438D01*
X110954191Y-75419438D02*
X110916095Y-75571819D01*
X110916095Y-75571819D02*
X110878000Y-75648009D01*
X110878000Y-75648009D02*
X110801810Y-75724200D01*
X110801810Y-75724200D02*
X110687524Y-75762295D01*
X110687524Y-75762295D02*
X110497048Y-75762295D01*
X111297048Y-75762295D02*
X111297048Y-74962295D01*
X111830381Y-74962295D02*
X111982762Y-74962295D01*
X111982762Y-74962295D02*
X112058952Y-75000390D01*
X112058952Y-75000390D02*
X112135143Y-75076580D01*
X112135143Y-75076580D02*
X112173238Y-75228961D01*
X112173238Y-75228961D02*
X112173238Y-75495628D01*
X112173238Y-75495628D02*
X112135143Y-75648009D01*
X112135143Y-75648009D02*
X112058952Y-75724200D01*
X112058952Y-75724200D02*
X111982762Y-75762295D01*
X111982762Y-75762295D02*
X111830381Y-75762295D01*
X111830381Y-75762295D02*
X111754190Y-75724200D01*
X111754190Y-75724200D02*
X111678000Y-75648009D01*
X111678000Y-75648009D02*
X111639904Y-75495628D01*
X111639904Y-75495628D02*
X111639904Y-75228961D01*
X111639904Y-75228961D02*
X111678000Y-75076580D01*
X111678000Y-75076580D02*
X111754190Y-75000390D01*
X111754190Y-75000390D02*
X111830381Y-74962295D01*
X128191372Y-110611494D02*
X128110560Y-110638431D01*
X128110560Y-110638431D02*
X128029748Y-110719243D01*
X128029748Y-110719243D02*
X127975873Y-110826993D01*
X127975873Y-110826993D02*
X127975873Y-110934742D01*
X127975873Y-110934742D02*
X128002810Y-111015555D01*
X128002810Y-111015555D02*
X128083623Y-111150242D01*
X128083623Y-111150242D02*
X128164435Y-111231054D01*
X128164435Y-111231054D02*
X128299122Y-111311866D01*
X128299122Y-111311866D02*
X128379934Y-111338803D01*
X128379934Y-111338803D02*
X128487684Y-111338803D01*
X128487684Y-111338803D02*
X128595433Y-111284929D01*
X128595433Y-111284929D02*
X128649308Y-111231054D01*
X128649308Y-111231054D02*
X128703183Y-111123304D01*
X128703183Y-111123304D02*
X128703183Y-111069429D01*
X128703183Y-111069429D02*
X128514621Y-110880868D01*
X128514621Y-110880868D02*
X128406871Y-110988617D01*
X128999494Y-110880868D02*
X128433809Y-110315182D01*
X128433809Y-110315182D02*
X128649308Y-110099683D01*
X128649308Y-110099683D02*
X128730120Y-110072746D01*
X128730120Y-110072746D02*
X128783995Y-110072746D01*
X128783995Y-110072746D02*
X128864807Y-110099683D01*
X128864807Y-110099683D02*
X128945619Y-110180495D01*
X128945619Y-110180495D02*
X128972557Y-110261307D01*
X128972557Y-110261307D02*
X128972557Y-110315182D01*
X128972557Y-110315182D02*
X128945619Y-110395994D01*
X128945619Y-110395994D02*
X128730120Y-110611494D01*
X129268868Y-109480123D02*
X128999494Y-109749497D01*
X128999494Y-109749497D02*
X129241931Y-110045808D01*
X129241931Y-110045808D02*
X129241931Y-109991933D01*
X129241931Y-109991933D02*
X129268868Y-109911121D01*
X129268868Y-109911121D02*
X129403555Y-109776434D01*
X129403555Y-109776434D02*
X129484367Y-109749497D01*
X129484367Y-109749497D02*
X129538242Y-109749497D01*
X129538242Y-109749497D02*
X129619054Y-109776434D01*
X129619054Y-109776434D02*
X129753741Y-109911121D01*
X129753741Y-109911121D02*
X129780679Y-109991933D01*
X129780679Y-109991933D02*
X129780679Y-110045808D01*
X129780679Y-110045808D02*
X129753741Y-110126620D01*
X129753741Y-110126620D02*
X129619054Y-110261307D01*
X129619054Y-110261307D02*
X129538242Y-110288245D01*
X129538242Y-110288245D02*
X129484367Y-110288245D01*
X128191372Y-125851494D02*
X128110560Y-125878431D01*
X128110560Y-125878431D02*
X128029748Y-125959243D01*
X128029748Y-125959243D02*
X127975873Y-126066993D01*
X127975873Y-126066993D02*
X127975873Y-126174742D01*
X127975873Y-126174742D02*
X128002810Y-126255555D01*
X128002810Y-126255555D02*
X128083623Y-126390242D01*
X128083623Y-126390242D02*
X128164435Y-126471054D01*
X128164435Y-126471054D02*
X128299122Y-126551866D01*
X128299122Y-126551866D02*
X128379934Y-126578803D01*
X128379934Y-126578803D02*
X128487684Y-126578803D01*
X128487684Y-126578803D02*
X128595433Y-126524929D01*
X128595433Y-126524929D02*
X128649308Y-126471054D01*
X128649308Y-126471054D02*
X128703183Y-126363304D01*
X128703183Y-126363304D02*
X128703183Y-126309429D01*
X128703183Y-126309429D02*
X128514621Y-126120868D01*
X128514621Y-126120868D02*
X128406871Y-126228617D01*
X128999494Y-126120868D02*
X128433809Y-125555182D01*
X128433809Y-125555182D02*
X128649308Y-125339683D01*
X128649308Y-125339683D02*
X128730120Y-125312746D01*
X128730120Y-125312746D02*
X128783995Y-125312746D01*
X128783995Y-125312746D02*
X128864807Y-125339683D01*
X128864807Y-125339683D02*
X128945619Y-125420495D01*
X128945619Y-125420495D02*
X128972557Y-125501307D01*
X128972557Y-125501307D02*
X128972557Y-125555182D01*
X128972557Y-125555182D02*
X128945619Y-125635994D01*
X128945619Y-125635994D02*
X128730120Y-125851494D01*
X129107244Y-124881747D02*
X129161119Y-124827872D01*
X129161119Y-124827872D02*
X129241931Y-124800935D01*
X129241931Y-124800935D02*
X129295806Y-124800935D01*
X129295806Y-124800935D02*
X129376618Y-124827872D01*
X129376618Y-124827872D02*
X129511305Y-124908685D01*
X129511305Y-124908685D02*
X129645992Y-125043372D01*
X129645992Y-125043372D02*
X129726804Y-125178059D01*
X129726804Y-125178059D02*
X129753741Y-125258871D01*
X129753741Y-125258871D02*
X129753741Y-125312746D01*
X129753741Y-125312746D02*
X129726804Y-125393558D01*
X129726804Y-125393558D02*
X129672929Y-125447433D01*
X129672929Y-125447433D02*
X129592117Y-125474370D01*
X129592117Y-125474370D02*
X129538242Y-125474370D01*
X129538242Y-125474370D02*
X129457430Y-125447433D01*
X129457430Y-125447433D02*
X129322743Y-125366620D01*
X129322743Y-125366620D02*
X129188056Y-125231933D01*
X129188056Y-125231933D02*
X129107244Y-125097246D01*
X129107244Y-125097246D02*
X129080306Y-125016434D01*
X129080306Y-125016434D02*
X129080306Y-124962559D01*
X129080306Y-124962559D02*
X129107244Y-124881747D01*
X128191372Y-115691494D02*
X128110560Y-115718431D01*
X128110560Y-115718431D02*
X128029748Y-115799243D01*
X128029748Y-115799243D02*
X127975873Y-115906993D01*
X127975873Y-115906993D02*
X127975873Y-116014742D01*
X127975873Y-116014742D02*
X128002810Y-116095555D01*
X128002810Y-116095555D02*
X128083623Y-116230242D01*
X128083623Y-116230242D02*
X128164435Y-116311054D01*
X128164435Y-116311054D02*
X128299122Y-116391866D01*
X128299122Y-116391866D02*
X128379934Y-116418803D01*
X128379934Y-116418803D02*
X128487684Y-116418803D01*
X128487684Y-116418803D02*
X128595433Y-116364929D01*
X128595433Y-116364929D02*
X128649308Y-116311054D01*
X128649308Y-116311054D02*
X128703183Y-116203304D01*
X128703183Y-116203304D02*
X128703183Y-116149429D01*
X128703183Y-116149429D02*
X128514621Y-115960868D01*
X128514621Y-115960868D02*
X128406871Y-116068617D01*
X128999494Y-115960868D02*
X128433809Y-115395182D01*
X128433809Y-115395182D02*
X128649308Y-115179683D01*
X128649308Y-115179683D02*
X128730120Y-115152746D01*
X128730120Y-115152746D02*
X128783995Y-115152746D01*
X128783995Y-115152746D02*
X128864807Y-115179683D01*
X128864807Y-115179683D02*
X128945619Y-115260495D01*
X128945619Y-115260495D02*
X128972557Y-115341307D01*
X128972557Y-115341307D02*
X128972557Y-115395182D01*
X128972557Y-115395182D02*
X128945619Y-115475994D01*
X128945619Y-115475994D02*
X128730120Y-115691494D01*
X128945619Y-114883372D02*
X129295806Y-114533185D01*
X129295806Y-114533185D02*
X129322743Y-114937246D01*
X129322743Y-114937246D02*
X129403555Y-114856434D01*
X129403555Y-114856434D02*
X129484367Y-114829497D01*
X129484367Y-114829497D02*
X129538242Y-114829497D01*
X129538242Y-114829497D02*
X129619054Y-114856434D01*
X129619054Y-114856434D02*
X129753741Y-114991121D01*
X129753741Y-114991121D02*
X129780679Y-115071933D01*
X129780679Y-115071933D02*
X129780679Y-115125808D01*
X129780679Y-115125808D02*
X129753741Y-115206620D01*
X129753741Y-115206620D02*
X129592117Y-115368245D01*
X129592117Y-115368245D02*
X129511305Y-115395182D01*
X129511305Y-115395182D02*
X129457430Y-115395182D01*
X128164435Y-82698431D02*
X128083623Y-82725368D01*
X128083623Y-82725368D02*
X128002811Y-82806180D01*
X128002811Y-82806180D02*
X127948936Y-82913930D01*
X127948936Y-82913930D02*
X127948936Y-83021680D01*
X127948936Y-83021680D02*
X127975873Y-83102492D01*
X127975873Y-83102492D02*
X128056685Y-83237179D01*
X128056685Y-83237179D02*
X128137498Y-83317991D01*
X128137498Y-83317991D02*
X128272185Y-83398803D01*
X128272185Y-83398803D02*
X128352997Y-83425741D01*
X128352997Y-83425741D02*
X128460746Y-83425741D01*
X128460746Y-83425741D02*
X128568496Y-83371866D01*
X128568496Y-83371866D02*
X128622371Y-83317991D01*
X128622371Y-83317991D02*
X128676246Y-83210241D01*
X128676246Y-83210241D02*
X128676246Y-83156367D01*
X128676246Y-83156367D02*
X128487684Y-82967805D01*
X128487684Y-82967805D02*
X128379934Y-83075554D01*
X128972557Y-82967805D02*
X128406872Y-82402119D01*
X128406872Y-82402119D02*
X129295806Y-82644556D01*
X129295806Y-82644556D02*
X128730120Y-82078871D01*
X129565180Y-82375182D02*
X128999494Y-81809497D01*
X128999494Y-81809497D02*
X129134181Y-81674810D01*
X129134181Y-81674810D02*
X129241931Y-81620935D01*
X129241931Y-81620935D02*
X129349680Y-81620935D01*
X129349680Y-81620935D02*
X129430493Y-81647872D01*
X129430493Y-81647872D02*
X129565180Y-81728685D01*
X129565180Y-81728685D02*
X129645992Y-81809497D01*
X129645992Y-81809497D02*
X129726804Y-81944184D01*
X129726804Y-81944184D02*
X129753741Y-82024996D01*
X129753741Y-82024996D02*
X129753741Y-82132746D01*
X129753741Y-82132746D02*
X129699867Y-82240495D01*
X129699867Y-82240495D02*
X129565180Y-82375182D01*
X128164435Y-120798431D02*
X128083623Y-120825368D01*
X128083623Y-120825368D02*
X128002811Y-120906180D01*
X128002811Y-120906180D02*
X127948936Y-121013930D01*
X127948936Y-121013930D02*
X127948936Y-121121680D01*
X127948936Y-121121680D02*
X127975873Y-121202492D01*
X127975873Y-121202492D02*
X128056685Y-121337179D01*
X128056685Y-121337179D02*
X128137498Y-121417991D01*
X128137498Y-121417991D02*
X128272185Y-121498803D01*
X128272185Y-121498803D02*
X128352997Y-121525741D01*
X128352997Y-121525741D02*
X128460746Y-121525741D01*
X128460746Y-121525741D02*
X128568496Y-121471866D01*
X128568496Y-121471866D02*
X128622371Y-121417991D01*
X128622371Y-121417991D02*
X128676246Y-121310241D01*
X128676246Y-121310241D02*
X128676246Y-121256367D01*
X128676246Y-121256367D02*
X128487684Y-121067805D01*
X128487684Y-121067805D02*
X128379934Y-121175554D01*
X128972557Y-121067805D02*
X128406872Y-120502119D01*
X128406872Y-120502119D02*
X129295806Y-120744556D01*
X129295806Y-120744556D02*
X128730120Y-120178871D01*
X129565180Y-120475182D02*
X128999494Y-119909497D01*
X128999494Y-119909497D02*
X129134181Y-119774810D01*
X129134181Y-119774810D02*
X129241931Y-119720935D01*
X129241931Y-119720935D02*
X129349680Y-119720935D01*
X129349680Y-119720935D02*
X129430493Y-119747872D01*
X129430493Y-119747872D02*
X129565180Y-119828685D01*
X129565180Y-119828685D02*
X129645992Y-119909497D01*
X129645992Y-119909497D02*
X129726804Y-120044184D01*
X129726804Y-120044184D02*
X129753741Y-120124996D01*
X129753741Y-120124996D02*
X129753741Y-120232746D01*
X129753741Y-120232746D02*
X129699867Y-120340495D01*
X129699867Y-120340495D02*
X129565180Y-120475182D01*
X102067998Y-90560868D02*
X101987185Y-90587805D01*
X101987185Y-90587805D02*
X101906373Y-90668618D01*
X101906373Y-90668618D02*
X101852498Y-90776367D01*
X101852498Y-90776367D02*
X101852498Y-90884117D01*
X101852498Y-90884117D02*
X101879436Y-90964929D01*
X101879436Y-90964929D02*
X101960248Y-91099616D01*
X101960248Y-91099616D02*
X102041060Y-91180428D01*
X102041060Y-91180428D02*
X102175747Y-91261241D01*
X102175747Y-91261241D02*
X102256560Y-91288178D01*
X102256560Y-91288178D02*
X102364309Y-91288178D01*
X102364309Y-91288178D02*
X102472059Y-91234303D01*
X102472059Y-91234303D02*
X102525934Y-91180428D01*
X102525934Y-91180428D02*
X102579808Y-91072679D01*
X102579808Y-91072679D02*
X102579808Y-91018804D01*
X102579808Y-91018804D02*
X102391247Y-90830242D01*
X102391247Y-90830242D02*
X102283497Y-90937992D01*
X102876120Y-90830242D02*
X102310434Y-90264557D01*
X102310434Y-90264557D02*
X102525934Y-90049057D01*
X102525934Y-90049057D02*
X102606746Y-90022120D01*
X102606746Y-90022120D02*
X102660621Y-90022120D01*
X102660621Y-90022120D02*
X102741433Y-90049057D01*
X102741433Y-90049057D02*
X102822245Y-90129870D01*
X102822245Y-90129870D02*
X102849182Y-90210682D01*
X102849182Y-90210682D02*
X102849182Y-90264557D01*
X102849182Y-90264557D02*
X102822245Y-90345369D01*
X102822245Y-90345369D02*
X102606746Y-90560868D01*
X102903057Y-89779683D02*
X102903057Y-89725809D01*
X102903057Y-89725809D02*
X102929995Y-89644996D01*
X102929995Y-89644996D02*
X103064682Y-89510309D01*
X103064682Y-89510309D02*
X103145494Y-89483372D01*
X103145494Y-89483372D02*
X103199369Y-89483372D01*
X103199369Y-89483372D02*
X103280181Y-89510309D01*
X103280181Y-89510309D02*
X103334056Y-89564184D01*
X103334056Y-89564184D02*
X103387930Y-89671934D01*
X103387930Y-89671934D02*
X103387930Y-90318431D01*
X103387930Y-90318431D02*
X103738117Y-89968245D01*
X103522618Y-89052373D02*
X103576492Y-88998499D01*
X103576492Y-88998499D02*
X103657305Y-88971561D01*
X103657305Y-88971561D02*
X103711179Y-88971561D01*
X103711179Y-88971561D02*
X103791992Y-88998499D01*
X103791992Y-88998499D02*
X103926679Y-89079311D01*
X103926679Y-89079311D02*
X104061366Y-89213998D01*
X104061366Y-89213998D02*
X104142178Y-89348685D01*
X104142178Y-89348685D02*
X104169115Y-89429497D01*
X104169115Y-89429497D02*
X104169115Y-89483372D01*
X104169115Y-89483372D02*
X104142178Y-89564184D01*
X104142178Y-89564184D02*
X104088303Y-89618059D01*
X104088303Y-89618059D02*
X104007491Y-89644996D01*
X104007491Y-89644996D02*
X103953616Y-89644996D01*
X103953616Y-89644996D02*
X103872804Y-89618059D01*
X103872804Y-89618059D02*
X103738117Y-89537247D01*
X103738117Y-89537247D02*
X103603430Y-89402560D01*
X103603430Y-89402560D02*
X103522618Y-89267873D01*
X103522618Y-89267873D02*
X103495680Y-89187060D01*
X103495680Y-89187060D02*
X103495680Y-89133186D01*
X103495680Y-89133186D02*
X103522618Y-89052373D01*
X102067998Y-88020868D02*
X101987185Y-88047805D01*
X101987185Y-88047805D02*
X101906373Y-88128618D01*
X101906373Y-88128618D02*
X101852498Y-88236367D01*
X101852498Y-88236367D02*
X101852498Y-88344117D01*
X101852498Y-88344117D02*
X101879436Y-88424929D01*
X101879436Y-88424929D02*
X101960248Y-88559616D01*
X101960248Y-88559616D02*
X102041060Y-88640428D01*
X102041060Y-88640428D02*
X102175747Y-88721241D01*
X102175747Y-88721241D02*
X102256560Y-88748178D01*
X102256560Y-88748178D02*
X102364309Y-88748178D01*
X102364309Y-88748178D02*
X102472059Y-88694303D01*
X102472059Y-88694303D02*
X102525934Y-88640428D01*
X102525934Y-88640428D02*
X102579808Y-88532679D01*
X102579808Y-88532679D02*
X102579808Y-88478804D01*
X102579808Y-88478804D02*
X102391247Y-88290242D01*
X102391247Y-88290242D02*
X102283497Y-88397992D01*
X102876120Y-88290242D02*
X102310434Y-87724557D01*
X102310434Y-87724557D02*
X102525934Y-87509057D01*
X102525934Y-87509057D02*
X102606746Y-87482120D01*
X102606746Y-87482120D02*
X102660621Y-87482120D01*
X102660621Y-87482120D02*
X102741433Y-87509057D01*
X102741433Y-87509057D02*
X102822245Y-87589870D01*
X102822245Y-87589870D02*
X102849182Y-87670682D01*
X102849182Y-87670682D02*
X102849182Y-87724557D01*
X102849182Y-87724557D02*
X102822245Y-87805369D01*
X102822245Y-87805369D02*
X102606746Y-88020868D01*
X103738117Y-87428245D02*
X103414868Y-87751494D01*
X103576492Y-87589870D02*
X103010807Y-87024184D01*
X103010807Y-87024184D02*
X103037744Y-87158871D01*
X103037744Y-87158871D02*
X103037744Y-87266621D01*
X103037744Y-87266621D02*
X103010807Y-87347433D01*
X104007491Y-87158871D02*
X104115240Y-87051121D01*
X104115240Y-87051121D02*
X104142178Y-86970309D01*
X104142178Y-86970309D02*
X104142178Y-86916434D01*
X104142178Y-86916434D02*
X104115240Y-86781747D01*
X104115240Y-86781747D02*
X104034428Y-86647060D01*
X104034428Y-86647060D02*
X103818929Y-86431561D01*
X103818929Y-86431561D02*
X103738117Y-86404624D01*
X103738117Y-86404624D02*
X103684242Y-86404624D01*
X103684242Y-86404624D02*
X103603430Y-86431561D01*
X103603430Y-86431561D02*
X103495680Y-86539311D01*
X103495680Y-86539311D02*
X103468743Y-86620123D01*
X103468743Y-86620123D02*
X103468743Y-86673998D01*
X103468743Y-86673998D02*
X103495680Y-86754810D01*
X103495680Y-86754810D02*
X103630367Y-86889497D01*
X103630367Y-86889497D02*
X103711179Y-86916434D01*
X103711179Y-86916434D02*
X103765054Y-86916434D01*
X103765054Y-86916434D02*
X103845866Y-86889497D01*
X103845866Y-86889497D02*
X103953616Y-86781747D01*
X103953616Y-86781747D02*
X103980553Y-86700935D01*
X103980553Y-86700935D02*
X103980553Y-86647060D01*
X103980553Y-86647060D02*
X103953616Y-86566248D01*
X128291372Y-118231494D02*
X128210560Y-118258431D01*
X128210560Y-118258431D02*
X128129748Y-118339243D01*
X128129748Y-118339243D02*
X128075873Y-118446993D01*
X128075873Y-118446993D02*
X128075873Y-118554742D01*
X128075873Y-118554742D02*
X128102810Y-118635555D01*
X128102810Y-118635555D02*
X128183623Y-118770242D01*
X128183623Y-118770242D02*
X128264435Y-118851054D01*
X128264435Y-118851054D02*
X128399122Y-118931866D01*
X128399122Y-118931866D02*
X128479934Y-118958803D01*
X128479934Y-118958803D02*
X128587684Y-118958803D01*
X128587684Y-118958803D02*
X128695433Y-118904929D01*
X128695433Y-118904929D02*
X128749308Y-118851054D01*
X128749308Y-118851054D02*
X128803183Y-118743304D01*
X128803183Y-118743304D02*
X128803183Y-118689429D01*
X128803183Y-118689429D02*
X128614621Y-118500868D01*
X128614621Y-118500868D02*
X128506871Y-118608617D01*
X129099494Y-118500868D02*
X128533809Y-117935182D01*
X128533809Y-117935182D02*
X128749308Y-117719683D01*
X128749308Y-117719683D02*
X128830120Y-117692746D01*
X128830120Y-117692746D02*
X128883995Y-117692746D01*
X128883995Y-117692746D02*
X128964807Y-117719683D01*
X128964807Y-117719683D02*
X129045619Y-117800495D01*
X129045619Y-117800495D02*
X129072557Y-117881307D01*
X129072557Y-117881307D02*
X129072557Y-117935182D01*
X129072557Y-117935182D02*
X129045619Y-118015994D01*
X129045619Y-118015994D02*
X128830120Y-118231494D01*
X129126432Y-117450309D02*
X129126432Y-117396434D01*
X129126432Y-117396434D02*
X129153369Y-117315622D01*
X129153369Y-117315622D02*
X129288056Y-117180935D01*
X129288056Y-117180935D02*
X129368868Y-117153998D01*
X129368868Y-117153998D02*
X129422743Y-117153998D01*
X129422743Y-117153998D02*
X129503555Y-117180935D01*
X129503555Y-117180935D02*
X129557430Y-117234810D01*
X129557430Y-117234810D02*
X129611305Y-117342559D01*
X129611305Y-117342559D02*
X129611305Y-117989057D01*
X129611305Y-117989057D02*
X129961491Y-117638871D01*
X102067998Y-85480868D02*
X101987185Y-85507805D01*
X101987185Y-85507805D02*
X101906373Y-85588618D01*
X101906373Y-85588618D02*
X101852498Y-85696367D01*
X101852498Y-85696367D02*
X101852498Y-85804117D01*
X101852498Y-85804117D02*
X101879436Y-85884929D01*
X101879436Y-85884929D02*
X101960248Y-86019616D01*
X101960248Y-86019616D02*
X102041060Y-86100428D01*
X102041060Y-86100428D02*
X102175747Y-86181241D01*
X102175747Y-86181241D02*
X102256560Y-86208178D01*
X102256560Y-86208178D02*
X102364309Y-86208178D01*
X102364309Y-86208178D02*
X102472059Y-86154303D01*
X102472059Y-86154303D02*
X102525934Y-86100428D01*
X102525934Y-86100428D02*
X102579808Y-85992679D01*
X102579808Y-85992679D02*
X102579808Y-85938804D01*
X102579808Y-85938804D02*
X102391247Y-85750242D01*
X102391247Y-85750242D02*
X102283497Y-85857992D01*
X102876120Y-85750242D02*
X102310434Y-85184557D01*
X102310434Y-85184557D02*
X102525934Y-84969057D01*
X102525934Y-84969057D02*
X102606746Y-84942120D01*
X102606746Y-84942120D02*
X102660621Y-84942120D01*
X102660621Y-84942120D02*
X102741433Y-84969057D01*
X102741433Y-84969057D02*
X102822245Y-85049870D01*
X102822245Y-85049870D02*
X102849182Y-85130682D01*
X102849182Y-85130682D02*
X102849182Y-85184557D01*
X102849182Y-85184557D02*
X102822245Y-85265369D01*
X102822245Y-85265369D02*
X102606746Y-85480868D01*
X103738117Y-84888245D02*
X103414868Y-85211494D01*
X103576492Y-85049870D02*
X103010807Y-84484184D01*
X103010807Y-84484184D02*
X103037744Y-84618871D01*
X103037744Y-84618871D02*
X103037744Y-84726621D01*
X103037744Y-84726621D02*
X103010807Y-84807433D01*
X103738117Y-84241747D02*
X103657305Y-84268685D01*
X103657305Y-84268685D02*
X103603430Y-84268685D01*
X103603430Y-84268685D02*
X103522618Y-84241747D01*
X103522618Y-84241747D02*
X103495680Y-84214810D01*
X103495680Y-84214810D02*
X103468743Y-84133998D01*
X103468743Y-84133998D02*
X103468743Y-84080123D01*
X103468743Y-84080123D02*
X103495680Y-83999311D01*
X103495680Y-83999311D02*
X103603430Y-83891561D01*
X103603430Y-83891561D02*
X103684242Y-83864624D01*
X103684242Y-83864624D02*
X103738117Y-83864624D01*
X103738117Y-83864624D02*
X103818929Y-83891561D01*
X103818929Y-83891561D02*
X103845866Y-83918499D01*
X103845866Y-83918499D02*
X103872804Y-83999311D01*
X103872804Y-83999311D02*
X103872804Y-84053186D01*
X103872804Y-84053186D02*
X103845866Y-84133998D01*
X103845866Y-84133998D02*
X103738117Y-84241747D01*
X103738117Y-84241747D02*
X103711179Y-84322560D01*
X103711179Y-84322560D02*
X103711179Y-84376434D01*
X103711179Y-84376434D02*
X103738117Y-84457247D01*
X103738117Y-84457247D02*
X103845866Y-84564996D01*
X103845866Y-84564996D02*
X103926679Y-84591934D01*
X103926679Y-84591934D02*
X103980553Y-84591934D01*
X103980553Y-84591934D02*
X104061366Y-84564996D01*
X104061366Y-84564996D02*
X104169115Y-84457247D01*
X104169115Y-84457247D02*
X104196053Y-84376434D01*
X104196053Y-84376434D02*
X104196053Y-84322560D01*
X104196053Y-84322560D02*
X104169115Y-84241747D01*
X104169115Y-84241747D02*
X104061366Y-84133998D01*
X104061366Y-84133998D02*
X103980553Y-84107060D01*
X103980553Y-84107060D02*
X103926679Y-84107060D01*
X103926679Y-84107060D02*
X103845866Y-84133998D01*
X128191372Y-105531494D02*
X128110560Y-105558431D01*
X128110560Y-105558431D02*
X128029748Y-105639243D01*
X128029748Y-105639243D02*
X127975873Y-105746993D01*
X127975873Y-105746993D02*
X127975873Y-105854742D01*
X127975873Y-105854742D02*
X128002810Y-105935555D01*
X128002810Y-105935555D02*
X128083623Y-106070242D01*
X128083623Y-106070242D02*
X128164435Y-106151054D01*
X128164435Y-106151054D02*
X128299122Y-106231866D01*
X128299122Y-106231866D02*
X128379934Y-106258803D01*
X128379934Y-106258803D02*
X128487684Y-106258803D01*
X128487684Y-106258803D02*
X128595433Y-106204929D01*
X128595433Y-106204929D02*
X128649308Y-106151054D01*
X128649308Y-106151054D02*
X128703183Y-106043304D01*
X128703183Y-106043304D02*
X128703183Y-105989429D01*
X128703183Y-105989429D02*
X128514621Y-105800868D01*
X128514621Y-105800868D02*
X128406871Y-105908617D01*
X128999494Y-105800868D02*
X128433809Y-105235182D01*
X128433809Y-105235182D02*
X128649308Y-105019683D01*
X128649308Y-105019683D02*
X128730120Y-104992746D01*
X128730120Y-104992746D02*
X128783995Y-104992746D01*
X128783995Y-104992746D02*
X128864807Y-105019683D01*
X128864807Y-105019683D02*
X128945619Y-105100495D01*
X128945619Y-105100495D02*
X128972557Y-105181307D01*
X128972557Y-105181307D02*
X128972557Y-105235182D01*
X128972557Y-105235182D02*
X128945619Y-105315994D01*
X128945619Y-105315994D02*
X128730120Y-105531494D01*
X129241931Y-104427060D02*
X129134181Y-104534810D01*
X129134181Y-104534810D02*
X129107244Y-104615622D01*
X129107244Y-104615622D02*
X129107244Y-104669497D01*
X129107244Y-104669497D02*
X129134181Y-104804184D01*
X129134181Y-104804184D02*
X129214993Y-104938871D01*
X129214993Y-104938871D02*
X129430493Y-105154370D01*
X129430493Y-105154370D02*
X129511305Y-105181307D01*
X129511305Y-105181307D02*
X129565180Y-105181307D01*
X129565180Y-105181307D02*
X129645992Y-105154370D01*
X129645992Y-105154370D02*
X129753741Y-105046620D01*
X129753741Y-105046620D02*
X129780679Y-104965808D01*
X129780679Y-104965808D02*
X129780679Y-104911933D01*
X129780679Y-104911933D02*
X129753741Y-104831121D01*
X129753741Y-104831121D02*
X129619054Y-104696434D01*
X129619054Y-104696434D02*
X129538242Y-104669497D01*
X129538242Y-104669497D02*
X129484367Y-104669497D01*
X129484367Y-104669497D02*
X129403555Y-104696434D01*
X129403555Y-104696434D02*
X129295806Y-104804184D01*
X129295806Y-104804184D02*
X129268868Y-104884996D01*
X129268868Y-104884996D02*
X129268868Y-104938871D01*
X129268868Y-104938871D02*
X129295806Y-105019683D01*
X102067998Y-93090868D02*
X101987185Y-93117805D01*
X101987185Y-93117805D02*
X101906373Y-93198618D01*
X101906373Y-93198618D02*
X101852498Y-93306367D01*
X101852498Y-93306367D02*
X101852498Y-93414117D01*
X101852498Y-93414117D02*
X101879436Y-93494929D01*
X101879436Y-93494929D02*
X101960248Y-93629616D01*
X101960248Y-93629616D02*
X102041060Y-93710428D01*
X102041060Y-93710428D02*
X102175747Y-93791241D01*
X102175747Y-93791241D02*
X102256560Y-93818178D01*
X102256560Y-93818178D02*
X102364309Y-93818178D01*
X102364309Y-93818178D02*
X102472059Y-93764303D01*
X102472059Y-93764303D02*
X102525934Y-93710428D01*
X102525934Y-93710428D02*
X102579808Y-93602679D01*
X102579808Y-93602679D02*
X102579808Y-93548804D01*
X102579808Y-93548804D02*
X102391247Y-93360242D01*
X102391247Y-93360242D02*
X102283497Y-93467992D01*
X102876120Y-93360242D02*
X102310434Y-92794557D01*
X102310434Y-92794557D02*
X102525934Y-92579057D01*
X102525934Y-92579057D02*
X102606746Y-92552120D01*
X102606746Y-92552120D02*
X102660621Y-92552120D01*
X102660621Y-92552120D02*
X102741433Y-92579057D01*
X102741433Y-92579057D02*
X102822245Y-92659870D01*
X102822245Y-92659870D02*
X102849182Y-92740682D01*
X102849182Y-92740682D02*
X102849182Y-92794557D01*
X102849182Y-92794557D02*
X102822245Y-92875369D01*
X102822245Y-92875369D02*
X102606746Y-93090868D01*
X102903057Y-92309683D02*
X102903057Y-92255809D01*
X102903057Y-92255809D02*
X102929995Y-92174996D01*
X102929995Y-92174996D02*
X103064682Y-92040309D01*
X103064682Y-92040309D02*
X103145494Y-92013372D01*
X103145494Y-92013372D02*
X103199369Y-92013372D01*
X103199369Y-92013372D02*
X103280181Y-92040309D01*
X103280181Y-92040309D02*
X103334056Y-92094184D01*
X103334056Y-92094184D02*
X103387930Y-92201934D01*
X103387930Y-92201934D02*
X103387930Y-92848431D01*
X103387930Y-92848431D02*
X103738117Y-92498245D01*
X104276865Y-91959497D02*
X103953616Y-92282746D01*
X104115240Y-92121121D02*
X103549555Y-91555436D01*
X103549555Y-91555436D02*
X103576492Y-91690123D01*
X103576492Y-91690123D02*
X103576492Y-91797873D01*
X103576492Y-91797873D02*
X103549555Y-91878685D01*
X102067998Y-98180868D02*
X101987185Y-98207805D01*
X101987185Y-98207805D02*
X101906373Y-98288618D01*
X101906373Y-98288618D02*
X101852498Y-98396367D01*
X101852498Y-98396367D02*
X101852498Y-98504117D01*
X101852498Y-98504117D02*
X101879436Y-98584929D01*
X101879436Y-98584929D02*
X101960248Y-98719616D01*
X101960248Y-98719616D02*
X102041060Y-98800428D01*
X102041060Y-98800428D02*
X102175747Y-98881241D01*
X102175747Y-98881241D02*
X102256560Y-98908178D01*
X102256560Y-98908178D02*
X102364309Y-98908178D01*
X102364309Y-98908178D02*
X102472059Y-98854303D01*
X102472059Y-98854303D02*
X102525934Y-98800428D01*
X102525934Y-98800428D02*
X102579808Y-98692679D01*
X102579808Y-98692679D02*
X102579808Y-98638804D01*
X102579808Y-98638804D02*
X102391247Y-98450242D01*
X102391247Y-98450242D02*
X102283497Y-98557992D01*
X102876120Y-98450242D02*
X102310434Y-97884557D01*
X102310434Y-97884557D02*
X102525934Y-97669057D01*
X102525934Y-97669057D02*
X102606746Y-97642120D01*
X102606746Y-97642120D02*
X102660621Y-97642120D01*
X102660621Y-97642120D02*
X102741433Y-97669057D01*
X102741433Y-97669057D02*
X102822245Y-97749870D01*
X102822245Y-97749870D02*
X102849182Y-97830682D01*
X102849182Y-97830682D02*
X102849182Y-97884557D01*
X102849182Y-97884557D02*
X102822245Y-97965369D01*
X102822245Y-97965369D02*
X102606746Y-98180868D01*
X102903057Y-97399683D02*
X102903057Y-97345809D01*
X102903057Y-97345809D02*
X102929995Y-97264996D01*
X102929995Y-97264996D02*
X103064682Y-97130309D01*
X103064682Y-97130309D02*
X103145494Y-97103372D01*
X103145494Y-97103372D02*
X103199369Y-97103372D01*
X103199369Y-97103372D02*
X103280181Y-97130309D01*
X103280181Y-97130309D02*
X103334056Y-97184184D01*
X103334056Y-97184184D02*
X103387930Y-97291934D01*
X103387930Y-97291934D02*
X103387930Y-97938431D01*
X103387930Y-97938431D02*
X103738117Y-97588245D01*
X103441805Y-96860935D02*
X103441805Y-96807060D01*
X103441805Y-96807060D02*
X103468743Y-96726248D01*
X103468743Y-96726248D02*
X103603430Y-96591561D01*
X103603430Y-96591561D02*
X103684242Y-96564624D01*
X103684242Y-96564624D02*
X103738117Y-96564624D01*
X103738117Y-96564624D02*
X103818929Y-96591561D01*
X103818929Y-96591561D02*
X103872804Y-96645436D01*
X103872804Y-96645436D02*
X103926679Y-96753186D01*
X103926679Y-96753186D02*
X103926679Y-97399683D01*
X103926679Y-97399683D02*
X104276865Y-97049497D01*
X128164435Y-95398431D02*
X128083623Y-95425368D01*
X128083623Y-95425368D02*
X128002811Y-95506180D01*
X128002811Y-95506180D02*
X127948936Y-95613930D01*
X127948936Y-95613930D02*
X127948936Y-95721680D01*
X127948936Y-95721680D02*
X127975873Y-95802492D01*
X127975873Y-95802492D02*
X128056685Y-95937179D01*
X128056685Y-95937179D02*
X128137498Y-96017991D01*
X128137498Y-96017991D02*
X128272185Y-96098803D01*
X128272185Y-96098803D02*
X128352997Y-96125741D01*
X128352997Y-96125741D02*
X128460746Y-96125741D01*
X128460746Y-96125741D02*
X128568496Y-96071866D01*
X128568496Y-96071866D02*
X128622371Y-96017991D01*
X128622371Y-96017991D02*
X128676246Y-95910241D01*
X128676246Y-95910241D02*
X128676246Y-95856367D01*
X128676246Y-95856367D02*
X128487684Y-95667805D01*
X128487684Y-95667805D02*
X128379934Y-95775554D01*
X128972557Y-95667805D02*
X128406872Y-95102119D01*
X128406872Y-95102119D02*
X129295806Y-95344556D01*
X129295806Y-95344556D02*
X128730120Y-94778871D01*
X129565180Y-95075182D02*
X128999494Y-94509497D01*
X128999494Y-94509497D02*
X129134181Y-94374810D01*
X129134181Y-94374810D02*
X129241931Y-94320935D01*
X129241931Y-94320935D02*
X129349680Y-94320935D01*
X129349680Y-94320935D02*
X129430493Y-94347872D01*
X129430493Y-94347872D02*
X129565180Y-94428685D01*
X129565180Y-94428685D02*
X129645992Y-94509497D01*
X129645992Y-94509497D02*
X129726804Y-94644184D01*
X129726804Y-94644184D02*
X129753741Y-94724996D01*
X129753741Y-94724996D02*
X129753741Y-94832746D01*
X129753741Y-94832746D02*
X129699867Y-94940495D01*
X129699867Y-94940495D02*
X129565180Y-95075182D01*
X128221998Y-80400868D02*
X128141185Y-80427805D01*
X128141185Y-80427805D02*
X128060373Y-80508618D01*
X128060373Y-80508618D02*
X128006498Y-80616367D01*
X128006498Y-80616367D02*
X128006498Y-80724117D01*
X128006498Y-80724117D02*
X128033436Y-80804929D01*
X128033436Y-80804929D02*
X128114248Y-80939616D01*
X128114248Y-80939616D02*
X128195060Y-81020428D01*
X128195060Y-81020428D02*
X128329747Y-81101241D01*
X128329747Y-81101241D02*
X128410560Y-81128178D01*
X128410560Y-81128178D02*
X128518309Y-81128178D01*
X128518309Y-81128178D02*
X128626059Y-81074303D01*
X128626059Y-81074303D02*
X128679934Y-81020428D01*
X128679934Y-81020428D02*
X128733808Y-80912679D01*
X128733808Y-80912679D02*
X128733808Y-80858804D01*
X128733808Y-80858804D02*
X128545247Y-80670242D01*
X128545247Y-80670242D02*
X128437497Y-80777992D01*
X129030120Y-80670242D02*
X128464434Y-80104557D01*
X128464434Y-80104557D02*
X128679934Y-79889057D01*
X128679934Y-79889057D02*
X128760746Y-79862120D01*
X128760746Y-79862120D02*
X128814621Y-79862120D01*
X128814621Y-79862120D02*
X128895433Y-79889057D01*
X128895433Y-79889057D02*
X128976245Y-79969870D01*
X128976245Y-79969870D02*
X129003182Y-80050682D01*
X129003182Y-80050682D02*
X129003182Y-80104557D01*
X129003182Y-80104557D02*
X128976245Y-80185369D01*
X128976245Y-80185369D02*
X128760746Y-80400868D01*
X129892117Y-79808245D02*
X129568868Y-80131494D01*
X129730492Y-79969870D02*
X129164807Y-79404184D01*
X129164807Y-79404184D02*
X129191744Y-79538871D01*
X129191744Y-79538871D02*
X129191744Y-79646621D01*
X129191744Y-79646621D02*
X129164807Y-79727433D01*
X129999866Y-78946248D02*
X130376990Y-79323372D01*
X129649680Y-78865436D02*
X129919054Y-79404184D01*
X129919054Y-79404184D02*
X130269240Y-79053998D01*
X101598749Y-123850242D02*
X102352996Y-124227366D01*
X102352996Y-124227366D02*
X101975873Y-123473118D01*
X102676245Y-123850242D02*
X102783995Y-123796367D01*
X102783995Y-123796367D02*
X102918682Y-123661680D01*
X102918682Y-123661680D02*
X102945619Y-123580868D01*
X102945619Y-123580868D02*
X102945619Y-123526993D01*
X102945619Y-123526993D02*
X102918682Y-123446181D01*
X102918682Y-123446181D02*
X102864807Y-123392306D01*
X102864807Y-123392306D02*
X102783995Y-123365369D01*
X102783995Y-123365369D02*
X102730120Y-123365369D01*
X102730120Y-123365369D02*
X102649308Y-123392306D01*
X102649308Y-123392306D02*
X102514621Y-123473118D01*
X102514621Y-123473118D02*
X102433808Y-123500056D01*
X102433808Y-123500056D02*
X102379934Y-123500056D01*
X102379934Y-123500056D02*
X102299121Y-123473118D01*
X102299121Y-123473118D02*
X102245247Y-123419244D01*
X102245247Y-123419244D02*
X102218309Y-123338431D01*
X102218309Y-123338431D02*
X102218309Y-123284557D01*
X102218309Y-123284557D02*
X102245247Y-123203744D01*
X102245247Y-123203744D02*
X102379934Y-123069057D01*
X102379934Y-123069057D02*
X102487683Y-123015183D01*
X103107244Y-122934370D02*
X103376618Y-123203744D01*
X102622370Y-122826621D02*
X103107244Y-122934370D01*
X103107244Y-122934370D02*
X102999494Y-122449497D01*
X103699866Y-122826621D02*
X103807616Y-122772746D01*
X103807616Y-122772746D02*
X103942303Y-122638059D01*
X103942303Y-122638059D02*
X103969240Y-122557247D01*
X103969240Y-122557247D02*
X103969240Y-122503372D01*
X103969240Y-122503372D02*
X103942303Y-122422560D01*
X103942303Y-122422560D02*
X103888428Y-122368685D01*
X103888428Y-122368685D02*
X103807616Y-122341748D01*
X103807616Y-122341748D02*
X103753741Y-122341748D01*
X103753741Y-122341748D02*
X103672929Y-122368685D01*
X103672929Y-122368685D02*
X103538242Y-122449497D01*
X103538242Y-122449497D02*
X103457430Y-122476435D01*
X103457430Y-122476435D02*
X103403555Y-122476435D01*
X103403555Y-122476435D02*
X103322743Y-122449497D01*
X103322743Y-122449497D02*
X103268868Y-122395622D01*
X103268868Y-122395622D02*
X103241930Y-122314810D01*
X103241930Y-122314810D02*
X103241930Y-122260935D01*
X103241930Y-122260935D02*
X103268868Y-122180123D01*
X103268868Y-122180123D02*
X103403555Y-122045436D01*
X103403555Y-122045436D02*
X103511304Y-121991561D01*
X128321998Y-88020868D02*
X128241185Y-88047805D01*
X128241185Y-88047805D02*
X128160373Y-88128618D01*
X128160373Y-88128618D02*
X128106498Y-88236367D01*
X128106498Y-88236367D02*
X128106498Y-88344117D01*
X128106498Y-88344117D02*
X128133436Y-88424929D01*
X128133436Y-88424929D02*
X128214248Y-88559616D01*
X128214248Y-88559616D02*
X128295060Y-88640428D01*
X128295060Y-88640428D02*
X128429747Y-88721241D01*
X128429747Y-88721241D02*
X128510560Y-88748178D01*
X128510560Y-88748178D02*
X128618309Y-88748178D01*
X128618309Y-88748178D02*
X128726059Y-88694303D01*
X128726059Y-88694303D02*
X128779934Y-88640428D01*
X128779934Y-88640428D02*
X128833808Y-88532679D01*
X128833808Y-88532679D02*
X128833808Y-88478804D01*
X128833808Y-88478804D02*
X128645247Y-88290242D01*
X128645247Y-88290242D02*
X128537497Y-88397992D01*
X129130120Y-88290242D02*
X128564434Y-87724557D01*
X128564434Y-87724557D02*
X128779934Y-87509057D01*
X128779934Y-87509057D02*
X128860746Y-87482120D01*
X128860746Y-87482120D02*
X128914621Y-87482120D01*
X128914621Y-87482120D02*
X128995433Y-87509057D01*
X128995433Y-87509057D02*
X129076245Y-87589870D01*
X129076245Y-87589870D02*
X129103182Y-87670682D01*
X129103182Y-87670682D02*
X129103182Y-87724557D01*
X129103182Y-87724557D02*
X129076245Y-87805369D01*
X129076245Y-87805369D02*
X128860746Y-88020868D01*
X129992117Y-87428245D02*
X129668868Y-87751494D01*
X129830492Y-87589870D02*
X129264807Y-87024184D01*
X129264807Y-87024184D02*
X129291744Y-87158871D01*
X129291744Y-87158871D02*
X129291744Y-87266621D01*
X129291744Y-87266621D02*
X129264807Y-87347433D01*
X129695805Y-86700935D02*
X129695805Y-86647060D01*
X129695805Y-86647060D02*
X129722743Y-86566248D01*
X129722743Y-86566248D02*
X129857430Y-86431561D01*
X129857430Y-86431561D02*
X129938242Y-86404624D01*
X129938242Y-86404624D02*
X129992117Y-86404624D01*
X129992117Y-86404624D02*
X130072929Y-86431561D01*
X130072929Y-86431561D02*
X130126804Y-86485436D01*
X130126804Y-86485436D02*
X130180679Y-86593186D01*
X130180679Y-86593186D02*
X130180679Y-87239683D01*
X130180679Y-87239683D02*
X130530865Y-86889497D01*
X128291372Y-123321494D02*
X128210560Y-123348431D01*
X128210560Y-123348431D02*
X128129748Y-123429243D01*
X128129748Y-123429243D02*
X128075873Y-123536993D01*
X128075873Y-123536993D02*
X128075873Y-123644742D01*
X128075873Y-123644742D02*
X128102810Y-123725555D01*
X128102810Y-123725555D02*
X128183623Y-123860242D01*
X128183623Y-123860242D02*
X128264435Y-123941054D01*
X128264435Y-123941054D02*
X128399122Y-124021866D01*
X128399122Y-124021866D02*
X128479934Y-124048803D01*
X128479934Y-124048803D02*
X128587684Y-124048803D01*
X128587684Y-124048803D02*
X128695433Y-123994929D01*
X128695433Y-123994929D02*
X128749308Y-123941054D01*
X128749308Y-123941054D02*
X128803183Y-123833304D01*
X128803183Y-123833304D02*
X128803183Y-123779429D01*
X128803183Y-123779429D02*
X128614621Y-123590868D01*
X128614621Y-123590868D02*
X128506871Y-123698617D01*
X129099494Y-123590868D02*
X128533809Y-123025182D01*
X128533809Y-123025182D02*
X128749308Y-122809683D01*
X128749308Y-122809683D02*
X128830120Y-122782746D01*
X128830120Y-122782746D02*
X128883995Y-122782746D01*
X128883995Y-122782746D02*
X128964807Y-122809683D01*
X128964807Y-122809683D02*
X129045619Y-122890495D01*
X129045619Y-122890495D02*
X129072557Y-122971307D01*
X129072557Y-122971307D02*
X129072557Y-123025182D01*
X129072557Y-123025182D02*
X129045619Y-123105994D01*
X129045619Y-123105994D02*
X128830120Y-123321494D01*
X129961491Y-122728871D02*
X129638242Y-123052120D01*
X129799867Y-122890495D02*
X129234181Y-122324810D01*
X129234181Y-122324810D02*
X129261119Y-122459497D01*
X129261119Y-122459497D02*
X129261119Y-122567246D01*
X129261119Y-122567246D02*
X129234181Y-122648059D01*
X128175998Y-93100868D02*
X128095185Y-93127805D01*
X128095185Y-93127805D02*
X128014373Y-93208618D01*
X128014373Y-93208618D02*
X127960498Y-93316367D01*
X127960498Y-93316367D02*
X127960498Y-93424117D01*
X127960498Y-93424117D02*
X127987436Y-93504929D01*
X127987436Y-93504929D02*
X128068248Y-93639616D01*
X128068248Y-93639616D02*
X128149060Y-93720428D01*
X128149060Y-93720428D02*
X128283747Y-93801241D01*
X128283747Y-93801241D02*
X128364560Y-93828178D01*
X128364560Y-93828178D02*
X128472309Y-93828178D01*
X128472309Y-93828178D02*
X128580059Y-93774303D01*
X128580059Y-93774303D02*
X128633934Y-93720428D01*
X128633934Y-93720428D02*
X128687808Y-93612679D01*
X128687808Y-93612679D02*
X128687808Y-93558804D01*
X128687808Y-93558804D02*
X128499247Y-93370242D01*
X128499247Y-93370242D02*
X128391497Y-93477992D01*
X128984120Y-93370242D02*
X128418434Y-92804557D01*
X128418434Y-92804557D02*
X128633934Y-92589057D01*
X128633934Y-92589057D02*
X128714746Y-92562120D01*
X128714746Y-92562120D02*
X128768621Y-92562120D01*
X128768621Y-92562120D02*
X128849433Y-92589057D01*
X128849433Y-92589057D02*
X128930245Y-92669870D01*
X128930245Y-92669870D02*
X128957182Y-92750682D01*
X128957182Y-92750682D02*
X128957182Y-92804557D01*
X128957182Y-92804557D02*
X128930245Y-92885369D01*
X128930245Y-92885369D02*
X128714746Y-93100868D01*
X129846117Y-92508245D02*
X129522868Y-92831494D01*
X129684492Y-92669870D02*
X129118807Y-92104184D01*
X129118807Y-92104184D02*
X129145744Y-92238871D01*
X129145744Y-92238871D02*
X129145744Y-92346621D01*
X129145744Y-92346621D02*
X129118807Y-92427433D01*
X129630618Y-91592373D02*
X129684492Y-91538499D01*
X129684492Y-91538499D02*
X129765305Y-91511561D01*
X129765305Y-91511561D02*
X129819179Y-91511561D01*
X129819179Y-91511561D02*
X129899992Y-91538499D01*
X129899992Y-91538499D02*
X130034679Y-91619311D01*
X130034679Y-91619311D02*
X130169366Y-91753998D01*
X130169366Y-91753998D02*
X130250178Y-91888685D01*
X130250178Y-91888685D02*
X130277115Y-91969497D01*
X130277115Y-91969497D02*
X130277115Y-92023372D01*
X130277115Y-92023372D02*
X130250178Y-92104184D01*
X130250178Y-92104184D02*
X130196303Y-92158059D01*
X130196303Y-92158059D02*
X130115491Y-92184996D01*
X130115491Y-92184996D02*
X130061616Y-92184996D01*
X130061616Y-92184996D02*
X129980804Y-92158059D01*
X129980804Y-92158059D02*
X129846117Y-92077247D01*
X129846117Y-92077247D02*
X129711430Y-91942560D01*
X129711430Y-91942560D02*
X129630618Y-91807873D01*
X129630618Y-91807873D02*
X129603680Y-91727060D01*
X129603680Y-91727060D02*
X129603680Y-91673186D01*
X129603680Y-91673186D02*
X129630618Y-91592373D01*
X102916651Y-101003710D02*
X102458716Y-100922898D01*
X102593403Y-101326959D02*
X102027717Y-100761274D01*
X102027717Y-100761274D02*
X102243216Y-100545775D01*
X102243216Y-100545775D02*
X102324029Y-100518837D01*
X102324029Y-100518837D02*
X102377903Y-100518837D01*
X102377903Y-100518837D02*
X102458716Y-100545775D01*
X102458716Y-100545775D02*
X102539528Y-100626587D01*
X102539528Y-100626587D02*
X102566465Y-100707399D01*
X102566465Y-100707399D02*
X102566465Y-100761274D01*
X102566465Y-100761274D02*
X102539528Y-100842086D01*
X102539528Y-100842086D02*
X102324029Y-101057585D01*
X102593403Y-100195588D02*
X103051338Y-100653524D01*
X103051338Y-100653524D02*
X103132151Y-100680462D01*
X103132151Y-100680462D02*
X103186025Y-100680462D01*
X103186025Y-100680462D02*
X103266838Y-100653524D01*
X103266838Y-100653524D02*
X103374587Y-100545775D01*
X103374587Y-100545775D02*
X103401525Y-100464962D01*
X103401525Y-100464962D02*
X103401525Y-100411088D01*
X103401525Y-100411088D02*
X103374587Y-100330275D01*
X103374587Y-100330275D02*
X102916651Y-99872340D01*
X103751711Y-100168651D02*
X103186025Y-99602966D01*
X103186025Y-99602966D02*
X104074959Y-99845402D01*
X104074959Y-99845402D02*
X103509274Y-99279717D01*
X102067998Y-105790868D02*
X101987185Y-105817805D01*
X101987185Y-105817805D02*
X101906373Y-105898618D01*
X101906373Y-105898618D02*
X101852498Y-106006367D01*
X101852498Y-106006367D02*
X101852498Y-106114117D01*
X101852498Y-106114117D02*
X101879436Y-106194929D01*
X101879436Y-106194929D02*
X101960248Y-106329616D01*
X101960248Y-106329616D02*
X102041060Y-106410428D01*
X102041060Y-106410428D02*
X102175747Y-106491241D01*
X102175747Y-106491241D02*
X102256560Y-106518178D01*
X102256560Y-106518178D02*
X102364309Y-106518178D01*
X102364309Y-106518178D02*
X102472059Y-106464303D01*
X102472059Y-106464303D02*
X102525934Y-106410428D01*
X102525934Y-106410428D02*
X102579808Y-106302679D01*
X102579808Y-106302679D02*
X102579808Y-106248804D01*
X102579808Y-106248804D02*
X102391247Y-106060242D01*
X102391247Y-106060242D02*
X102283497Y-106167992D01*
X102876120Y-106060242D02*
X102310434Y-105494557D01*
X102310434Y-105494557D02*
X102525934Y-105279057D01*
X102525934Y-105279057D02*
X102606746Y-105252120D01*
X102606746Y-105252120D02*
X102660621Y-105252120D01*
X102660621Y-105252120D02*
X102741433Y-105279057D01*
X102741433Y-105279057D02*
X102822245Y-105359870D01*
X102822245Y-105359870D02*
X102849182Y-105440682D01*
X102849182Y-105440682D02*
X102849182Y-105494557D01*
X102849182Y-105494557D02*
X102822245Y-105575369D01*
X102822245Y-105575369D02*
X102606746Y-105790868D01*
X102903057Y-105009683D02*
X102903057Y-104955809D01*
X102903057Y-104955809D02*
X102929995Y-104874996D01*
X102929995Y-104874996D02*
X103064682Y-104740309D01*
X103064682Y-104740309D02*
X103145494Y-104713372D01*
X103145494Y-104713372D02*
X103199369Y-104713372D01*
X103199369Y-104713372D02*
X103280181Y-104740309D01*
X103280181Y-104740309D02*
X103334056Y-104794184D01*
X103334056Y-104794184D02*
X103387930Y-104901934D01*
X103387930Y-104901934D02*
X103387930Y-105548431D01*
X103387930Y-105548431D02*
X103738117Y-105198245D01*
X103360993Y-104443998D02*
X103738117Y-104066874D01*
X103738117Y-104066874D02*
X104061366Y-104874996D01*
X143767980Y-69076866D02*
X143815600Y-69124485D01*
X143815600Y-69124485D02*
X143863219Y-69267342D01*
X143863219Y-69267342D02*
X143863219Y-69362580D01*
X143863219Y-69362580D02*
X143815600Y-69505437D01*
X143815600Y-69505437D02*
X143720361Y-69600675D01*
X143720361Y-69600675D02*
X143625123Y-69648294D01*
X143625123Y-69648294D02*
X143434647Y-69695913D01*
X143434647Y-69695913D02*
X143291790Y-69695913D01*
X143291790Y-69695913D02*
X143101314Y-69648294D01*
X143101314Y-69648294D02*
X143006076Y-69600675D01*
X143006076Y-69600675D02*
X142910838Y-69505437D01*
X142910838Y-69505437D02*
X142863219Y-69362580D01*
X142863219Y-69362580D02*
X142863219Y-69267342D01*
X142863219Y-69267342D02*
X142910838Y-69124485D01*
X142910838Y-69124485D02*
X142958457Y-69076866D01*
X142863219Y-68743532D02*
X142863219Y-68076866D01*
X142863219Y-68076866D02*
X143863219Y-68505437D01*
X130200495Y-68111019D02*
X130200495Y-68920542D01*
X130200495Y-68920542D02*
X130248114Y-69015780D01*
X130248114Y-69015780D02*
X130295733Y-69063400D01*
X130295733Y-69063400D02*
X130390971Y-69111019D01*
X130390971Y-69111019D02*
X130581447Y-69111019D01*
X130581447Y-69111019D02*
X130676685Y-69063400D01*
X130676685Y-69063400D02*
X130724304Y-69015780D01*
X130724304Y-69015780D02*
X130771923Y-68920542D01*
X130771923Y-68920542D02*
X130771923Y-68111019D01*
X131724304Y-68111019D02*
X131248114Y-68111019D01*
X131248114Y-68111019D02*
X131200495Y-68587209D01*
X131200495Y-68587209D02*
X131248114Y-68539590D01*
X131248114Y-68539590D02*
X131343352Y-68491971D01*
X131343352Y-68491971D02*
X131581447Y-68491971D01*
X131581447Y-68491971D02*
X131676685Y-68539590D01*
X131676685Y-68539590D02*
X131724304Y-68587209D01*
X131724304Y-68587209D02*
X131771923Y-68682447D01*
X131771923Y-68682447D02*
X131771923Y-68920542D01*
X131771923Y-68920542D02*
X131724304Y-69015780D01*
X131724304Y-69015780D02*
X131676685Y-69063400D01*
X131676685Y-69063400D02*
X131581447Y-69111019D01*
X131581447Y-69111019D02*
X131343352Y-69111019D01*
X131343352Y-69111019D02*
X131248114Y-69063400D01*
X131248114Y-69063400D02*
X131200495Y-69015780D01*
X140321419Y-71772066D02*
X140321419Y-71105400D01*
X140321419Y-71105400D02*
X141321419Y-71533971D01*
X140654752Y-70295876D02*
X141321419Y-70295876D01*
X140273800Y-70533971D02*
X140988085Y-70772066D01*
X140988085Y-70772066D02*
X140988085Y-70153019D01*
X141321419Y-69772066D02*
X140321419Y-69772066D01*
X140797609Y-69772066D02*
X140797609Y-69200638D01*
X141321419Y-69200638D02*
X140321419Y-69200638D01*
X141226180Y-68153019D02*
X141273800Y-68200638D01*
X141273800Y-68200638D02*
X141321419Y-68343495D01*
X141321419Y-68343495D02*
X141321419Y-68438733D01*
X141321419Y-68438733D02*
X141273800Y-68581590D01*
X141273800Y-68581590D02*
X141178561Y-68676828D01*
X141178561Y-68676828D02*
X141083323Y-68724447D01*
X141083323Y-68724447D02*
X140892847Y-68772066D01*
X140892847Y-68772066D02*
X140749990Y-68772066D01*
X140749990Y-68772066D02*
X140559514Y-68724447D01*
X140559514Y-68724447D02*
X140464276Y-68676828D01*
X140464276Y-68676828D02*
X140369038Y-68581590D01*
X140369038Y-68581590D02*
X140321419Y-68438733D01*
X140321419Y-68438733D02*
X140321419Y-68343495D01*
X140321419Y-68343495D02*
X140369038Y-68200638D01*
X140369038Y-68200638D02*
X140416657Y-68153019D01*
X140321419Y-67867304D02*
X140321419Y-67295876D01*
X141321419Y-67581590D02*
X140321419Y-67581590D01*
X140321419Y-66772066D02*
X140321419Y-66676828D01*
X140321419Y-66676828D02*
X140369038Y-66581590D01*
X140369038Y-66581590D02*
X140416657Y-66533971D01*
X140416657Y-66533971D02*
X140511895Y-66486352D01*
X140511895Y-66486352D02*
X140702371Y-66438733D01*
X140702371Y-66438733D02*
X140940466Y-66438733D01*
X140940466Y-66438733D02*
X141130942Y-66486352D01*
X141130942Y-66486352D02*
X141226180Y-66533971D01*
X141226180Y-66533971D02*
X141273800Y-66581590D01*
X141273800Y-66581590D02*
X141321419Y-66676828D01*
X141321419Y-66676828D02*
X141321419Y-66772066D01*
X141321419Y-66772066D02*
X141273800Y-66867304D01*
X141273800Y-66867304D02*
X141226180Y-66914923D01*
X141226180Y-66914923D02*
X141130942Y-66962542D01*
X141130942Y-66962542D02*
X140940466Y-67010161D01*
X140940466Y-67010161D02*
X140702371Y-67010161D01*
X140702371Y-67010161D02*
X140511895Y-66962542D01*
X140511895Y-66962542D02*
X140416657Y-66914923D01*
X140416657Y-66914923D02*
X140369038Y-66867304D01*
X140369038Y-66867304D02*
X140321419Y-66772066D01*
X140321419Y-65819685D02*
X140321419Y-65724447D01*
X140321419Y-65724447D02*
X140369038Y-65629209D01*
X140369038Y-65629209D02*
X140416657Y-65581590D01*
X140416657Y-65581590D02*
X140511895Y-65533971D01*
X140511895Y-65533971D02*
X140702371Y-65486352D01*
X140702371Y-65486352D02*
X140940466Y-65486352D01*
X140940466Y-65486352D02*
X141130942Y-65533971D01*
X141130942Y-65533971D02*
X141226180Y-65581590D01*
X141226180Y-65581590D02*
X141273800Y-65629209D01*
X141273800Y-65629209D02*
X141321419Y-65724447D01*
X141321419Y-65724447D02*
X141321419Y-65819685D01*
X141321419Y-65819685D02*
X141273800Y-65914923D01*
X141273800Y-65914923D02*
X141226180Y-65962542D01*
X141226180Y-65962542D02*
X141130942Y-66010161D01*
X141130942Y-66010161D02*
X140940466Y-66057780D01*
X140940466Y-66057780D02*
X140702371Y-66057780D01*
X140702371Y-66057780D02*
X140511895Y-66010161D01*
X140511895Y-66010161D02*
X140416657Y-65962542D01*
X140416657Y-65962542D02*
X140369038Y-65914923D01*
X140369038Y-65914923D02*
X140321419Y-65819685D01*
X97228819Y-118949694D02*
X96228819Y-118949694D01*
X96228819Y-118949694D02*
X96228819Y-118711599D01*
X96228819Y-118711599D02*
X96276438Y-118568742D01*
X96276438Y-118568742D02*
X96371676Y-118473504D01*
X96371676Y-118473504D02*
X96466914Y-118425885D01*
X96466914Y-118425885D02*
X96657390Y-118378266D01*
X96657390Y-118378266D02*
X96800247Y-118378266D01*
X96800247Y-118378266D02*
X96990723Y-118425885D01*
X96990723Y-118425885D02*
X97085961Y-118473504D01*
X97085961Y-118473504D02*
X97181200Y-118568742D01*
X97181200Y-118568742D02*
X97228819Y-118711599D01*
X97228819Y-118711599D02*
X97228819Y-118949694D01*
X97228819Y-117425885D02*
X97228819Y-117997313D01*
X97228819Y-117711599D02*
X96228819Y-117711599D01*
X96228819Y-117711599D02*
X96371676Y-117806837D01*
X96371676Y-117806837D02*
X96466914Y-117902075D01*
X96466914Y-117902075D02*
X96514533Y-117997313D01*
X99698819Y-120354457D02*
X99698819Y-120925885D01*
X99698819Y-120640171D02*
X98698819Y-120640171D01*
X98698819Y-120640171D02*
X98841676Y-120735409D01*
X98841676Y-120735409D02*
X98936914Y-120830647D01*
X98936914Y-120830647D02*
X98984533Y-120925885D01*
X99698819Y-119925885D02*
X98698819Y-119925885D01*
X98698819Y-119925885D02*
X99698819Y-119354457D01*
X99698819Y-119354457D02*
X98698819Y-119354457D01*
X98698819Y-118402076D02*
X98698819Y-118878266D01*
X98698819Y-118878266D02*
X99175009Y-118925885D01*
X99175009Y-118925885D02*
X99127390Y-118878266D01*
X99127390Y-118878266D02*
X99079771Y-118783028D01*
X99079771Y-118783028D02*
X99079771Y-118544933D01*
X99079771Y-118544933D02*
X99127390Y-118449695D01*
X99127390Y-118449695D02*
X99175009Y-118402076D01*
X99175009Y-118402076D02*
X99270247Y-118354457D01*
X99270247Y-118354457D02*
X99508342Y-118354457D01*
X99508342Y-118354457D02*
X99603580Y-118402076D01*
X99603580Y-118402076D02*
X99651200Y-118449695D01*
X99651200Y-118449695D02*
X99698819Y-118544933D01*
X99698819Y-118544933D02*
X99698819Y-118783028D01*
X99698819Y-118783028D02*
X99651200Y-118878266D01*
X99651200Y-118878266D02*
X99603580Y-118925885D01*
X99127390Y-117783028D02*
X99079771Y-117878266D01*
X99079771Y-117878266D02*
X99032152Y-117925885D01*
X99032152Y-117925885D02*
X98936914Y-117973504D01*
X98936914Y-117973504D02*
X98889295Y-117973504D01*
X98889295Y-117973504D02*
X98794057Y-117925885D01*
X98794057Y-117925885D02*
X98746438Y-117878266D01*
X98746438Y-117878266D02*
X98698819Y-117783028D01*
X98698819Y-117783028D02*
X98698819Y-117592552D01*
X98698819Y-117592552D02*
X98746438Y-117497314D01*
X98746438Y-117497314D02*
X98794057Y-117449695D01*
X98794057Y-117449695D02*
X98889295Y-117402076D01*
X98889295Y-117402076D02*
X98936914Y-117402076D01*
X98936914Y-117402076D02*
X99032152Y-117449695D01*
X99032152Y-117449695D02*
X99079771Y-117497314D01*
X99079771Y-117497314D02*
X99127390Y-117592552D01*
X99127390Y-117592552D02*
X99127390Y-117783028D01*
X99127390Y-117783028D02*
X99175009Y-117878266D01*
X99175009Y-117878266D02*
X99222628Y-117925885D01*
X99222628Y-117925885D02*
X99317866Y-117973504D01*
X99317866Y-117973504D02*
X99508342Y-117973504D01*
X99508342Y-117973504D02*
X99603580Y-117925885D01*
X99603580Y-117925885D02*
X99651200Y-117878266D01*
X99651200Y-117878266D02*
X99698819Y-117783028D01*
X99698819Y-117783028D02*
X99698819Y-117592552D01*
X99698819Y-117592552D02*
X99651200Y-117497314D01*
X99651200Y-117497314D02*
X99603580Y-117449695D01*
X99603580Y-117449695D02*
X99508342Y-117402076D01*
X99508342Y-117402076D02*
X99317866Y-117402076D01*
X99317866Y-117402076D02*
X99222628Y-117449695D01*
X99222628Y-117449695D02*
X99175009Y-117497314D01*
X99175009Y-117497314D02*
X99127390Y-117592552D01*
X99698819Y-116449695D02*
X99698819Y-117021123D01*
X99698819Y-116735409D02*
X98698819Y-116735409D01*
X98698819Y-116735409D02*
X98841676Y-116830647D01*
X98841676Y-116830647D02*
X98936914Y-116925885D01*
X98936914Y-116925885D02*
X98984533Y-117021123D01*
X99698819Y-115973504D02*
X99698819Y-115783028D01*
X99698819Y-115783028D02*
X99651200Y-115687790D01*
X99651200Y-115687790D02*
X99603580Y-115640171D01*
X99603580Y-115640171D02*
X99460723Y-115544933D01*
X99460723Y-115544933D02*
X99270247Y-115497314D01*
X99270247Y-115497314D02*
X98889295Y-115497314D01*
X98889295Y-115497314D02*
X98794057Y-115544933D01*
X98794057Y-115544933D02*
X98746438Y-115592552D01*
X98746438Y-115592552D02*
X98698819Y-115687790D01*
X98698819Y-115687790D02*
X98698819Y-115878266D01*
X98698819Y-115878266D02*
X98746438Y-115973504D01*
X98746438Y-115973504D02*
X98794057Y-116021123D01*
X98794057Y-116021123D02*
X98889295Y-116068742D01*
X98889295Y-116068742D02*
X99127390Y-116068742D01*
X99127390Y-116068742D02*
X99222628Y-116021123D01*
X99222628Y-116021123D02*
X99270247Y-115973504D01*
X99270247Y-115973504D02*
X99317866Y-115878266D01*
X99317866Y-115878266D02*
X99317866Y-115687790D01*
X99317866Y-115687790D02*
X99270247Y-115592552D01*
X99270247Y-115592552D02*
X99222628Y-115544933D01*
X99222628Y-115544933D02*
X99127390Y-115497314D01*
X95128819Y-123553504D02*
X94128819Y-123553504D01*
X95128819Y-122982076D02*
X94557390Y-123410647D01*
X94128819Y-122982076D02*
X94700247Y-123553504D01*
X142294780Y-92978266D02*
X142342400Y-93025885D01*
X142342400Y-93025885D02*
X142390019Y-93168742D01*
X142390019Y-93168742D02*
X142390019Y-93263980D01*
X142390019Y-93263980D02*
X142342400Y-93406837D01*
X142342400Y-93406837D02*
X142247161Y-93502075D01*
X142247161Y-93502075D02*
X142151923Y-93549694D01*
X142151923Y-93549694D02*
X141961447Y-93597313D01*
X141961447Y-93597313D02*
X141818590Y-93597313D01*
X141818590Y-93597313D02*
X141628114Y-93549694D01*
X141628114Y-93549694D02*
X141532876Y-93502075D01*
X141532876Y-93502075D02*
X141437638Y-93406837D01*
X141437638Y-93406837D02*
X141390019Y-93263980D01*
X141390019Y-93263980D02*
X141390019Y-93168742D01*
X141390019Y-93168742D02*
X141437638Y-93025885D01*
X141437638Y-93025885D02*
X141485257Y-92978266D01*
X141723352Y-92121123D02*
X142390019Y-92121123D01*
X141342400Y-92359218D02*
X142056685Y-92597313D01*
X142056685Y-92597313D02*
X142056685Y-91978266D01*
X136427380Y-128995466D02*
X136475000Y-129043085D01*
X136475000Y-129043085D02*
X136522619Y-129185942D01*
X136522619Y-129185942D02*
X136522619Y-129281180D01*
X136522619Y-129281180D02*
X136475000Y-129424037D01*
X136475000Y-129424037D02*
X136379761Y-129519275D01*
X136379761Y-129519275D02*
X136284523Y-129566894D01*
X136284523Y-129566894D02*
X136094047Y-129614513D01*
X136094047Y-129614513D02*
X135951190Y-129614513D01*
X135951190Y-129614513D02*
X135760714Y-129566894D01*
X135760714Y-129566894D02*
X135665476Y-129519275D01*
X135665476Y-129519275D02*
X135570238Y-129424037D01*
X135570238Y-129424037D02*
X135522619Y-129281180D01*
X135522619Y-129281180D02*
X135522619Y-129185942D01*
X135522619Y-129185942D02*
X135570238Y-129043085D01*
X135570238Y-129043085D02*
X135617857Y-128995466D01*
X135522619Y-128662132D02*
X135522619Y-128043085D01*
X135522619Y-128043085D02*
X135903571Y-128376418D01*
X135903571Y-128376418D02*
X135903571Y-128233561D01*
X135903571Y-128233561D02*
X135951190Y-128138323D01*
X135951190Y-128138323D02*
X135998809Y-128090704D01*
X135998809Y-128090704D02*
X136094047Y-128043085D01*
X136094047Y-128043085D02*
X136332142Y-128043085D01*
X136332142Y-128043085D02*
X136427380Y-128090704D01*
X136427380Y-128090704D02*
X136475000Y-128138323D01*
X136475000Y-128138323D02*
X136522619Y-128233561D01*
X136522619Y-128233561D02*
X136522619Y-128519275D01*
X136522619Y-128519275D02*
X136475000Y-128614513D01*
X136475000Y-128614513D02*
X136427380Y-128662132D01*
X136554380Y-104967066D02*
X136602000Y-105014685D01*
X136602000Y-105014685D02*
X136649619Y-105157542D01*
X136649619Y-105157542D02*
X136649619Y-105252780D01*
X136649619Y-105252780D02*
X136602000Y-105395637D01*
X136602000Y-105395637D02*
X136506761Y-105490875D01*
X136506761Y-105490875D02*
X136411523Y-105538494D01*
X136411523Y-105538494D02*
X136221047Y-105586113D01*
X136221047Y-105586113D02*
X136078190Y-105586113D01*
X136078190Y-105586113D02*
X135887714Y-105538494D01*
X135887714Y-105538494D02*
X135792476Y-105490875D01*
X135792476Y-105490875D02*
X135697238Y-105395637D01*
X135697238Y-105395637D02*
X135649619Y-105252780D01*
X135649619Y-105252780D02*
X135649619Y-105157542D01*
X135649619Y-105157542D02*
X135697238Y-105014685D01*
X135697238Y-105014685D02*
X135744857Y-104967066D01*
X136649619Y-104014685D02*
X136649619Y-104586113D01*
X136649619Y-104300399D02*
X135649619Y-104300399D01*
X135649619Y-104300399D02*
X135792476Y-104395637D01*
X135792476Y-104395637D02*
X135887714Y-104490875D01*
X135887714Y-104490875D02*
X135935333Y-104586113D01*
X171573866Y-63793019D02*
X171573866Y-64507304D01*
X171573866Y-64507304D02*
X171526247Y-64650161D01*
X171526247Y-64650161D02*
X171431009Y-64745400D01*
X171431009Y-64745400D02*
X171288152Y-64793019D01*
X171288152Y-64793019D02*
X171192914Y-64793019D01*
X172573866Y-64793019D02*
X172002438Y-64793019D01*
X172288152Y-64793019D02*
X172288152Y-63793019D01*
X172288152Y-63793019D02*
X172192914Y-63935876D01*
X172192914Y-63935876D02*
X172097676Y-64031114D01*
X172097676Y-64031114D02*
X172002438Y-64078733D01*
X151739695Y-104204419D02*
X151739695Y-105013942D01*
X151739695Y-105013942D02*
X151787314Y-105109180D01*
X151787314Y-105109180D02*
X151834933Y-105156800D01*
X151834933Y-105156800D02*
X151930171Y-105204419D01*
X151930171Y-105204419D02*
X152120647Y-105204419D01*
X152120647Y-105204419D02*
X152215885Y-105156800D01*
X152215885Y-105156800D02*
X152263504Y-105109180D01*
X152263504Y-105109180D02*
X152311123Y-105013942D01*
X152311123Y-105013942D02*
X152311123Y-104204419D01*
X153215885Y-104537752D02*
X153215885Y-105204419D01*
X152977790Y-104156800D02*
X152739695Y-104871085D01*
X152739695Y-104871085D02*
X153358742Y-104871085D01*
X165665619Y-108420428D02*
X165665619Y-107753762D01*
X165665619Y-107753762D02*
X166665619Y-108182333D01*
X165998952Y-106944238D02*
X166665619Y-106944238D01*
X165618000Y-107182333D02*
X166332285Y-107420428D01*
X166332285Y-107420428D02*
X166332285Y-106801381D01*
X166665619Y-105944238D02*
X166665619Y-106420428D01*
X166665619Y-106420428D02*
X165665619Y-106420428D01*
X165665619Y-105753761D02*
X166665619Y-105420428D01*
X166665619Y-105420428D02*
X165665619Y-105087095D01*
X166570380Y-104182333D02*
X166618000Y-104229952D01*
X166618000Y-104229952D02*
X166665619Y-104372809D01*
X166665619Y-104372809D02*
X166665619Y-104468047D01*
X166665619Y-104468047D02*
X166618000Y-104610904D01*
X166618000Y-104610904D02*
X166522761Y-104706142D01*
X166522761Y-104706142D02*
X166427523Y-104753761D01*
X166427523Y-104753761D02*
X166237047Y-104801380D01*
X166237047Y-104801380D02*
X166094190Y-104801380D01*
X166094190Y-104801380D02*
X165903714Y-104753761D01*
X165903714Y-104753761D02*
X165808476Y-104706142D01*
X165808476Y-104706142D02*
X165713238Y-104610904D01*
X165713238Y-104610904D02*
X165665619Y-104468047D01*
X165665619Y-104468047D02*
X165665619Y-104372809D01*
X165665619Y-104372809D02*
X165713238Y-104229952D01*
X165713238Y-104229952D02*
X165760857Y-104182333D01*
X165760857Y-103801380D02*
X165713238Y-103753761D01*
X165713238Y-103753761D02*
X165665619Y-103658523D01*
X165665619Y-103658523D02*
X165665619Y-103420428D01*
X165665619Y-103420428D02*
X165713238Y-103325190D01*
X165713238Y-103325190D02*
X165760857Y-103277571D01*
X165760857Y-103277571D02*
X165856095Y-103229952D01*
X165856095Y-103229952D02*
X165951333Y-103229952D01*
X165951333Y-103229952D02*
X166094190Y-103277571D01*
X166094190Y-103277571D02*
X166665619Y-103848999D01*
X166665619Y-103848999D02*
X166665619Y-103229952D01*
X165998952Y-102372809D02*
X166665619Y-102372809D01*
X165618000Y-102610904D02*
X166332285Y-102848999D01*
X166332285Y-102848999D02*
X166332285Y-102229952D01*
X165665619Y-101372809D02*
X165665619Y-101848999D01*
X165665619Y-101848999D02*
X166141809Y-101896618D01*
X166141809Y-101896618D02*
X166094190Y-101848999D01*
X166094190Y-101848999D02*
X166046571Y-101753761D01*
X166046571Y-101753761D02*
X166046571Y-101515666D01*
X166046571Y-101515666D02*
X166094190Y-101420428D01*
X166094190Y-101420428D02*
X166141809Y-101372809D01*
X166141809Y-101372809D02*
X166237047Y-101325190D01*
X166237047Y-101325190D02*
X166475142Y-101325190D01*
X166475142Y-101325190D02*
X166570380Y-101372809D01*
X166570380Y-101372809D02*
X166618000Y-101420428D01*
X166618000Y-101420428D02*
X166665619Y-101515666D01*
X166665619Y-101515666D02*
X166665619Y-101753761D01*
X166665619Y-101753761D02*
X166618000Y-101848999D01*
X166618000Y-101848999D02*
X166570380Y-101896618D01*
X142294780Y-80887866D02*
X142342400Y-80935485D01*
X142342400Y-80935485D02*
X142390019Y-81078342D01*
X142390019Y-81078342D02*
X142390019Y-81173580D01*
X142390019Y-81173580D02*
X142342400Y-81316437D01*
X142342400Y-81316437D02*
X142247161Y-81411675D01*
X142247161Y-81411675D02*
X142151923Y-81459294D01*
X142151923Y-81459294D02*
X141961447Y-81506913D01*
X141961447Y-81506913D02*
X141818590Y-81506913D01*
X141818590Y-81506913D02*
X141628114Y-81459294D01*
X141628114Y-81459294D02*
X141532876Y-81411675D01*
X141532876Y-81411675D02*
X141437638Y-81316437D01*
X141437638Y-81316437D02*
X141390019Y-81173580D01*
X141390019Y-81173580D02*
X141390019Y-81078342D01*
X141390019Y-81078342D02*
X141437638Y-80935485D01*
X141437638Y-80935485D02*
X141485257Y-80887866D01*
X141390019Y-80030723D02*
X141390019Y-80221199D01*
X141390019Y-80221199D02*
X141437638Y-80316437D01*
X141437638Y-80316437D02*
X141485257Y-80364056D01*
X141485257Y-80364056D02*
X141628114Y-80459294D01*
X141628114Y-80459294D02*
X141818590Y-80506913D01*
X141818590Y-80506913D02*
X142199542Y-80506913D01*
X142199542Y-80506913D02*
X142294780Y-80459294D01*
X142294780Y-80459294D02*
X142342400Y-80411675D01*
X142342400Y-80411675D02*
X142390019Y-80316437D01*
X142390019Y-80316437D02*
X142390019Y-80125961D01*
X142390019Y-80125961D02*
X142342400Y-80030723D01*
X142342400Y-80030723D02*
X142294780Y-79983104D01*
X142294780Y-79983104D02*
X142199542Y-79935485D01*
X142199542Y-79935485D02*
X141961447Y-79935485D01*
X141961447Y-79935485D02*
X141866209Y-79983104D01*
X141866209Y-79983104D02*
X141818590Y-80030723D01*
X141818590Y-80030723D02*
X141770971Y-80125961D01*
X141770971Y-80125961D02*
X141770971Y-80316437D01*
X141770971Y-80316437D02*
X141818590Y-80411675D01*
X141818590Y-80411675D02*
X141866209Y-80459294D01*
X141866209Y-80459294D02*
X141961447Y-80506913D01*
X151739695Y-128182019D02*
X151739695Y-128991542D01*
X151739695Y-128991542D02*
X151787314Y-129086780D01*
X151787314Y-129086780D02*
X151834933Y-129134400D01*
X151834933Y-129134400D02*
X151930171Y-129182019D01*
X151930171Y-129182019D02*
X152120647Y-129182019D01*
X152120647Y-129182019D02*
X152215885Y-129134400D01*
X152215885Y-129134400D02*
X152263504Y-129086780D01*
X152263504Y-129086780D02*
X152311123Y-128991542D01*
X152311123Y-128991542D02*
X152311123Y-128182019D01*
X152692076Y-128182019D02*
X153311123Y-128182019D01*
X153311123Y-128182019D02*
X152977790Y-128562971D01*
X152977790Y-128562971D02*
X153120647Y-128562971D01*
X153120647Y-128562971D02*
X153215885Y-128610590D01*
X153215885Y-128610590D02*
X153263504Y-128658209D01*
X153263504Y-128658209D02*
X153311123Y-128753447D01*
X153311123Y-128753447D02*
X153311123Y-128991542D01*
X153311123Y-128991542D02*
X153263504Y-129086780D01*
X153263504Y-129086780D02*
X153215885Y-129134400D01*
X153215885Y-129134400D02*
X153120647Y-129182019D01*
X153120647Y-129182019D02*
X152834933Y-129182019D01*
X152834933Y-129182019D02*
X152739695Y-129134400D01*
X152739695Y-129134400D02*
X152692076Y-129086780D01*
X165614819Y-132197028D02*
X165614819Y-131530362D01*
X165614819Y-131530362D02*
X166614819Y-131958933D01*
X165948152Y-130720838D02*
X166614819Y-130720838D01*
X165567200Y-130958933D02*
X166281485Y-131197028D01*
X166281485Y-131197028D02*
X166281485Y-130577981D01*
X166614819Y-129720838D02*
X166614819Y-130197028D01*
X166614819Y-130197028D02*
X165614819Y-130197028D01*
X165614819Y-129530361D02*
X166614819Y-129197028D01*
X166614819Y-129197028D02*
X165614819Y-128863695D01*
X166519580Y-127958933D02*
X166567200Y-128006552D01*
X166567200Y-128006552D02*
X166614819Y-128149409D01*
X166614819Y-128149409D02*
X166614819Y-128244647D01*
X166614819Y-128244647D02*
X166567200Y-128387504D01*
X166567200Y-128387504D02*
X166471961Y-128482742D01*
X166471961Y-128482742D02*
X166376723Y-128530361D01*
X166376723Y-128530361D02*
X166186247Y-128577980D01*
X166186247Y-128577980D02*
X166043390Y-128577980D01*
X166043390Y-128577980D02*
X165852914Y-128530361D01*
X165852914Y-128530361D02*
X165757676Y-128482742D01*
X165757676Y-128482742D02*
X165662438Y-128387504D01*
X165662438Y-128387504D02*
X165614819Y-128244647D01*
X165614819Y-128244647D02*
X165614819Y-128149409D01*
X165614819Y-128149409D02*
X165662438Y-128006552D01*
X165662438Y-128006552D02*
X165710057Y-127958933D01*
X165710057Y-127577980D02*
X165662438Y-127530361D01*
X165662438Y-127530361D02*
X165614819Y-127435123D01*
X165614819Y-127435123D02*
X165614819Y-127197028D01*
X165614819Y-127197028D02*
X165662438Y-127101790D01*
X165662438Y-127101790D02*
X165710057Y-127054171D01*
X165710057Y-127054171D02*
X165805295Y-127006552D01*
X165805295Y-127006552D02*
X165900533Y-127006552D01*
X165900533Y-127006552D02*
X166043390Y-127054171D01*
X166043390Y-127054171D02*
X166614819Y-127625599D01*
X166614819Y-127625599D02*
X166614819Y-127006552D01*
X165948152Y-126149409D02*
X166614819Y-126149409D01*
X165567200Y-126387504D02*
X166281485Y-126625599D01*
X166281485Y-126625599D02*
X166281485Y-126006552D01*
X165614819Y-125149409D02*
X165614819Y-125625599D01*
X165614819Y-125625599D02*
X166091009Y-125673218D01*
X166091009Y-125673218D02*
X166043390Y-125625599D01*
X166043390Y-125625599D02*
X165995771Y-125530361D01*
X165995771Y-125530361D02*
X165995771Y-125292266D01*
X165995771Y-125292266D02*
X166043390Y-125197028D01*
X166043390Y-125197028D02*
X166091009Y-125149409D01*
X166091009Y-125149409D02*
X166186247Y-125101790D01*
X166186247Y-125101790D02*
X166424342Y-125101790D01*
X166424342Y-125101790D02*
X166519580Y-125149409D01*
X166519580Y-125149409D02*
X166567200Y-125197028D01*
X166567200Y-125197028D02*
X166614819Y-125292266D01*
X166614819Y-125292266D02*
X166614819Y-125530361D01*
X166614819Y-125530361D02*
X166567200Y-125625599D01*
X166567200Y-125625599D02*
X166519580Y-125673218D01*
X118799780Y-68467266D02*
X118847400Y-68514885D01*
X118847400Y-68514885D02*
X118895019Y-68657742D01*
X118895019Y-68657742D02*
X118895019Y-68752980D01*
X118895019Y-68752980D02*
X118847400Y-68895837D01*
X118847400Y-68895837D02*
X118752161Y-68991075D01*
X118752161Y-68991075D02*
X118656923Y-69038694D01*
X118656923Y-69038694D02*
X118466447Y-69086313D01*
X118466447Y-69086313D02*
X118323590Y-69086313D01*
X118323590Y-69086313D02*
X118133114Y-69038694D01*
X118133114Y-69038694D02*
X118037876Y-68991075D01*
X118037876Y-68991075D02*
X117942638Y-68895837D01*
X117942638Y-68895837D02*
X117895019Y-68752980D01*
X117895019Y-68752980D02*
X117895019Y-68657742D01*
X117895019Y-68657742D02*
X117942638Y-68514885D01*
X117942638Y-68514885D02*
X117990257Y-68467266D01*
X117895019Y-67562504D02*
X117895019Y-68038694D01*
X117895019Y-68038694D02*
X118371209Y-68086313D01*
X118371209Y-68086313D02*
X118323590Y-68038694D01*
X118323590Y-68038694D02*
X118275971Y-67943456D01*
X118275971Y-67943456D02*
X118275971Y-67705361D01*
X118275971Y-67705361D02*
X118323590Y-67610123D01*
X118323590Y-67610123D02*
X118371209Y-67562504D01*
X118371209Y-67562504D02*
X118466447Y-67514885D01*
X118466447Y-67514885D02*
X118704542Y-67514885D01*
X118704542Y-67514885D02*
X118799780Y-67562504D01*
X118799780Y-67562504D02*
X118847400Y-67610123D01*
X118847400Y-67610123D02*
X118895019Y-67705361D01*
X118895019Y-67705361D02*
X118895019Y-67943456D01*
X118895019Y-67943456D02*
X118847400Y-68038694D01*
X118847400Y-68038694D02*
X118799780Y-68086313D01*
X153924095Y-80252219D02*
X153924095Y-81061742D01*
X153924095Y-81061742D02*
X153971714Y-81156980D01*
X153971714Y-81156980D02*
X154019333Y-81204600D01*
X154019333Y-81204600D02*
X154114571Y-81252219D01*
X154114571Y-81252219D02*
X154305047Y-81252219D01*
X154305047Y-81252219D02*
X154400285Y-81204600D01*
X154400285Y-81204600D02*
X154447904Y-81156980D01*
X154447904Y-81156980D02*
X154495523Y-81061742D01*
X154495523Y-81061742D02*
X154495523Y-80252219D01*
X155400285Y-80252219D02*
X155209809Y-80252219D01*
X155209809Y-80252219D02*
X155114571Y-80299838D01*
X155114571Y-80299838D02*
X155066952Y-80347457D01*
X155066952Y-80347457D02*
X154971714Y-80490314D01*
X154971714Y-80490314D02*
X154924095Y-80680790D01*
X154924095Y-80680790D02*
X154924095Y-81061742D01*
X154924095Y-81061742D02*
X154971714Y-81156980D01*
X154971714Y-81156980D02*
X155019333Y-81204600D01*
X155019333Y-81204600D02*
X155114571Y-81252219D01*
X155114571Y-81252219D02*
X155305047Y-81252219D01*
X155305047Y-81252219D02*
X155400285Y-81204600D01*
X155400285Y-81204600D02*
X155447904Y-81156980D01*
X155447904Y-81156980D02*
X155495523Y-81061742D01*
X155495523Y-81061742D02*
X155495523Y-80823647D01*
X155495523Y-80823647D02*
X155447904Y-80728409D01*
X155447904Y-80728409D02*
X155400285Y-80680790D01*
X155400285Y-80680790D02*
X155305047Y-80633171D01*
X155305047Y-80633171D02*
X155114571Y-80633171D01*
X155114571Y-80633171D02*
X155019333Y-80680790D01*
X155019333Y-80680790D02*
X154971714Y-80728409D01*
X154971714Y-80728409D02*
X154924095Y-80823647D01*
X165386219Y-84505156D02*
X165386219Y-83838490D01*
X165386219Y-83838490D02*
X166386219Y-84267061D01*
X165719552Y-83028966D02*
X166386219Y-83028966D01*
X165338600Y-83267061D02*
X166052885Y-83505156D01*
X166052885Y-83505156D02*
X166052885Y-82886109D01*
X166386219Y-82505156D02*
X165386219Y-82505156D01*
X165862409Y-82505156D02*
X165862409Y-81933728D01*
X166386219Y-81933728D02*
X165386219Y-81933728D01*
X166290980Y-80886109D02*
X166338600Y-80933728D01*
X166338600Y-80933728D02*
X166386219Y-81076585D01*
X166386219Y-81076585D02*
X166386219Y-81171823D01*
X166386219Y-81171823D02*
X166338600Y-81314680D01*
X166338600Y-81314680D02*
X166243361Y-81409918D01*
X166243361Y-81409918D02*
X166148123Y-81457537D01*
X166148123Y-81457537D02*
X165957647Y-81505156D01*
X165957647Y-81505156D02*
X165814790Y-81505156D01*
X165814790Y-81505156D02*
X165624314Y-81457537D01*
X165624314Y-81457537D02*
X165529076Y-81409918D01*
X165529076Y-81409918D02*
X165433838Y-81314680D01*
X165433838Y-81314680D02*
X165386219Y-81171823D01*
X165386219Y-81171823D02*
X165386219Y-81076585D01*
X165386219Y-81076585D02*
X165433838Y-80933728D01*
X165433838Y-80933728D02*
X165481457Y-80886109D01*
X165386219Y-80600394D02*
X165386219Y-80028966D01*
X166386219Y-80314680D02*
X165386219Y-80314680D01*
X166386219Y-79171823D02*
X166386219Y-79743251D01*
X166386219Y-79457537D02*
X165386219Y-79457537D01*
X165386219Y-79457537D02*
X165529076Y-79552775D01*
X165529076Y-79552775D02*
X165624314Y-79648013D01*
X165624314Y-79648013D02*
X165671933Y-79743251D01*
X165386219Y-78838489D02*
X165386219Y-78219442D01*
X165386219Y-78219442D02*
X165767171Y-78552775D01*
X165767171Y-78552775D02*
X165767171Y-78409918D01*
X165767171Y-78409918D02*
X165814790Y-78314680D01*
X165814790Y-78314680D02*
X165862409Y-78267061D01*
X165862409Y-78267061D02*
X165957647Y-78219442D01*
X165957647Y-78219442D02*
X166195742Y-78219442D01*
X166195742Y-78219442D02*
X166290980Y-78267061D01*
X166290980Y-78267061D02*
X166338600Y-78314680D01*
X166338600Y-78314680D02*
X166386219Y-78409918D01*
X166386219Y-78409918D02*
X166386219Y-78695632D01*
X166386219Y-78695632D02*
X166338600Y-78790870D01*
X166338600Y-78790870D02*
X166290980Y-78838489D01*
X165814790Y-77648013D02*
X165767171Y-77743251D01*
X165767171Y-77743251D02*
X165719552Y-77790870D01*
X165719552Y-77790870D02*
X165624314Y-77838489D01*
X165624314Y-77838489D02*
X165576695Y-77838489D01*
X165576695Y-77838489D02*
X165481457Y-77790870D01*
X165481457Y-77790870D02*
X165433838Y-77743251D01*
X165433838Y-77743251D02*
X165386219Y-77648013D01*
X165386219Y-77648013D02*
X165386219Y-77457537D01*
X165386219Y-77457537D02*
X165433838Y-77362299D01*
X165433838Y-77362299D02*
X165481457Y-77314680D01*
X165481457Y-77314680D02*
X165576695Y-77267061D01*
X165576695Y-77267061D02*
X165624314Y-77267061D01*
X165624314Y-77267061D02*
X165719552Y-77314680D01*
X165719552Y-77314680D02*
X165767171Y-77362299D01*
X165767171Y-77362299D02*
X165814790Y-77457537D01*
X165814790Y-77457537D02*
X165814790Y-77648013D01*
X165814790Y-77648013D02*
X165862409Y-77743251D01*
X165862409Y-77743251D02*
X165910028Y-77790870D01*
X165910028Y-77790870D02*
X166005266Y-77838489D01*
X166005266Y-77838489D02*
X166195742Y-77838489D01*
X166195742Y-77838489D02*
X166290980Y-77790870D01*
X166290980Y-77790870D02*
X166338600Y-77743251D01*
X166338600Y-77743251D02*
X166386219Y-77648013D01*
X166386219Y-77648013D02*
X166386219Y-77457537D01*
X166386219Y-77457537D02*
X166338600Y-77362299D01*
X166338600Y-77362299D02*
X166290980Y-77314680D01*
X166290980Y-77314680D02*
X166195742Y-77267061D01*
X166195742Y-77267061D02*
X166005266Y-77267061D01*
X166005266Y-77267061D02*
X165910028Y-77314680D01*
X165910028Y-77314680D02*
X165862409Y-77362299D01*
X165862409Y-77362299D02*
X165814790Y-77457537D01*
X154838495Y-68034819D02*
X154838495Y-68844342D01*
X154838495Y-68844342D02*
X154886114Y-68939580D01*
X154886114Y-68939580D02*
X154933733Y-68987200D01*
X154933733Y-68987200D02*
X155028971Y-69034819D01*
X155028971Y-69034819D02*
X155219447Y-69034819D01*
X155219447Y-69034819D02*
X155314685Y-68987200D01*
X155314685Y-68987200D02*
X155362304Y-68939580D01*
X155362304Y-68939580D02*
X155409923Y-68844342D01*
X155409923Y-68844342D02*
X155409923Y-68034819D01*
X155790876Y-68034819D02*
X156457542Y-68034819D01*
X156457542Y-68034819D02*
X156028971Y-69034819D01*
X165056019Y-71772066D02*
X165056019Y-71105400D01*
X165056019Y-71105400D02*
X166056019Y-71533971D01*
X165389352Y-70295876D02*
X166056019Y-70295876D01*
X165008400Y-70533971D02*
X165722685Y-70772066D01*
X165722685Y-70772066D02*
X165722685Y-70153019D01*
X166056019Y-69772066D02*
X165056019Y-69772066D01*
X165532209Y-69772066D02*
X165532209Y-69200638D01*
X166056019Y-69200638D02*
X165056019Y-69200638D01*
X165960780Y-68153019D02*
X166008400Y-68200638D01*
X166008400Y-68200638D02*
X166056019Y-68343495D01*
X166056019Y-68343495D02*
X166056019Y-68438733D01*
X166056019Y-68438733D02*
X166008400Y-68581590D01*
X166008400Y-68581590D02*
X165913161Y-68676828D01*
X165913161Y-68676828D02*
X165817923Y-68724447D01*
X165817923Y-68724447D02*
X165627447Y-68772066D01*
X165627447Y-68772066D02*
X165484590Y-68772066D01*
X165484590Y-68772066D02*
X165294114Y-68724447D01*
X165294114Y-68724447D02*
X165198876Y-68676828D01*
X165198876Y-68676828D02*
X165103638Y-68581590D01*
X165103638Y-68581590D02*
X165056019Y-68438733D01*
X165056019Y-68438733D02*
X165056019Y-68343495D01*
X165056019Y-68343495D02*
X165103638Y-68200638D01*
X165103638Y-68200638D02*
X165151257Y-68153019D01*
X165056019Y-67867304D02*
X165056019Y-67295876D01*
X166056019Y-67581590D02*
X165056019Y-67581590D01*
X165056019Y-67057780D02*
X165056019Y-66438733D01*
X165056019Y-66438733D02*
X165436971Y-66772066D01*
X165436971Y-66772066D02*
X165436971Y-66629209D01*
X165436971Y-66629209D02*
X165484590Y-66533971D01*
X165484590Y-66533971D02*
X165532209Y-66486352D01*
X165532209Y-66486352D02*
X165627447Y-66438733D01*
X165627447Y-66438733D02*
X165865542Y-66438733D01*
X165865542Y-66438733D02*
X165960780Y-66486352D01*
X165960780Y-66486352D02*
X166008400Y-66533971D01*
X166008400Y-66533971D02*
X166056019Y-66629209D01*
X166056019Y-66629209D02*
X166056019Y-66914923D01*
X166056019Y-66914923D02*
X166008400Y-67010161D01*
X166008400Y-67010161D02*
X165960780Y-67057780D01*
X165151257Y-66057780D02*
X165103638Y-66010161D01*
X165103638Y-66010161D02*
X165056019Y-65914923D01*
X165056019Y-65914923D02*
X165056019Y-65676828D01*
X165056019Y-65676828D02*
X165103638Y-65581590D01*
X165103638Y-65581590D02*
X165151257Y-65533971D01*
X165151257Y-65533971D02*
X165246495Y-65486352D01*
X165246495Y-65486352D02*
X165341733Y-65486352D01*
X165341733Y-65486352D02*
X165484590Y-65533971D01*
X165484590Y-65533971D02*
X166056019Y-66105399D01*
X166056019Y-66105399D02*
X166056019Y-65486352D01*
X135480466Y-75357619D02*
X135480466Y-76071904D01*
X135480466Y-76071904D02*
X135432847Y-76214761D01*
X135432847Y-76214761D02*
X135337609Y-76310000D01*
X135337609Y-76310000D02*
X135194752Y-76357619D01*
X135194752Y-76357619D02*
X135099514Y-76357619D01*
X135909038Y-75452857D02*
X135956657Y-75405238D01*
X135956657Y-75405238D02*
X136051895Y-75357619D01*
X136051895Y-75357619D02*
X136289990Y-75357619D01*
X136289990Y-75357619D02*
X136385228Y-75405238D01*
X136385228Y-75405238D02*
X136432847Y-75452857D01*
X136432847Y-75452857D02*
X136480466Y-75548095D01*
X136480466Y-75548095D02*
X136480466Y-75643333D01*
X136480466Y-75643333D02*
X136432847Y-75786190D01*
X136432847Y-75786190D02*
X135861419Y-76357619D01*
X135861419Y-76357619D02*
X136480466Y-76357619D01*
X136503580Y-116854266D02*
X136551200Y-116901885D01*
X136551200Y-116901885D02*
X136598819Y-117044742D01*
X136598819Y-117044742D02*
X136598819Y-117139980D01*
X136598819Y-117139980D02*
X136551200Y-117282837D01*
X136551200Y-117282837D02*
X136455961Y-117378075D01*
X136455961Y-117378075D02*
X136360723Y-117425694D01*
X136360723Y-117425694D02*
X136170247Y-117473313D01*
X136170247Y-117473313D02*
X136027390Y-117473313D01*
X136027390Y-117473313D02*
X135836914Y-117425694D01*
X135836914Y-117425694D02*
X135741676Y-117378075D01*
X135741676Y-117378075D02*
X135646438Y-117282837D01*
X135646438Y-117282837D02*
X135598819Y-117139980D01*
X135598819Y-117139980D02*
X135598819Y-117044742D01*
X135598819Y-117044742D02*
X135646438Y-116901885D01*
X135646438Y-116901885D02*
X135694057Y-116854266D01*
X135694057Y-116473313D02*
X135646438Y-116425694D01*
X135646438Y-116425694D02*
X135598819Y-116330456D01*
X135598819Y-116330456D02*
X135598819Y-116092361D01*
X135598819Y-116092361D02*
X135646438Y-115997123D01*
X135646438Y-115997123D02*
X135694057Y-115949504D01*
X135694057Y-115949504D02*
X135789295Y-115901885D01*
X135789295Y-115901885D02*
X135884533Y-115901885D01*
X135884533Y-115901885D02*
X136027390Y-115949504D01*
X136027390Y-115949504D02*
X136598819Y-116520932D01*
X136598819Y-116520932D02*
X136598819Y-115901885D01*
X135480466Y-84933419D02*
X135480466Y-85647704D01*
X135480466Y-85647704D02*
X135432847Y-85790561D01*
X135432847Y-85790561D02*
X135337609Y-85885800D01*
X135337609Y-85885800D02*
X135194752Y-85933419D01*
X135194752Y-85933419D02*
X135099514Y-85933419D01*
X135861419Y-84933419D02*
X136480466Y-84933419D01*
X136480466Y-84933419D02*
X136147133Y-85314371D01*
X136147133Y-85314371D02*
X136289990Y-85314371D01*
X136289990Y-85314371D02*
X136385228Y-85361990D01*
X136385228Y-85361990D02*
X136432847Y-85409609D01*
X136432847Y-85409609D02*
X136480466Y-85504847D01*
X136480466Y-85504847D02*
X136480466Y-85742942D01*
X136480466Y-85742942D02*
X136432847Y-85838180D01*
X136432847Y-85838180D02*
X136385228Y-85885800D01*
X136385228Y-85885800D02*
X136289990Y-85933419D01*
X136289990Y-85933419D02*
X136004276Y-85933419D01*
X136004276Y-85933419D02*
X135909038Y-85885800D01*
X135909038Y-85885800D02*
X135861419Y-85838180D01*
X151688895Y-116167819D02*
X151688895Y-116977342D01*
X151688895Y-116977342D02*
X151736514Y-117072580D01*
X151736514Y-117072580D02*
X151784133Y-117120200D01*
X151784133Y-117120200D02*
X151879371Y-117167819D01*
X151879371Y-117167819D02*
X152069847Y-117167819D01*
X152069847Y-117167819D02*
X152165085Y-117120200D01*
X152165085Y-117120200D02*
X152212704Y-117072580D01*
X152212704Y-117072580D02*
X152260323Y-116977342D01*
X152260323Y-116977342D02*
X152260323Y-116167819D01*
X152688895Y-116263057D02*
X152736514Y-116215438D01*
X152736514Y-116215438D02*
X152831752Y-116167819D01*
X152831752Y-116167819D02*
X153069847Y-116167819D01*
X153069847Y-116167819D02*
X153165085Y-116215438D01*
X153165085Y-116215438D02*
X153212704Y-116263057D01*
X153212704Y-116263057D02*
X153260323Y-116358295D01*
X153260323Y-116358295D02*
X153260323Y-116453533D01*
X153260323Y-116453533D02*
X153212704Y-116596390D01*
X153212704Y-116596390D02*
X152641276Y-117167819D01*
X152641276Y-117167819D02*
X153260323Y-117167819D01*
X165614819Y-120308728D02*
X165614819Y-119642062D01*
X165614819Y-119642062D02*
X166614819Y-120070633D01*
X165948152Y-118832538D02*
X166614819Y-118832538D01*
X165567200Y-119070633D02*
X166281485Y-119308728D01*
X166281485Y-119308728D02*
X166281485Y-118689681D01*
X166614819Y-117832538D02*
X166614819Y-118308728D01*
X166614819Y-118308728D02*
X165614819Y-118308728D01*
X165614819Y-117642061D02*
X166614819Y-117308728D01*
X166614819Y-117308728D02*
X165614819Y-116975395D01*
X166519580Y-116070633D02*
X166567200Y-116118252D01*
X166567200Y-116118252D02*
X166614819Y-116261109D01*
X166614819Y-116261109D02*
X166614819Y-116356347D01*
X166614819Y-116356347D02*
X166567200Y-116499204D01*
X166567200Y-116499204D02*
X166471961Y-116594442D01*
X166471961Y-116594442D02*
X166376723Y-116642061D01*
X166376723Y-116642061D02*
X166186247Y-116689680D01*
X166186247Y-116689680D02*
X166043390Y-116689680D01*
X166043390Y-116689680D02*
X165852914Y-116642061D01*
X165852914Y-116642061D02*
X165757676Y-116594442D01*
X165757676Y-116594442D02*
X165662438Y-116499204D01*
X165662438Y-116499204D02*
X165614819Y-116356347D01*
X165614819Y-116356347D02*
X165614819Y-116261109D01*
X165614819Y-116261109D02*
X165662438Y-116118252D01*
X165662438Y-116118252D02*
X165710057Y-116070633D01*
X165710057Y-115689680D02*
X165662438Y-115642061D01*
X165662438Y-115642061D02*
X165614819Y-115546823D01*
X165614819Y-115546823D02*
X165614819Y-115308728D01*
X165614819Y-115308728D02*
X165662438Y-115213490D01*
X165662438Y-115213490D02*
X165710057Y-115165871D01*
X165710057Y-115165871D02*
X165805295Y-115118252D01*
X165805295Y-115118252D02*
X165900533Y-115118252D01*
X165900533Y-115118252D02*
X166043390Y-115165871D01*
X166043390Y-115165871D02*
X166614819Y-115737299D01*
X166614819Y-115737299D02*
X166614819Y-115118252D01*
X165948152Y-114261109D02*
X166614819Y-114261109D01*
X165567200Y-114499204D02*
X166281485Y-114737299D01*
X166281485Y-114737299D02*
X166281485Y-114118252D01*
X165614819Y-113261109D02*
X165614819Y-113737299D01*
X165614819Y-113737299D02*
X166091009Y-113784918D01*
X166091009Y-113784918D02*
X166043390Y-113737299D01*
X166043390Y-113737299D02*
X165995771Y-113642061D01*
X165995771Y-113642061D02*
X165995771Y-113403966D01*
X165995771Y-113403966D02*
X166043390Y-113308728D01*
X166043390Y-113308728D02*
X166091009Y-113261109D01*
X166091009Y-113261109D02*
X166186247Y-113213490D01*
X166186247Y-113213490D02*
X166424342Y-113213490D01*
X166424342Y-113213490D02*
X166519580Y-113261109D01*
X166519580Y-113261109D02*
X166567200Y-113308728D01*
X166567200Y-113308728D02*
X166614819Y-113403966D01*
X166614819Y-113403966D02*
X166614819Y-113642061D01*
X166614819Y-113642061D02*
X166567200Y-113737299D01*
X166567200Y-113737299D02*
X166519580Y-113784918D01*
X154101895Y-92317219D02*
X154101895Y-93126742D01*
X154101895Y-93126742D02*
X154149514Y-93221980D01*
X154149514Y-93221980D02*
X154197133Y-93269600D01*
X154197133Y-93269600D02*
X154292371Y-93317219D01*
X154292371Y-93317219D02*
X154482847Y-93317219D01*
X154482847Y-93317219D02*
X154578085Y-93269600D01*
X154578085Y-93269600D02*
X154625704Y-93221980D01*
X154625704Y-93221980D02*
X154673323Y-93126742D01*
X154673323Y-93126742D02*
X154673323Y-92317219D01*
X155292371Y-92745790D02*
X155197133Y-92698171D01*
X155197133Y-92698171D02*
X155149514Y-92650552D01*
X155149514Y-92650552D02*
X155101895Y-92555314D01*
X155101895Y-92555314D02*
X155101895Y-92507695D01*
X155101895Y-92507695D02*
X155149514Y-92412457D01*
X155149514Y-92412457D02*
X155197133Y-92364838D01*
X155197133Y-92364838D02*
X155292371Y-92317219D01*
X155292371Y-92317219D02*
X155482847Y-92317219D01*
X155482847Y-92317219D02*
X155578085Y-92364838D01*
X155578085Y-92364838D02*
X155625704Y-92412457D01*
X155625704Y-92412457D02*
X155673323Y-92507695D01*
X155673323Y-92507695D02*
X155673323Y-92555314D01*
X155673323Y-92555314D02*
X155625704Y-92650552D01*
X155625704Y-92650552D02*
X155578085Y-92698171D01*
X155578085Y-92698171D02*
X155482847Y-92745790D01*
X155482847Y-92745790D02*
X155292371Y-92745790D01*
X155292371Y-92745790D02*
X155197133Y-92793409D01*
X155197133Y-92793409D02*
X155149514Y-92841028D01*
X155149514Y-92841028D02*
X155101895Y-92936266D01*
X155101895Y-92936266D02*
X155101895Y-93126742D01*
X155101895Y-93126742D02*
X155149514Y-93221980D01*
X155149514Y-93221980D02*
X155197133Y-93269600D01*
X155197133Y-93269600D02*
X155292371Y-93317219D01*
X155292371Y-93317219D02*
X155482847Y-93317219D01*
X155482847Y-93317219D02*
X155578085Y-93269600D01*
X155578085Y-93269600D02*
X155625704Y-93221980D01*
X155625704Y-93221980D02*
X155673323Y-93126742D01*
X155673323Y-93126742D02*
X155673323Y-92936266D01*
X155673323Y-92936266D02*
X155625704Y-92841028D01*
X155625704Y-92841028D02*
X155578085Y-92793409D01*
X155578085Y-92793409D02*
X155482847Y-92745790D01*
X165538619Y-96533456D02*
X165538619Y-95866790D01*
X165538619Y-95866790D02*
X166538619Y-96295361D01*
X165871952Y-95057266D02*
X166538619Y-95057266D01*
X165491000Y-95295361D02*
X166205285Y-95533456D01*
X166205285Y-95533456D02*
X166205285Y-94914409D01*
X166538619Y-94533456D02*
X165538619Y-94533456D01*
X166014809Y-94533456D02*
X166014809Y-93962028D01*
X166538619Y-93962028D02*
X165538619Y-93962028D01*
X166443380Y-92914409D02*
X166491000Y-92962028D01*
X166491000Y-92962028D02*
X166538619Y-93104885D01*
X166538619Y-93104885D02*
X166538619Y-93200123D01*
X166538619Y-93200123D02*
X166491000Y-93342980D01*
X166491000Y-93342980D02*
X166395761Y-93438218D01*
X166395761Y-93438218D02*
X166300523Y-93485837D01*
X166300523Y-93485837D02*
X166110047Y-93533456D01*
X166110047Y-93533456D02*
X165967190Y-93533456D01*
X165967190Y-93533456D02*
X165776714Y-93485837D01*
X165776714Y-93485837D02*
X165681476Y-93438218D01*
X165681476Y-93438218D02*
X165586238Y-93342980D01*
X165586238Y-93342980D02*
X165538619Y-93200123D01*
X165538619Y-93200123D02*
X165538619Y-93104885D01*
X165538619Y-93104885D02*
X165586238Y-92962028D01*
X165586238Y-92962028D02*
X165633857Y-92914409D01*
X165538619Y-92628694D02*
X165538619Y-92057266D01*
X166538619Y-92342980D02*
X165538619Y-92342980D01*
X166538619Y-91200123D02*
X166538619Y-91771551D01*
X166538619Y-91485837D02*
X165538619Y-91485837D01*
X165538619Y-91485837D02*
X165681476Y-91581075D01*
X165681476Y-91581075D02*
X165776714Y-91676313D01*
X165776714Y-91676313D02*
X165824333Y-91771551D01*
X165538619Y-90866789D02*
X165538619Y-90247742D01*
X165538619Y-90247742D02*
X165919571Y-90581075D01*
X165919571Y-90581075D02*
X165919571Y-90438218D01*
X165919571Y-90438218D02*
X165967190Y-90342980D01*
X165967190Y-90342980D02*
X166014809Y-90295361D01*
X166014809Y-90295361D02*
X166110047Y-90247742D01*
X166110047Y-90247742D02*
X166348142Y-90247742D01*
X166348142Y-90247742D02*
X166443380Y-90295361D01*
X166443380Y-90295361D02*
X166491000Y-90342980D01*
X166491000Y-90342980D02*
X166538619Y-90438218D01*
X166538619Y-90438218D02*
X166538619Y-90723932D01*
X166538619Y-90723932D02*
X166491000Y-90819170D01*
X166491000Y-90819170D02*
X166443380Y-90866789D01*
X165967190Y-89676313D02*
X165919571Y-89771551D01*
X165919571Y-89771551D02*
X165871952Y-89819170D01*
X165871952Y-89819170D02*
X165776714Y-89866789D01*
X165776714Y-89866789D02*
X165729095Y-89866789D01*
X165729095Y-89866789D02*
X165633857Y-89819170D01*
X165633857Y-89819170D02*
X165586238Y-89771551D01*
X165586238Y-89771551D02*
X165538619Y-89676313D01*
X165538619Y-89676313D02*
X165538619Y-89485837D01*
X165538619Y-89485837D02*
X165586238Y-89390599D01*
X165586238Y-89390599D02*
X165633857Y-89342980D01*
X165633857Y-89342980D02*
X165729095Y-89295361D01*
X165729095Y-89295361D02*
X165776714Y-89295361D01*
X165776714Y-89295361D02*
X165871952Y-89342980D01*
X165871952Y-89342980D02*
X165919571Y-89390599D01*
X165919571Y-89390599D02*
X165967190Y-89485837D01*
X165967190Y-89485837D02*
X165967190Y-89676313D01*
X165967190Y-89676313D02*
X166014809Y-89771551D01*
X166014809Y-89771551D02*
X166062428Y-89819170D01*
X166062428Y-89819170D02*
X166157666Y-89866789D01*
X166157666Y-89866789D02*
X166348142Y-89866789D01*
X166348142Y-89866789D02*
X166443380Y-89819170D01*
X166443380Y-89819170D02*
X166491000Y-89771551D01*
X166491000Y-89771551D02*
X166538619Y-89676313D01*
X166538619Y-89676313D02*
X166538619Y-89485837D01*
X166538619Y-89485837D02*
X166491000Y-89390599D01*
X166491000Y-89390599D02*
X166443380Y-89342980D01*
X166443380Y-89342980D02*
X166348142Y-89295361D01*
X166348142Y-89295361D02*
X166157666Y-89295361D01*
X166157666Y-89295361D02*
X166062428Y-89342980D01*
X166062428Y-89342980D02*
X166014809Y-89390599D01*
X166014809Y-89390599D02*
X165967190Y-89485837D01*
X101537867Y-73302800D02*
X101680724Y-73350419D01*
X101680724Y-73350419D02*
X101918819Y-73350419D01*
X101918819Y-73350419D02*
X102014057Y-73302800D01*
X102014057Y-73302800D02*
X102061676Y-73255180D01*
X102061676Y-73255180D02*
X102109295Y-73159942D01*
X102109295Y-73159942D02*
X102109295Y-73064704D01*
X102109295Y-73064704D02*
X102061676Y-72969466D01*
X102061676Y-72969466D02*
X102014057Y-72921847D01*
X102014057Y-72921847D02*
X101918819Y-72874228D01*
X101918819Y-72874228D02*
X101728343Y-72826609D01*
X101728343Y-72826609D02*
X101633105Y-72778990D01*
X101633105Y-72778990D02*
X101585486Y-72731371D01*
X101585486Y-72731371D02*
X101537867Y-72636133D01*
X101537867Y-72636133D02*
X101537867Y-72540895D01*
X101537867Y-72540895D02*
X101585486Y-72445657D01*
X101585486Y-72445657D02*
X101633105Y-72398038D01*
X101633105Y-72398038D02*
X101728343Y-72350419D01*
X101728343Y-72350419D02*
X101966438Y-72350419D01*
X101966438Y-72350419D02*
X102109295Y-72398038D01*
X102442629Y-72350419D02*
X102680724Y-73350419D01*
X102680724Y-73350419D02*
X102871200Y-72636133D01*
X102871200Y-72636133D02*
X103061676Y-73350419D01*
X103061676Y-73350419D02*
X103299772Y-72350419D01*
X104204533Y-73350419D02*
X103633105Y-73350419D01*
X103918819Y-73350419D02*
X103918819Y-72350419D01*
X103918819Y-72350419D02*
X103823581Y-72493276D01*
X103823581Y-72493276D02*
X103728343Y-72588514D01*
X103728343Y-72588514D02*
X103633105Y-72636133D01*
D12*
G04 #@! TO.C,U1*
X105578000Y-96700000D02*
X105578000Y-96300000D01*
X126578000Y-124700000D02*
X126578000Y-124300000D01*
X126578000Y-122100000D02*
X126578000Y-121700000D01*
X105578000Y-91600000D02*
X105578000Y-91200000D01*
X119778000Y-76100000D02*
X126578000Y-76100000D01*
X105578000Y-101800000D02*
X105578000Y-101400000D01*
X105578000Y-78900000D02*
X105578000Y-78500000D01*
X105578000Y-124700000D02*
X105578000Y-124300000D01*
X123571000Y-124433000D02*
X123571000Y-127100000D01*
X105578000Y-106900000D02*
X105578000Y-106500000D01*
X126578000Y-127100000D02*
X105578000Y-127100000D01*
X126578000Y-81500000D02*
X126578000Y-81100000D01*
X126578000Y-104300000D02*
X126578000Y-103900000D01*
X126578000Y-78900000D02*
X126578000Y-78500000D01*
X126578000Y-117000000D02*
X126578000Y-116600000D01*
X126578000Y-106900000D02*
X126578000Y-106500000D01*
X105578000Y-104300000D02*
X105578000Y-103900000D01*
X105578000Y-76100000D02*
X112378000Y-76100000D01*
X105578000Y-117000000D02*
X105578000Y-116600000D01*
X126578000Y-94200000D02*
X126578000Y-93800000D01*
X126578000Y-124433000D02*
X123571000Y-124433000D01*
X126578000Y-109400000D02*
X126578000Y-109000000D01*
X126578000Y-96700000D02*
X126578000Y-96300000D01*
X117578000Y-76100000D02*
X117178000Y-76100000D01*
X126578000Y-114500000D02*
X126578000Y-114100000D01*
X105578000Y-122100000D02*
X105578000Y-121700000D01*
X126578000Y-86500000D02*
X126578000Y-86100000D01*
X114978000Y-76100000D02*
X114578000Y-76100000D01*
X105578000Y-114500000D02*
X105578000Y-114100000D01*
X126578000Y-91600000D02*
X126578000Y-91200000D01*
X105578000Y-99300000D02*
X105578000Y-98900000D01*
X126578000Y-112000000D02*
X126578000Y-111600000D01*
X126578000Y-101800000D02*
X126578000Y-101400000D01*
X126578000Y-84000000D02*
X126578000Y-83600000D01*
X126578000Y-89100000D02*
X126578000Y-88700000D01*
X105578000Y-94200000D02*
X105578000Y-93800000D01*
X105578000Y-112000000D02*
X105578000Y-111600000D01*
X105578000Y-84000000D02*
X105578000Y-83600000D01*
X105578000Y-109400000D02*
X105578000Y-109000000D01*
X126578000Y-127100000D02*
X126578000Y-126800000D01*
X105578000Y-81500000D02*
X105578000Y-81100000D01*
X105578000Y-89100000D02*
X105578000Y-88700000D01*
X105578000Y-119600000D02*
X105578000Y-119200000D01*
X126578000Y-99300000D02*
X126578000Y-98900000D01*
X105578000Y-127100000D02*
X105578000Y-126800000D01*
X126578000Y-119600000D02*
X126578000Y-119200000D01*
X105578000Y-86500000D02*
X105578000Y-86100000D01*
G04 #@! TO.C,C7*
X142114600Y-66239400D02*
X142451600Y-66239400D01*
X142114600Y-71479400D02*
X142114600Y-66239400D01*
X142451600Y-71479400D02*
X142114600Y-71479400D01*
X144517600Y-66239400D02*
X144854600Y-66239400D01*
X144854600Y-66239400D02*
X144854600Y-71479400D01*
X144854600Y-71479400D02*
X144517600Y-71479400D01*
G04 #@! TO.C,U5*
X121966600Y-66355400D02*
X121966600Y-67605400D01*
X121966600Y-69605400D02*
X121966600Y-70855400D01*
X121966600Y-70855400D02*
X139866600Y-70855400D01*
X139866600Y-66355400D02*
X121966600Y-66355400D01*
X139866600Y-70855400D02*
X139866600Y-66355400D01*
X121906600Y-73855400D02*
X139926600Y-73855400D01*
X139926600Y-63355400D01*
X121906600Y-63355400D01*
X121906600Y-73855400D01*
X121966600Y-67605400D02*
G75*
G02*
X121966600Y-69605400I0J-1000000D01*
G01*
G04 #@! TO.C,D1*
X95304000Y-119911600D02*
X98244000Y-119911600D01*
X95304000Y-120031600D02*
X98244000Y-120031600D01*
X95304000Y-120151600D02*
X98244000Y-120151600D01*
X96774000Y-114471600D02*
X96774000Y-115491600D01*
X96774000Y-121951600D02*
X96774000Y-120931600D01*
X95304000Y-120931600D02*
X98244000Y-120931600D01*
X98244000Y-115491600D01*
X95304000Y-115491600D01*
X95304000Y-120931600D01*
G04 #@! TO.C,C4*
X140514400Y-90242400D02*
X140851400Y-90242400D01*
X140514400Y-95482400D02*
X140514400Y-90242400D01*
X140851400Y-95482400D02*
X140514400Y-95482400D01*
X142917400Y-90242400D02*
X143254400Y-90242400D01*
X143254400Y-90242400D02*
X143254400Y-95482400D01*
X143254400Y-95482400D02*
X142917400Y-95482400D01*
G04 #@! TO.C,C3*
X134723200Y-126005600D02*
X135060200Y-126005600D01*
X134723200Y-131245600D02*
X134723200Y-126005600D01*
X135060200Y-131245600D02*
X134723200Y-131245600D01*
X137126200Y-126005600D02*
X137463200Y-126005600D01*
X137463200Y-126005600D02*
X137463200Y-131245600D01*
X137463200Y-131245600D02*
X137126200Y-131245600D01*
G04 #@! TO.C,C1*
X134774000Y-102229000D02*
X135111000Y-102229000D01*
X134774000Y-107469000D02*
X134774000Y-102229000D01*
X135111000Y-107469000D02*
X134774000Y-107469000D01*
X137177000Y-102229000D02*
X137514000Y-102229000D01*
X137514000Y-102229000D02*
X137514000Y-107469000D01*
X137514000Y-107469000D02*
X137177000Y-107469000D01*
G04 #@! TO.C,J1*
X166323500Y-68080000D02*
X166323500Y-69080000D01*
X166323500Y-69080000D02*
X167323500Y-68580000D01*
X167323500Y-68580000D02*
X166323500Y-68080000D01*
X172943500Y-63370000D02*
X182063500Y-63370000D01*
X172943500Y-97010000D02*
X182063500Y-97010000D01*
X172943500Y-101110000D02*
X182063500Y-101110000D01*
X172943500Y-134750000D02*
X172943500Y-63370000D01*
X182063500Y-63370000D02*
X182063500Y-134750000D01*
X182063500Y-134750000D02*
X172943500Y-134750000D01*
G04 #@! TO.C,U4*
X139690800Y-102599000D02*
X139690800Y-103849000D01*
X139690800Y-105849000D02*
X139690800Y-107099000D01*
X139690800Y-107099000D02*
X165210800Y-107099000D01*
X165210800Y-102599000D02*
X139690800Y-102599000D01*
X165210800Y-107099000D02*
X165210800Y-102599000D01*
X139630800Y-110099000D02*
X165270800Y-110099000D01*
X165270800Y-99599000D01*
X139630800Y-99599000D01*
X139630800Y-110099000D01*
X139690800Y-103849000D02*
G75*
G02*
X139690800Y-105849000I0J-1000000D01*
G01*
G04 #@! TO.C,C6*
X140438200Y-78075800D02*
X140775200Y-78075800D01*
X140438200Y-83315800D02*
X140438200Y-78075800D01*
X140775200Y-83315800D02*
X140438200Y-83315800D01*
X142841200Y-78075800D02*
X143178200Y-78075800D01*
X143178200Y-78075800D02*
X143178200Y-83315800D01*
X143178200Y-83315800D02*
X142841200Y-83315800D01*
G04 #@! TO.C,U3*
X139640000Y-126375600D02*
X139640000Y-127625600D01*
X139640000Y-129625600D02*
X139640000Y-130875600D01*
X139640000Y-130875600D02*
X165160000Y-130875600D01*
X165160000Y-126375600D02*
X139640000Y-126375600D01*
X165160000Y-130875600D02*
X165160000Y-126375600D01*
X139580000Y-133875600D02*
X165220000Y-133875600D01*
X165220000Y-123375600D01*
X139580000Y-123375600D01*
X139580000Y-133875600D01*
X139640000Y-127625600D02*
G75*
G02*
X139640000Y-129625600I0J-1000000D01*
G01*
G04 #@! TO.C,C5*
X117019400Y-65669800D02*
X117356400Y-65669800D01*
X117019400Y-70909800D02*
X117019400Y-65669800D01*
X117356400Y-70909800D02*
X117019400Y-70909800D01*
X119422400Y-65669800D02*
X119759400Y-65669800D01*
X119759400Y-65669800D02*
X119759400Y-70909800D01*
X119759400Y-70909800D02*
X119422400Y-70909800D01*
G04 #@! TO.C,U6*
X144491400Y-78612300D02*
X144491400Y-79862300D01*
X144491400Y-81862300D02*
X144491400Y-83112300D01*
X144491400Y-83112300D02*
X164931400Y-83112300D01*
X164931400Y-78612300D02*
X144491400Y-78612300D01*
X164931400Y-83112300D02*
X164931400Y-78612300D01*
X144431400Y-86112300D02*
X164991400Y-86112300D01*
X164991400Y-75612300D01*
X144431400Y-75612300D01*
X144431400Y-86112300D01*
X144491400Y-79862300D02*
G75*
G02*
X144491400Y-81862300I0J-1000000D01*
G01*
G04 #@! TO.C,U7*
X146701200Y-66355400D02*
X146701200Y-67605400D01*
X146701200Y-69605400D02*
X146701200Y-70855400D01*
X146701200Y-70855400D02*
X164601200Y-70855400D01*
X164601200Y-66355400D02*
X146701200Y-66355400D01*
X164601200Y-70855400D02*
X164601200Y-66355400D01*
X146641200Y-73855400D02*
X164661200Y-73855400D01*
X164661200Y-63355400D01*
X146641200Y-63355400D01*
X146641200Y-73855400D01*
X146701200Y-67605400D02*
G75*
G02*
X146701200Y-69605400I0J-1000000D01*
G01*
G04 #@! TO.C,J2*
X133163800Y-76902800D02*
X134543800Y-76902800D01*
X133163800Y-78282800D02*
X133163800Y-76902800D01*
X133163800Y-79552800D02*
X133163800Y-82202800D01*
X133163800Y-79552800D02*
X135813800Y-79552800D01*
X133163800Y-82202800D02*
X138463800Y-82202800D01*
X135813800Y-76902800D02*
X138463800Y-76902800D01*
X135813800Y-79552800D02*
X135813800Y-76902800D01*
X138463800Y-76902800D02*
X138463800Y-82202800D01*
G04 #@! TO.C,C2*
X134723200Y-114117300D02*
X135060200Y-114117300D01*
X134723200Y-119357300D02*
X134723200Y-114117300D01*
X135060200Y-119357300D02*
X134723200Y-119357300D01*
X137126200Y-114117300D02*
X137463200Y-114117300D01*
X137463200Y-114117300D02*
X137463200Y-119357300D01*
X137463200Y-119357300D02*
X137126200Y-119357300D01*
G04 #@! TO.C,J3*
X133163800Y-86478600D02*
X134543800Y-86478600D01*
X133163800Y-87858600D02*
X133163800Y-86478600D01*
X133163800Y-89128600D02*
X133163800Y-96858600D01*
X133163800Y-89128600D02*
X135813800Y-89128600D01*
X133163800Y-96858600D02*
X138463800Y-96858600D01*
X135813800Y-86478600D02*
X138463800Y-86478600D01*
X135813800Y-89128600D02*
X135813800Y-86478600D01*
X138463800Y-86478600D02*
X138463800Y-96858600D01*
G04 #@! TO.C,U2*
X139640000Y-114487300D02*
X139640000Y-115737300D01*
X139640000Y-117737300D02*
X139640000Y-118987300D01*
X139640000Y-118987300D02*
X165160000Y-118987300D01*
X165160000Y-114487300D02*
X139640000Y-114487300D01*
X165160000Y-118987300D02*
X165160000Y-114487300D01*
X139580000Y-121987300D02*
X165220000Y-121987300D01*
X165220000Y-111487300D01*
X139580000Y-111487300D01*
X139580000Y-121987300D01*
X139640000Y-115737300D02*
G75*
G02*
X139640000Y-117737300I0J-1000000D01*
G01*
G04 #@! TO.C,U8*
X144643800Y-90640600D02*
X144643800Y-91890600D01*
X144643800Y-93890600D02*
X144643800Y-95140600D01*
X144643800Y-95140600D02*
X165083800Y-95140600D01*
X165083800Y-90640600D02*
X144643800Y-90640600D01*
X165083800Y-95140600D02*
X165083800Y-90640600D01*
X144583800Y-98140600D02*
X165143800Y-98140600D01*
X165143800Y-87640600D01*
X144583800Y-87640600D01*
X144583800Y-98140600D01*
X144643800Y-91890600D02*
G75*
G02*
X144643800Y-93890600I0J-1000000D01*
G01*
G04 #@! TO.C,SW1*
X99371200Y-67895600D02*
X99371200Y-69395600D01*
X100621200Y-71895600D02*
X105121200Y-71895600D01*
X105121200Y-65395600D02*
X100621200Y-65395600D01*
X106371200Y-69395600D02*
X106371200Y-67895600D01*
G04 #@! TD*
M02*
